M48
INCH,TZ
T1C0.016
T2C0.030
T3C0.039
T4C0.060
%
G90
G05
T1
X71769Y-49109
X72250Y-46590
T2
X62600Y-43000
X62600Y-44000
X62700Y-45500
X62700Y-52800
X63600Y-43000
X63600Y-44000
X63700Y-45500
X63700Y-52800
X64600Y-43000
X64600Y-44000
X65600Y-43000
X65600Y-44000
X66600Y-43000
X66600Y-44000
X66700Y-45500
X67600Y-43000
X67600Y-44000
X67700Y-45500
X67700Y-52800
X68600Y-43000
X68600Y-44000
X68700Y-45500
X68700Y-52800
X69600Y-43000
X69600Y-44000
X70600Y-43000
X70600Y-44000
X71600Y-43000
X71600Y-44000
X72600Y-43000
X72600Y-44000
X73600Y-43000
X73600Y-44000
X74600Y-43000
X74600Y-44000
X75600Y-43000
X75600Y-44000
X76600Y-43000
X76600Y-44000
X77600Y-43000
X77600Y-44000
X78600Y-43000
X78600Y-44000
X79600Y-43000
X79600Y-44000
X80600Y-43000
X80600Y-44000
X81600Y-43000
X81600Y-44000
T3
X60700Y-45750
X60700Y-46750
T4
X75510Y-51650
X77510Y-51650
X79510Y-51650
X81510Y-51650
T0
M30
