G04 #@! TF.FileFunction,Copper,L1,Top,Signal*
%FSLAX46Y46*%
G04 Gerber Fmt 4.6, Leading zero omitted, Abs format (unit mm)*
G04 Created by KiCad (PCBNEW 4.0.7-e2-6376~58~ubuntu16.04.1) date Sun Dec 31 15:52:29 2017*
%MOMM*%
%LPD*%
G01*
G04 APERTURE LIST*
%ADD10C,0.100000*%
%ADD11C,3.000000*%
%ADD12R,3.000000X3.000000*%
%ADD13R,2.750000X1.800000*%
%ADD14C,1.650000*%
%ADD15C,1.524000*%
%ADD16R,1.250000X1.000000*%
%ADD17R,1.000000X1.250000*%
%ADD18R,1.600000X1.000000*%
%ADD19R,1.700000X1.700000*%
%ADD20O,1.700000X1.700000*%
%ADD21R,1.300000X0.700000*%
%ADD22R,0.700000X1.300000*%
%ADD23R,0.400000X0.500000*%
%ADD24R,1.524000X1.524000*%
%ADD25C,0.600000*%
%ADD26C,0.250000*%
%ADD27C,0.254000*%
G04 APERTURE END LIST*
D10*
D11*
X196875400Y-131191000D03*
X201955400Y-131191000D03*
D12*
X191795400Y-131191000D03*
D11*
X207035400Y-131191000D03*
D13*
X180213000Y-133940000D03*
X180213000Y-130640000D03*
X180213000Y-124790000D03*
X186963000Y-133690000D03*
X186963000Y-126590000D03*
D14*
X183388000Y-132890000D03*
X183388000Y-126890000D03*
D15*
X159004000Y-111760000D03*
X159004000Y-109220000D03*
X161544000Y-111760000D03*
X161544000Y-109220000D03*
X164084000Y-111760000D03*
X164084000Y-109220000D03*
X166624000Y-111760000D03*
X166624000Y-109220000D03*
X169164000Y-111760000D03*
X169164000Y-109220000D03*
X171704000Y-111760000D03*
X171704000Y-109220000D03*
X174244000Y-111760000D03*
X174244000Y-109220000D03*
X176784000Y-111760000D03*
X176784000Y-109220000D03*
X179324000Y-111760000D03*
X179324000Y-109220000D03*
X181864000Y-111760000D03*
X181864000Y-109220000D03*
X184404000Y-111760000D03*
X184404000Y-109220000D03*
X186944000Y-111760000D03*
X186944000Y-109220000D03*
X189484000Y-111760000D03*
X189484000Y-109220000D03*
X192024000Y-111760000D03*
X192024000Y-109220000D03*
X194564000Y-111760000D03*
X194564000Y-109220000D03*
X197104000Y-111760000D03*
X197104000Y-109220000D03*
X199644000Y-111760000D03*
X199644000Y-109220000D03*
X202184000Y-111760000D03*
X202184000Y-109220000D03*
X204724000Y-111760000D03*
X204724000Y-109220000D03*
X207264000Y-111760000D03*
X207264000Y-109220000D03*
D16*
X184912000Y-116189000D03*
X184912000Y-114189000D03*
D17*
X187055000Y-118237000D03*
X185055000Y-118237000D03*
X179848000Y-118110000D03*
X181848000Y-118110000D03*
D18*
X177800000Y-121007000D03*
X177800000Y-118007000D03*
X189103000Y-118134000D03*
X189103000Y-121134000D03*
D19*
X154178000Y-118745000D03*
D20*
X154178000Y-116205000D03*
D21*
X186944000Y-116139000D03*
X186944000Y-114239000D03*
X179959000Y-116139000D03*
X179959000Y-114239000D03*
D22*
X187005000Y-122301000D03*
X185105000Y-122301000D03*
X179898000Y-122174000D03*
X181798000Y-122174000D03*
X187005000Y-120269000D03*
X185105000Y-120269000D03*
X179898000Y-120142000D03*
X181798000Y-120142000D03*
D23*
X183261000Y-114236500D03*
X182613300Y-114236500D03*
X181965600Y-114236500D03*
X181965600Y-116141500D03*
X182613300Y-116141500D03*
X183261000Y-116141500D03*
D24*
X174498000Y-134112000D03*
X171958000Y-134112000D03*
X161798000Y-134112000D03*
X159258000Y-134112000D03*
X174498000Y-115570000D03*
X171958000Y-115570000D03*
X169418000Y-115570000D03*
X161798000Y-115570000D03*
X159258000Y-115570000D03*
D25*
X183515000Y-118338600D03*
X182292200Y-124737700D03*
D26*
X186944000Y-116139000D02*
X186944000Y-116476600D01*
X189103000Y-121134000D02*
X189103000Y-120308700D01*
X190228400Y-119183300D02*
X189103000Y-120308700D01*
X190228400Y-117464200D02*
X190228400Y-119183300D01*
X190043200Y-117279000D02*
X190228400Y-117464200D01*
X187055000Y-117279000D02*
X190043200Y-117279000D01*
X187055000Y-116587600D02*
X187055000Y-117279000D01*
X186944000Y-116476600D02*
X187055000Y-116587600D01*
X187055000Y-117279000D02*
X187055000Y-118237000D01*
X188761300Y-122301000D02*
X189103000Y-121959300D01*
X187005000Y-122301000D02*
X188761300Y-122301000D01*
X189103000Y-121134000D02*
X189103000Y-121959300D01*
X180301400Y-119060300D02*
X179848000Y-119060300D01*
X180573300Y-119332200D02*
X180301400Y-119060300D01*
X180573300Y-122174000D02*
X180573300Y-119332200D01*
X179898000Y-122174000D02*
X180573300Y-122174000D01*
X179848000Y-118110000D02*
X179848000Y-119060300D01*
X179959000Y-117048700D02*
X179848000Y-117159700D01*
X179959000Y-116139000D02*
X179959000Y-117048700D01*
X179848000Y-118110000D02*
X179848000Y-117159700D01*
X178925300Y-118012600D02*
X179022700Y-118110000D01*
X178925300Y-118007000D02*
X178925300Y-118012600D01*
X179848000Y-118110000D02*
X179022700Y-118110000D01*
X177800000Y-118007000D02*
X178925300Y-118007000D01*
X186494700Y-115363600D02*
X186944000Y-114914300D01*
X184038900Y-115363600D02*
X186494700Y-115363600D01*
X183786300Y-115616200D02*
X184038900Y-115363600D01*
X183786300Y-116141500D02*
X183786300Y-115616200D01*
X183261000Y-116141500D02*
X183786300Y-116141500D01*
X186944000Y-114239000D02*
X186944000Y-114914300D01*
X184384200Y-116716800D02*
X184912000Y-116189000D01*
X182613300Y-116716800D02*
X184384200Y-116716800D01*
X182613300Y-116141500D02*
X182613300Y-116604200D01*
X182613300Y-116604200D02*
X182613300Y-116716800D01*
X160783500Y-113539500D02*
X159004000Y-111760000D01*
X174485800Y-113539500D02*
X160783500Y-113539500D01*
X176409900Y-115463600D02*
X174485800Y-113539500D01*
X180807700Y-115463600D02*
X176409900Y-115463600D01*
X181030400Y-115686300D02*
X180807700Y-115463600D01*
X181030400Y-116152600D02*
X181030400Y-115686300D01*
X181594600Y-116716800D02*
X181030400Y-116152600D01*
X182613300Y-116716800D02*
X181594600Y-116716800D01*
X185055000Y-118237000D02*
X183616600Y-118237000D01*
X183616600Y-118237000D02*
X183515000Y-118338600D01*
X182613300Y-114236500D02*
X182613300Y-113195100D01*
X183134000Y-110490000D02*
X181864000Y-109220000D01*
X183134000Y-112674400D02*
X183134000Y-110490000D01*
X182613300Y-113195100D02*
X183134000Y-112674400D01*
X184912000Y-114189000D02*
X184642000Y-114189000D01*
X184642000Y-114189000D02*
X183896000Y-114935000D01*
X183896000Y-114935000D02*
X182956200Y-114935000D01*
X182613300Y-114236500D02*
X182613300Y-114592100D01*
X182613300Y-114592100D02*
X182956200Y-114935000D01*
X181925000Y-108838000D02*
X181885000Y-108798000D01*
X181925000Y-109761000D02*
X181925000Y-108838000D01*
X178512700Y-122545000D02*
X177800000Y-121832300D01*
X178512700Y-130640000D02*
X178512700Y-122545000D01*
X180213000Y-130640000D02*
X178512700Y-130640000D01*
X177800000Y-121007000D02*
X177800000Y-121832300D01*
X177800000Y-121007000D02*
X177800000Y-120181700D01*
X169418000Y-115570000D02*
X170505300Y-115570000D01*
X174573400Y-120181700D02*
X177800000Y-120181700D01*
X170505300Y-116113600D02*
X174573400Y-120181700D01*
X170505300Y-115570000D02*
X170505300Y-116113600D01*
X177839700Y-120142000D02*
X179898000Y-120142000D01*
X177800000Y-120181700D02*
X177839700Y-120142000D01*
X180213000Y-124790000D02*
X181913300Y-124790000D01*
X181965600Y-124737700D02*
X182292200Y-124737700D01*
X181913300Y-124790000D02*
X181965600Y-124737700D01*
X186963000Y-126590000D02*
X185262700Y-126590000D01*
X188990000Y-118959300D02*
X189103000Y-118959300D01*
X187680300Y-120269000D02*
X188990000Y-118959300D01*
X187005000Y-120269000D02*
X187680300Y-120269000D01*
X189103000Y-118134000D02*
X189103000Y-118959300D01*
X187005000Y-120269000D02*
X186329700Y-120269000D01*
X186329700Y-122559500D02*
X186329700Y-120269000D01*
X183966300Y-124922900D02*
X186329700Y-122559500D01*
X184151500Y-125108200D02*
X183966300Y-124922900D01*
X184151500Y-125478800D02*
X184151500Y-125108200D01*
X185262700Y-126590000D02*
X184151500Y-125478800D01*
X183781000Y-124737700D02*
X182292200Y-124737700D01*
X183966300Y-124922900D02*
X183781000Y-124737700D01*
X181966000Y-116142000D02*
X181966000Y-116063500D01*
X181966000Y-116063500D02*
X181966000Y-115985000D01*
X181965600Y-116063900D02*
X181965600Y-116141500D01*
X181966000Y-116063500D02*
X181965600Y-116063900D01*
X180220000Y-114239000D02*
X180089500Y-114239000D01*
X180089500Y-114239000D02*
X179959000Y-114239000D01*
X181966000Y-115985000D02*
X180220000Y-114239000D01*
X172974000Y-110490000D02*
X171704000Y-109220000D01*
X177083100Y-110490000D02*
X172974000Y-110490000D01*
X177871400Y-111278300D02*
X177083100Y-110490000D01*
X177871400Y-111891600D02*
X177871400Y-111278300D01*
X179002700Y-113022900D02*
X177871400Y-111891600D01*
X180226700Y-113022900D02*
X179002700Y-113022900D01*
X181440300Y-114236500D02*
X180226700Y-113022900D01*
X181965600Y-114236500D02*
X181440300Y-114236500D01*
X183786300Y-113711200D02*
X183786300Y-114236500D01*
X184650100Y-112847400D02*
X183786300Y-113711200D01*
X198556600Y-112847400D02*
X184650100Y-112847400D01*
X199644000Y-111760000D02*
X198556600Y-112847400D01*
X183261000Y-114236500D02*
X183786300Y-114236500D01*
D27*
G36*
X213338202Y-107888905D02*
X214248252Y-108515966D01*
X214849062Y-109443558D01*
X215063000Y-110605612D01*
X215063000Y-133201419D01*
X214904597Y-134393070D01*
X214349450Y-135351838D01*
X213469657Y-136025179D01*
X212352578Y-136323000D01*
X154006749Y-136323000D01*
X152873567Y-136055223D01*
X151976552Y-135408385D01*
X151395351Y-134467510D01*
X151299347Y-133875060D01*
X152040652Y-133875060D01*
X152346012Y-134614086D01*
X152910940Y-135180001D01*
X153649432Y-135486650D01*
X154449060Y-135487348D01*
X155188086Y-135181988D01*
X155754001Y-134617060D01*
X156060650Y-133878568D01*
X156061111Y-133350000D01*
X157848560Y-133350000D01*
X157848560Y-134874000D01*
X157892838Y-135109317D01*
X158031910Y-135325441D01*
X158244110Y-135470431D01*
X158496000Y-135521440D01*
X160020000Y-135521440D01*
X160255317Y-135477162D01*
X160471441Y-135338090D01*
X160527374Y-135256230D01*
X160571910Y-135325441D01*
X160784110Y-135470431D01*
X161036000Y-135521440D01*
X162560000Y-135521440D01*
X162795317Y-135477162D01*
X163011441Y-135338090D01*
X163156431Y-135125890D01*
X163207440Y-134874000D01*
X163207440Y-133350000D01*
X170548560Y-133350000D01*
X170548560Y-134874000D01*
X170592838Y-135109317D01*
X170731910Y-135325441D01*
X170944110Y-135470431D01*
X171196000Y-135521440D01*
X172720000Y-135521440D01*
X172955317Y-135477162D01*
X173171441Y-135338090D01*
X173227374Y-135256230D01*
X173271910Y-135325441D01*
X173484110Y-135470431D01*
X173736000Y-135521440D01*
X175260000Y-135521440D01*
X175495317Y-135477162D01*
X175711441Y-135338090D01*
X175856431Y-135125890D01*
X175907440Y-134874000D01*
X175907440Y-134225750D01*
X178203000Y-134225750D01*
X178203000Y-134966309D01*
X178299673Y-135199698D01*
X178478301Y-135378327D01*
X178711690Y-135475000D01*
X179927250Y-135475000D01*
X180086000Y-135316250D01*
X180086000Y-134067000D01*
X180340000Y-134067000D01*
X180340000Y-135316250D01*
X180498750Y-135475000D01*
X181714310Y-135475000D01*
X181947699Y-135378327D01*
X182126327Y-135199698D01*
X182223000Y-134966309D01*
X182223000Y-134225750D01*
X182064250Y-134067000D01*
X180340000Y-134067000D01*
X180086000Y-134067000D01*
X178361750Y-134067000D01*
X178203000Y-134225750D01*
X175907440Y-134225750D01*
X175907440Y-133350000D01*
X175863162Y-133114683D01*
X175733828Y-132913691D01*
X178203000Y-132913691D01*
X178203000Y-133654250D01*
X178361750Y-133813000D01*
X180086000Y-133813000D01*
X180086000Y-132563750D01*
X180340000Y-132563750D01*
X180340000Y-133813000D01*
X182064250Y-133813000D01*
X182155424Y-133721826D01*
X182559897Y-134127006D01*
X183096314Y-134349746D01*
X183677138Y-134350253D01*
X184213943Y-134128449D01*
X184366908Y-133975750D01*
X184953000Y-133975750D01*
X184953000Y-134716309D01*
X185049673Y-134949698D01*
X185228301Y-135128327D01*
X185461690Y-135225000D01*
X186677250Y-135225000D01*
X186836000Y-135066250D01*
X186836000Y-133817000D01*
X187090000Y-133817000D01*
X187090000Y-135066250D01*
X187248750Y-135225000D01*
X188464310Y-135225000D01*
X188697699Y-135128327D01*
X188876327Y-134949698D01*
X188973000Y-134716309D01*
X188973000Y-133975750D01*
X188872310Y-133875060D01*
X210206652Y-133875060D01*
X210512012Y-134614086D01*
X211076940Y-135180001D01*
X211815432Y-135486650D01*
X212615060Y-135487348D01*
X213354086Y-135181988D01*
X213920001Y-134617060D01*
X214226650Y-133878568D01*
X214227348Y-133078940D01*
X213921988Y-132339914D01*
X213357060Y-131773999D01*
X212618568Y-131467350D01*
X211818940Y-131466652D01*
X211079914Y-131772012D01*
X210513999Y-132336940D01*
X210207350Y-133075432D01*
X210206652Y-133875060D01*
X188872310Y-133875060D01*
X188814250Y-133817000D01*
X187090000Y-133817000D01*
X186836000Y-133817000D01*
X185111750Y-133817000D01*
X184953000Y-133975750D01*
X184366908Y-133975750D01*
X184625006Y-133718103D01*
X184847746Y-133181686D01*
X184848198Y-132663691D01*
X184953000Y-132663691D01*
X184953000Y-133404250D01*
X185111750Y-133563000D01*
X186836000Y-133563000D01*
X186836000Y-132313750D01*
X187090000Y-132313750D01*
X187090000Y-133563000D01*
X188814250Y-133563000D01*
X188973000Y-133404250D01*
X188973000Y-132663691D01*
X188876327Y-132430302D01*
X188697699Y-132251673D01*
X188464310Y-132155000D01*
X187248750Y-132155000D01*
X187090000Y-132313750D01*
X186836000Y-132313750D01*
X186677250Y-132155000D01*
X185461690Y-132155000D01*
X185228301Y-132251673D01*
X185049673Y-132430302D01*
X184953000Y-132663691D01*
X184848198Y-132663691D01*
X184848253Y-132600862D01*
X184626449Y-132064057D01*
X184216103Y-131652994D01*
X183679686Y-131430254D01*
X183098862Y-131429747D01*
X182562057Y-131651551D01*
X182150994Y-132061897D01*
X181962314Y-132516288D01*
X181947699Y-132501673D01*
X181714310Y-132405000D01*
X180498750Y-132405000D01*
X180340000Y-132563750D01*
X180086000Y-132563750D01*
X179927250Y-132405000D01*
X178711690Y-132405000D01*
X178478301Y-132501673D01*
X178299673Y-132680302D01*
X178203000Y-132913691D01*
X175733828Y-132913691D01*
X175724090Y-132898559D01*
X175511890Y-132753569D01*
X175260000Y-132702560D01*
X173736000Y-132702560D01*
X173500683Y-132746838D01*
X173284559Y-132885910D01*
X173228626Y-132967770D01*
X173184090Y-132898559D01*
X172971890Y-132753569D01*
X172720000Y-132702560D01*
X171196000Y-132702560D01*
X170960683Y-132746838D01*
X170744559Y-132885910D01*
X170599569Y-133098110D01*
X170548560Y-133350000D01*
X163207440Y-133350000D01*
X163163162Y-133114683D01*
X163024090Y-132898559D01*
X162811890Y-132753569D01*
X162560000Y-132702560D01*
X161036000Y-132702560D01*
X160800683Y-132746838D01*
X160584559Y-132885910D01*
X160528626Y-132967770D01*
X160484090Y-132898559D01*
X160271890Y-132753569D01*
X160020000Y-132702560D01*
X158496000Y-132702560D01*
X158260683Y-132746838D01*
X158044559Y-132885910D01*
X157899569Y-133098110D01*
X157848560Y-133350000D01*
X156061111Y-133350000D01*
X156061348Y-133078940D01*
X155755988Y-132339914D01*
X155191060Y-131773999D01*
X154452568Y-131467350D01*
X153652940Y-131466652D01*
X152913914Y-131772012D01*
X152347999Y-132336940D01*
X152041350Y-133075432D01*
X152040652Y-133875060D01*
X151299347Y-133875060D01*
X151205000Y-133292844D01*
X151205000Y-116205000D01*
X152663907Y-116205000D01*
X152776946Y-116773285D01*
X153098853Y-117255054D01*
X153140452Y-117282850D01*
X153092683Y-117291838D01*
X152876559Y-117430910D01*
X152731569Y-117643110D01*
X152680560Y-117895000D01*
X152680560Y-119595000D01*
X152724838Y-119830317D01*
X152863910Y-120046441D01*
X153076110Y-120191431D01*
X153328000Y-120242440D01*
X155028000Y-120242440D01*
X155263317Y-120198162D01*
X155479441Y-120059090D01*
X155624431Y-119846890D01*
X155675440Y-119595000D01*
X155675440Y-117895000D01*
X155631162Y-117659683D01*
X155492090Y-117443559D01*
X155279890Y-117298569D01*
X155212459Y-117284914D01*
X155257147Y-117255054D01*
X155579054Y-116773285D01*
X155692093Y-116205000D01*
X155622623Y-115855750D01*
X157861000Y-115855750D01*
X157861000Y-116458310D01*
X157957673Y-116691699D01*
X158136302Y-116870327D01*
X158369691Y-116967000D01*
X158972250Y-116967000D01*
X159131000Y-116808250D01*
X159131000Y-115697000D01*
X158019750Y-115697000D01*
X157861000Y-115855750D01*
X155622623Y-115855750D01*
X155579054Y-115636715D01*
X155257147Y-115154946D01*
X154775378Y-114833039D01*
X154207093Y-114720000D01*
X154148907Y-114720000D01*
X153580622Y-114833039D01*
X153098853Y-115154946D01*
X152776946Y-115636715D01*
X152663907Y-116205000D01*
X151205000Y-116205000D01*
X151205000Y-114681690D01*
X157861000Y-114681690D01*
X157861000Y-115284250D01*
X158019750Y-115443000D01*
X159131000Y-115443000D01*
X159131000Y-114331750D01*
X158972250Y-114173000D01*
X158369691Y-114173000D01*
X158136302Y-114269673D01*
X157957673Y-114448301D01*
X157861000Y-114681690D01*
X151205000Y-114681690D01*
X151205000Y-110888060D01*
X152040652Y-110888060D01*
X152346012Y-111627086D01*
X152910940Y-112193001D01*
X153649432Y-112499650D01*
X154449060Y-112500348D01*
X155188086Y-112194988D01*
X155754001Y-111630060D01*
X156060650Y-110891568D01*
X156061348Y-110091940D01*
X155815384Y-109496661D01*
X157606758Y-109496661D01*
X157818990Y-110010303D01*
X158211630Y-110403629D01*
X158419512Y-110489949D01*
X158213697Y-110574990D01*
X157820371Y-110967630D01*
X157607243Y-111480900D01*
X157606758Y-112036661D01*
X157818990Y-112550303D01*
X158211630Y-112943629D01*
X158724900Y-113156757D01*
X159280661Y-113157242D01*
X159313055Y-113143857D01*
X160246099Y-114076901D01*
X160492661Y-114241648D01*
X160684253Y-114279758D01*
X160584559Y-114343910D01*
X160531537Y-114421511D01*
X160379698Y-114269673D01*
X160146309Y-114173000D01*
X159543750Y-114173000D01*
X159385000Y-114331750D01*
X159385000Y-115443000D01*
X159405000Y-115443000D01*
X159405000Y-115697000D01*
X159385000Y-115697000D01*
X159385000Y-116808250D01*
X159543750Y-116967000D01*
X160146309Y-116967000D01*
X160379698Y-116870327D01*
X160530671Y-116719354D01*
X160571910Y-116783441D01*
X160784110Y-116928431D01*
X161036000Y-116979440D01*
X162560000Y-116979440D01*
X162795317Y-116935162D01*
X163011441Y-116796090D01*
X163156431Y-116583890D01*
X163207440Y-116332000D01*
X163207440Y-114808000D01*
X163163162Y-114572683D01*
X163024090Y-114356559D01*
X162940581Y-114299500D01*
X168273574Y-114299500D01*
X168204559Y-114343910D01*
X168059569Y-114556110D01*
X168008560Y-114808000D01*
X168008560Y-116332000D01*
X168052838Y-116567317D01*
X168191910Y-116783441D01*
X168404110Y-116928431D01*
X168656000Y-116979440D01*
X170180000Y-116979440D01*
X170277914Y-116961016D01*
X174035999Y-120719101D01*
X174282560Y-120883848D01*
X174573400Y-120941700D01*
X176352560Y-120941700D01*
X176352560Y-121507000D01*
X176396838Y-121742317D01*
X176535910Y-121958441D01*
X176748110Y-122103431D01*
X177000000Y-122154440D01*
X177118767Y-122154440D01*
X177262599Y-122369701D01*
X177752700Y-122859802D01*
X177752700Y-130640000D01*
X177810552Y-130930839D01*
X177975299Y-131177401D01*
X178190560Y-131321233D01*
X178190560Y-131540000D01*
X178234838Y-131775317D01*
X178373910Y-131991441D01*
X178586110Y-132136431D01*
X178838000Y-132187440D01*
X181588000Y-132187440D01*
X181823317Y-132143162D01*
X182039441Y-132004090D01*
X182184431Y-131791890D01*
X182235440Y-131540000D01*
X182235440Y-129740000D01*
X182226221Y-129691000D01*
X189647960Y-129691000D01*
X189647960Y-132691000D01*
X189692238Y-132926317D01*
X189831310Y-133142441D01*
X190043510Y-133287431D01*
X190295400Y-133338440D01*
X193295400Y-133338440D01*
X193530717Y-133294162D01*
X193746841Y-133155090D01*
X193891831Y-132942890D01*
X193942840Y-132691000D01*
X193942840Y-131613815D01*
X194740030Y-131613815D01*
X195064380Y-132398800D01*
X195664441Y-132999909D01*
X196448859Y-133325628D01*
X197298215Y-133326370D01*
X198083200Y-133002020D01*
X198684309Y-132401959D01*
X199010028Y-131617541D01*
X199010031Y-131613815D01*
X199820030Y-131613815D01*
X200144380Y-132398800D01*
X200744441Y-132999909D01*
X201528859Y-133325628D01*
X202378215Y-133326370D01*
X203163200Y-133002020D01*
X203764309Y-132401959D01*
X204090028Y-131617541D01*
X204090031Y-131613815D01*
X204900030Y-131613815D01*
X205224380Y-132398800D01*
X205824441Y-132999909D01*
X206608859Y-133325628D01*
X207458215Y-133326370D01*
X208243200Y-133002020D01*
X208844309Y-132401959D01*
X209170028Y-131617541D01*
X209170770Y-130768185D01*
X208846420Y-129983200D01*
X208246359Y-129382091D01*
X207461941Y-129056372D01*
X206612585Y-129055630D01*
X205827600Y-129379980D01*
X205226491Y-129980041D01*
X204900772Y-130764459D01*
X204900030Y-131613815D01*
X204090031Y-131613815D01*
X204090770Y-130768185D01*
X203766420Y-129983200D01*
X203166359Y-129382091D01*
X202381941Y-129056372D01*
X201532585Y-129055630D01*
X200747600Y-129379980D01*
X200146491Y-129980041D01*
X199820772Y-130764459D01*
X199820030Y-131613815D01*
X199010031Y-131613815D01*
X199010770Y-130768185D01*
X198686420Y-129983200D01*
X198086359Y-129382091D01*
X197301941Y-129056372D01*
X196452585Y-129055630D01*
X195667600Y-129379980D01*
X195066491Y-129980041D01*
X194740772Y-130764459D01*
X194740030Y-131613815D01*
X193942840Y-131613815D01*
X193942840Y-129691000D01*
X193898562Y-129455683D01*
X193759490Y-129239559D01*
X193547290Y-129094569D01*
X193295400Y-129043560D01*
X190295400Y-129043560D01*
X190060083Y-129087838D01*
X189843959Y-129226910D01*
X189698969Y-129439110D01*
X189647960Y-129691000D01*
X182226221Y-129691000D01*
X182191162Y-129504683D01*
X182052090Y-129288559D01*
X181839890Y-129143569D01*
X181588000Y-129092560D01*
X179272700Y-129092560D01*
X179272700Y-126337440D01*
X181588000Y-126337440D01*
X181823317Y-126293162D01*
X182039441Y-126154090D01*
X182184431Y-125941890D01*
X182235440Y-125690000D01*
X182235440Y-125672651D01*
X182477367Y-125672862D01*
X182821143Y-125530817D01*
X182854318Y-125497700D01*
X182934404Y-125497700D01*
X182562057Y-125651551D01*
X182150994Y-126061897D01*
X181928254Y-126598314D01*
X181927747Y-127179138D01*
X182149551Y-127715943D01*
X182559897Y-128127006D01*
X183096314Y-128349746D01*
X183677138Y-128350253D01*
X184213943Y-128128449D01*
X184625006Y-127718103D01*
X184838797Y-127203238D01*
X184940560Y-127271233D01*
X184940560Y-127490000D01*
X184984838Y-127725317D01*
X185123910Y-127941441D01*
X185336110Y-128086431D01*
X185588000Y-128137440D01*
X188338000Y-128137440D01*
X188573317Y-128093162D01*
X188789441Y-127954090D01*
X188934431Y-127741890D01*
X188985440Y-127490000D01*
X188985440Y-125690000D01*
X188941162Y-125454683D01*
X188802090Y-125238559D01*
X188589890Y-125093569D01*
X188338000Y-125042560D01*
X185588000Y-125042560D01*
X185352683Y-125086838D01*
X185136559Y-125225910D01*
X185070335Y-125322833D01*
X184911500Y-125163998D01*
X184911500Y-125108200D01*
X184902259Y-125061743D01*
X186414304Y-123549698D01*
X186655000Y-123598440D01*
X187355000Y-123598440D01*
X187590317Y-123554162D01*
X187806441Y-123415090D01*
X187951431Y-123202890D01*
X187980164Y-123061000D01*
X188761300Y-123061000D01*
X189052139Y-123003148D01*
X189298701Y-122838401D01*
X189640401Y-122496701D01*
X189784233Y-122281440D01*
X189903000Y-122281440D01*
X190138317Y-122237162D01*
X190354441Y-122098090D01*
X190499431Y-121885890D01*
X190550440Y-121634000D01*
X190550440Y-120634000D01*
X190506162Y-120398683D01*
X190367090Y-120182559D01*
X190329576Y-120156926D01*
X190765801Y-119720701D01*
X190930548Y-119474139D01*
X190988400Y-119183300D01*
X190988400Y-117464200D01*
X190957001Y-117306348D01*
X190930548Y-117173360D01*
X190765801Y-116926799D01*
X190580601Y-116741599D01*
X190334039Y-116576852D01*
X190043200Y-116519000D01*
X188235365Y-116519000D01*
X188241440Y-116489000D01*
X188241440Y-115789000D01*
X188197162Y-115553683D01*
X188058090Y-115337559D01*
X187845890Y-115192569D01*
X187832803Y-115189919D01*
X188045441Y-115053090D01*
X188190431Y-114840890D01*
X188241440Y-114589000D01*
X188241440Y-113889000D01*
X188197162Y-113653683D01*
X188167380Y-113607400D01*
X198556600Y-113607400D01*
X198847439Y-113549548D01*
X199094001Y-113384801D01*
X199334619Y-113144183D01*
X199364900Y-113156757D01*
X199920661Y-113157242D01*
X200434303Y-112945010D01*
X200827629Y-112552370D01*
X200913949Y-112344488D01*
X200998990Y-112550303D01*
X201391630Y-112943629D01*
X201904900Y-113156757D01*
X202460661Y-113157242D01*
X202974303Y-112945010D01*
X203367629Y-112552370D01*
X203453949Y-112344488D01*
X203538990Y-112550303D01*
X203931630Y-112943629D01*
X204444900Y-113156757D01*
X205000661Y-113157242D01*
X205514303Y-112945010D01*
X205719457Y-112740213D01*
X206463392Y-112740213D01*
X206532857Y-112982397D01*
X207056302Y-113169144D01*
X207611368Y-113141362D01*
X207995143Y-112982397D01*
X208064608Y-112740213D01*
X207264000Y-111939605D01*
X206463392Y-112740213D01*
X205719457Y-112740213D01*
X205907629Y-112552370D01*
X205987395Y-112360273D01*
X206041603Y-112491143D01*
X206283787Y-112560608D01*
X207084395Y-111760000D01*
X207443605Y-111760000D01*
X208244213Y-112560608D01*
X208486397Y-112491143D01*
X208673144Y-111967698D01*
X208645362Y-111412632D01*
X208486397Y-111028857D01*
X208244213Y-110959392D01*
X207443605Y-111760000D01*
X207084395Y-111760000D01*
X206283787Y-110959392D01*
X206041603Y-111028857D01*
X205991491Y-111169318D01*
X205909010Y-110969697D01*
X205516370Y-110576371D01*
X205308488Y-110490051D01*
X205514303Y-110405010D01*
X205907629Y-110012370D01*
X205993949Y-109804488D01*
X206078990Y-110010303D01*
X206471630Y-110403629D01*
X206663727Y-110483395D01*
X206532857Y-110537603D01*
X206463392Y-110779787D01*
X207264000Y-111580395D01*
X207956335Y-110888060D01*
X210206652Y-110888060D01*
X210512012Y-111627086D01*
X211076940Y-112193001D01*
X211815432Y-112499650D01*
X212615060Y-112500348D01*
X213354086Y-112194988D01*
X213920001Y-111630060D01*
X214226650Y-110891568D01*
X214227348Y-110091940D01*
X213921988Y-109352914D01*
X213357060Y-108786999D01*
X212618568Y-108480350D01*
X211818940Y-108479652D01*
X211079914Y-108785012D01*
X210513999Y-109349940D01*
X210207350Y-110088432D01*
X210206652Y-110888060D01*
X207956335Y-110888060D01*
X208064608Y-110779787D01*
X207995143Y-110537603D01*
X207854682Y-110487491D01*
X208054303Y-110405010D01*
X208447629Y-110012370D01*
X208660757Y-109499100D01*
X208661242Y-108943339D01*
X208449010Y-108429697D01*
X208056370Y-108036371D01*
X207543100Y-107823243D01*
X206987339Y-107822758D01*
X206473697Y-108034990D01*
X206080371Y-108427630D01*
X205994051Y-108635512D01*
X205909010Y-108429697D01*
X205516370Y-108036371D01*
X205003100Y-107823243D01*
X204447339Y-107822758D01*
X203933697Y-108034990D01*
X203540371Y-108427630D01*
X203454051Y-108635512D01*
X203369010Y-108429697D01*
X202976370Y-108036371D01*
X202463100Y-107823243D01*
X201907339Y-107822758D01*
X201393697Y-108034990D01*
X201000371Y-108427630D01*
X200920605Y-108619727D01*
X200866397Y-108488857D01*
X200624213Y-108419392D01*
X199823605Y-109220000D01*
X200624213Y-110020608D01*
X200866397Y-109951143D01*
X200916509Y-109810682D01*
X200998990Y-110010303D01*
X201391630Y-110403629D01*
X201599512Y-110489949D01*
X201393697Y-110574990D01*
X201000371Y-110967630D01*
X200914051Y-111175512D01*
X200829010Y-110969697D01*
X200436370Y-110576371D01*
X200244273Y-110496605D01*
X200375143Y-110442397D01*
X200444608Y-110200213D01*
X199644000Y-109399605D01*
X198843392Y-110200213D01*
X198912857Y-110442397D01*
X199053318Y-110492509D01*
X198853697Y-110574990D01*
X198460371Y-110967630D01*
X198374051Y-111175512D01*
X198289010Y-110969697D01*
X197896370Y-110576371D01*
X197688488Y-110490051D01*
X197894303Y-110405010D01*
X198287629Y-110012370D01*
X198367395Y-109820273D01*
X198421603Y-109951143D01*
X198663787Y-110020608D01*
X199464395Y-109220000D01*
X198663787Y-108419392D01*
X198421603Y-108488857D01*
X198371491Y-108629318D01*
X198289010Y-108429697D01*
X198099432Y-108239787D01*
X198843392Y-108239787D01*
X199644000Y-109040395D01*
X200444608Y-108239787D01*
X200375143Y-107997603D01*
X199851698Y-107810856D01*
X199296632Y-107838638D01*
X198912857Y-107997603D01*
X198843392Y-108239787D01*
X198099432Y-108239787D01*
X197896370Y-108036371D01*
X197383100Y-107823243D01*
X196827339Y-107822758D01*
X196313697Y-108034990D01*
X195920371Y-108427630D01*
X195840605Y-108619727D01*
X195786397Y-108488857D01*
X195544213Y-108419392D01*
X194743605Y-109220000D01*
X195544213Y-110020608D01*
X195786397Y-109951143D01*
X195836509Y-109810682D01*
X195918990Y-110010303D01*
X196311630Y-110403629D01*
X196519512Y-110489949D01*
X196313697Y-110574990D01*
X195920371Y-110967630D01*
X195834051Y-111175512D01*
X195749010Y-110969697D01*
X195356370Y-110576371D01*
X195164273Y-110496605D01*
X195295143Y-110442397D01*
X195364608Y-110200213D01*
X194564000Y-109399605D01*
X193763392Y-110200213D01*
X193832857Y-110442397D01*
X193973318Y-110492509D01*
X193773697Y-110574990D01*
X193380371Y-110967630D01*
X193294051Y-111175512D01*
X193209010Y-110969697D01*
X192816370Y-110576371D01*
X192608488Y-110490051D01*
X192814303Y-110405010D01*
X193207629Y-110012370D01*
X193287395Y-109820273D01*
X193341603Y-109951143D01*
X193583787Y-110020608D01*
X194384395Y-109220000D01*
X193583787Y-108419392D01*
X193341603Y-108488857D01*
X193291491Y-108629318D01*
X193209010Y-108429697D01*
X193019432Y-108239787D01*
X193763392Y-108239787D01*
X194564000Y-109040395D01*
X195364608Y-108239787D01*
X195295143Y-107997603D01*
X194771698Y-107810856D01*
X194216632Y-107838638D01*
X193832857Y-107997603D01*
X193763392Y-108239787D01*
X193019432Y-108239787D01*
X192816370Y-108036371D01*
X192303100Y-107823243D01*
X191747339Y-107822758D01*
X191233697Y-108034990D01*
X190840371Y-108427630D01*
X190754051Y-108635512D01*
X190669010Y-108429697D01*
X190276370Y-108036371D01*
X189763100Y-107823243D01*
X189207339Y-107822758D01*
X188693697Y-108034990D01*
X188300371Y-108427630D01*
X188214051Y-108635512D01*
X188129010Y-108429697D01*
X187736370Y-108036371D01*
X187223100Y-107823243D01*
X186667339Y-107822758D01*
X186153697Y-108034990D01*
X185760371Y-108427630D01*
X185674051Y-108635512D01*
X185589010Y-108429697D01*
X185196370Y-108036371D01*
X184683100Y-107823243D01*
X184127339Y-107822758D01*
X183613697Y-108034990D01*
X183220371Y-108427630D01*
X183140605Y-108619727D01*
X183086397Y-108488857D01*
X182844213Y-108419392D01*
X182043605Y-109220000D01*
X182844213Y-110020608D01*
X183086397Y-109951143D01*
X183136509Y-109810682D01*
X183218990Y-110010303D01*
X183611630Y-110403629D01*
X183819512Y-110489949D01*
X183613697Y-110574990D01*
X183220371Y-110967630D01*
X183134051Y-111175512D01*
X183049010Y-110969697D01*
X182656370Y-110576371D01*
X182464273Y-110496605D01*
X182595143Y-110442397D01*
X182664608Y-110200213D01*
X181864000Y-109399605D01*
X181063392Y-110200213D01*
X181132857Y-110442397D01*
X181273318Y-110492509D01*
X181073697Y-110574990D01*
X180680371Y-110967630D01*
X180594051Y-111175512D01*
X180509010Y-110969697D01*
X180116370Y-110576371D01*
X179908488Y-110490051D01*
X180114303Y-110405010D01*
X180507629Y-110012370D01*
X180587395Y-109820273D01*
X180641603Y-109951143D01*
X180883787Y-110020608D01*
X181684395Y-109220000D01*
X180883787Y-108419392D01*
X180641603Y-108488857D01*
X180591491Y-108629318D01*
X180509010Y-108429697D01*
X180319432Y-108239787D01*
X181063392Y-108239787D01*
X181864000Y-109040395D01*
X182664608Y-108239787D01*
X182595143Y-107997603D01*
X182071698Y-107810856D01*
X181516632Y-107838638D01*
X181132857Y-107997603D01*
X181063392Y-108239787D01*
X180319432Y-108239787D01*
X180116370Y-108036371D01*
X179603100Y-107823243D01*
X179047339Y-107822758D01*
X178533697Y-108034990D01*
X178140371Y-108427630D01*
X178054051Y-108635512D01*
X177969010Y-108429697D01*
X177576370Y-108036371D01*
X177063100Y-107823243D01*
X176507339Y-107822758D01*
X175993697Y-108034990D01*
X175600371Y-108427630D01*
X175520605Y-108619727D01*
X175466397Y-108488857D01*
X175224213Y-108419392D01*
X174423605Y-109220000D01*
X174437748Y-109234143D01*
X174258143Y-109413748D01*
X174244000Y-109399605D01*
X174229858Y-109413748D01*
X174050253Y-109234143D01*
X174064395Y-109220000D01*
X173263787Y-108419392D01*
X173021603Y-108488857D01*
X172971491Y-108629318D01*
X172889010Y-108429697D01*
X172699432Y-108239787D01*
X173443392Y-108239787D01*
X174244000Y-109040395D01*
X175044608Y-108239787D01*
X174975143Y-107997603D01*
X174451698Y-107810856D01*
X173896632Y-107838638D01*
X173512857Y-107997603D01*
X173443392Y-108239787D01*
X172699432Y-108239787D01*
X172496370Y-108036371D01*
X171983100Y-107823243D01*
X171427339Y-107822758D01*
X170913697Y-108034990D01*
X170520371Y-108427630D01*
X170434051Y-108635512D01*
X170349010Y-108429697D01*
X169956370Y-108036371D01*
X169443100Y-107823243D01*
X168887339Y-107822758D01*
X168373697Y-108034990D01*
X167980371Y-108427630D01*
X167894051Y-108635512D01*
X167809010Y-108429697D01*
X167416370Y-108036371D01*
X166903100Y-107823243D01*
X166347339Y-107822758D01*
X165833697Y-108034990D01*
X165440371Y-108427630D01*
X165360605Y-108619727D01*
X165306397Y-108488857D01*
X165064213Y-108419392D01*
X164263605Y-109220000D01*
X165064213Y-110020608D01*
X165306397Y-109951143D01*
X165356509Y-109810682D01*
X165438990Y-110010303D01*
X165831630Y-110403629D01*
X166039512Y-110489949D01*
X165833697Y-110574990D01*
X165440371Y-110967630D01*
X165354051Y-111175512D01*
X165269010Y-110969697D01*
X164876370Y-110576371D01*
X164684273Y-110496605D01*
X164815143Y-110442397D01*
X164884608Y-110200213D01*
X164084000Y-109399605D01*
X163283392Y-110200213D01*
X163352857Y-110442397D01*
X163493318Y-110492509D01*
X163293697Y-110574990D01*
X162900371Y-110967630D01*
X162814051Y-111175512D01*
X162729010Y-110969697D01*
X162336370Y-110576371D01*
X162128488Y-110490051D01*
X162334303Y-110405010D01*
X162727629Y-110012370D01*
X162807395Y-109820273D01*
X162861603Y-109951143D01*
X163103787Y-110020608D01*
X163904395Y-109220000D01*
X163103787Y-108419392D01*
X162861603Y-108488857D01*
X162811491Y-108629318D01*
X162729010Y-108429697D01*
X162539432Y-108239787D01*
X163283392Y-108239787D01*
X164084000Y-109040395D01*
X164884608Y-108239787D01*
X164815143Y-107997603D01*
X164291698Y-107810856D01*
X163736632Y-107838638D01*
X163352857Y-107997603D01*
X163283392Y-108239787D01*
X162539432Y-108239787D01*
X162336370Y-108036371D01*
X161823100Y-107823243D01*
X161267339Y-107822758D01*
X160753697Y-108034990D01*
X160360371Y-108427630D01*
X160274051Y-108635512D01*
X160189010Y-108429697D01*
X159796370Y-108036371D01*
X159283100Y-107823243D01*
X158727339Y-107822758D01*
X158213697Y-108034990D01*
X157820371Y-108427630D01*
X157607243Y-108940900D01*
X157606758Y-109496661D01*
X155815384Y-109496661D01*
X155755988Y-109352914D01*
X155191060Y-108786999D01*
X154452568Y-108480350D01*
X153652940Y-108479652D01*
X152913914Y-108785012D01*
X152347999Y-109349940D01*
X152041350Y-110088432D01*
X152040652Y-110888060D01*
X151205000Y-110888060D01*
X151205000Y-110834192D01*
X151339063Y-109629676D01*
X151874728Y-108657351D01*
X152741713Y-107964029D01*
X153846925Y-107644000D01*
X212192747Y-107644000D01*
X213338202Y-107888905D01*
X213338202Y-107888905D01*
G37*
X213338202Y-107888905D02*
X214248252Y-108515966D01*
X214849062Y-109443558D01*
X215063000Y-110605612D01*
X215063000Y-133201419D01*
X214904597Y-134393070D01*
X214349450Y-135351838D01*
X213469657Y-136025179D01*
X212352578Y-136323000D01*
X154006749Y-136323000D01*
X152873567Y-136055223D01*
X151976552Y-135408385D01*
X151395351Y-134467510D01*
X151299347Y-133875060D01*
X152040652Y-133875060D01*
X152346012Y-134614086D01*
X152910940Y-135180001D01*
X153649432Y-135486650D01*
X154449060Y-135487348D01*
X155188086Y-135181988D01*
X155754001Y-134617060D01*
X156060650Y-133878568D01*
X156061111Y-133350000D01*
X157848560Y-133350000D01*
X157848560Y-134874000D01*
X157892838Y-135109317D01*
X158031910Y-135325441D01*
X158244110Y-135470431D01*
X158496000Y-135521440D01*
X160020000Y-135521440D01*
X160255317Y-135477162D01*
X160471441Y-135338090D01*
X160527374Y-135256230D01*
X160571910Y-135325441D01*
X160784110Y-135470431D01*
X161036000Y-135521440D01*
X162560000Y-135521440D01*
X162795317Y-135477162D01*
X163011441Y-135338090D01*
X163156431Y-135125890D01*
X163207440Y-134874000D01*
X163207440Y-133350000D01*
X170548560Y-133350000D01*
X170548560Y-134874000D01*
X170592838Y-135109317D01*
X170731910Y-135325441D01*
X170944110Y-135470431D01*
X171196000Y-135521440D01*
X172720000Y-135521440D01*
X172955317Y-135477162D01*
X173171441Y-135338090D01*
X173227374Y-135256230D01*
X173271910Y-135325441D01*
X173484110Y-135470431D01*
X173736000Y-135521440D01*
X175260000Y-135521440D01*
X175495317Y-135477162D01*
X175711441Y-135338090D01*
X175856431Y-135125890D01*
X175907440Y-134874000D01*
X175907440Y-134225750D01*
X178203000Y-134225750D01*
X178203000Y-134966309D01*
X178299673Y-135199698D01*
X178478301Y-135378327D01*
X178711690Y-135475000D01*
X179927250Y-135475000D01*
X180086000Y-135316250D01*
X180086000Y-134067000D01*
X180340000Y-134067000D01*
X180340000Y-135316250D01*
X180498750Y-135475000D01*
X181714310Y-135475000D01*
X181947699Y-135378327D01*
X182126327Y-135199698D01*
X182223000Y-134966309D01*
X182223000Y-134225750D01*
X182064250Y-134067000D01*
X180340000Y-134067000D01*
X180086000Y-134067000D01*
X178361750Y-134067000D01*
X178203000Y-134225750D01*
X175907440Y-134225750D01*
X175907440Y-133350000D01*
X175863162Y-133114683D01*
X175733828Y-132913691D01*
X178203000Y-132913691D01*
X178203000Y-133654250D01*
X178361750Y-133813000D01*
X180086000Y-133813000D01*
X180086000Y-132563750D01*
X180340000Y-132563750D01*
X180340000Y-133813000D01*
X182064250Y-133813000D01*
X182155424Y-133721826D01*
X182559897Y-134127006D01*
X183096314Y-134349746D01*
X183677138Y-134350253D01*
X184213943Y-134128449D01*
X184366908Y-133975750D01*
X184953000Y-133975750D01*
X184953000Y-134716309D01*
X185049673Y-134949698D01*
X185228301Y-135128327D01*
X185461690Y-135225000D01*
X186677250Y-135225000D01*
X186836000Y-135066250D01*
X186836000Y-133817000D01*
X187090000Y-133817000D01*
X187090000Y-135066250D01*
X187248750Y-135225000D01*
X188464310Y-135225000D01*
X188697699Y-135128327D01*
X188876327Y-134949698D01*
X188973000Y-134716309D01*
X188973000Y-133975750D01*
X188872310Y-133875060D01*
X210206652Y-133875060D01*
X210512012Y-134614086D01*
X211076940Y-135180001D01*
X211815432Y-135486650D01*
X212615060Y-135487348D01*
X213354086Y-135181988D01*
X213920001Y-134617060D01*
X214226650Y-133878568D01*
X214227348Y-133078940D01*
X213921988Y-132339914D01*
X213357060Y-131773999D01*
X212618568Y-131467350D01*
X211818940Y-131466652D01*
X211079914Y-131772012D01*
X210513999Y-132336940D01*
X210207350Y-133075432D01*
X210206652Y-133875060D01*
X188872310Y-133875060D01*
X188814250Y-133817000D01*
X187090000Y-133817000D01*
X186836000Y-133817000D01*
X185111750Y-133817000D01*
X184953000Y-133975750D01*
X184366908Y-133975750D01*
X184625006Y-133718103D01*
X184847746Y-133181686D01*
X184848198Y-132663691D01*
X184953000Y-132663691D01*
X184953000Y-133404250D01*
X185111750Y-133563000D01*
X186836000Y-133563000D01*
X186836000Y-132313750D01*
X187090000Y-132313750D01*
X187090000Y-133563000D01*
X188814250Y-133563000D01*
X188973000Y-133404250D01*
X188973000Y-132663691D01*
X188876327Y-132430302D01*
X188697699Y-132251673D01*
X188464310Y-132155000D01*
X187248750Y-132155000D01*
X187090000Y-132313750D01*
X186836000Y-132313750D01*
X186677250Y-132155000D01*
X185461690Y-132155000D01*
X185228301Y-132251673D01*
X185049673Y-132430302D01*
X184953000Y-132663691D01*
X184848198Y-132663691D01*
X184848253Y-132600862D01*
X184626449Y-132064057D01*
X184216103Y-131652994D01*
X183679686Y-131430254D01*
X183098862Y-131429747D01*
X182562057Y-131651551D01*
X182150994Y-132061897D01*
X181962314Y-132516288D01*
X181947699Y-132501673D01*
X181714310Y-132405000D01*
X180498750Y-132405000D01*
X180340000Y-132563750D01*
X180086000Y-132563750D01*
X179927250Y-132405000D01*
X178711690Y-132405000D01*
X178478301Y-132501673D01*
X178299673Y-132680302D01*
X178203000Y-132913691D01*
X175733828Y-132913691D01*
X175724090Y-132898559D01*
X175511890Y-132753569D01*
X175260000Y-132702560D01*
X173736000Y-132702560D01*
X173500683Y-132746838D01*
X173284559Y-132885910D01*
X173228626Y-132967770D01*
X173184090Y-132898559D01*
X172971890Y-132753569D01*
X172720000Y-132702560D01*
X171196000Y-132702560D01*
X170960683Y-132746838D01*
X170744559Y-132885910D01*
X170599569Y-133098110D01*
X170548560Y-133350000D01*
X163207440Y-133350000D01*
X163163162Y-133114683D01*
X163024090Y-132898559D01*
X162811890Y-132753569D01*
X162560000Y-132702560D01*
X161036000Y-132702560D01*
X160800683Y-132746838D01*
X160584559Y-132885910D01*
X160528626Y-132967770D01*
X160484090Y-132898559D01*
X160271890Y-132753569D01*
X160020000Y-132702560D01*
X158496000Y-132702560D01*
X158260683Y-132746838D01*
X158044559Y-132885910D01*
X157899569Y-133098110D01*
X157848560Y-133350000D01*
X156061111Y-133350000D01*
X156061348Y-133078940D01*
X155755988Y-132339914D01*
X155191060Y-131773999D01*
X154452568Y-131467350D01*
X153652940Y-131466652D01*
X152913914Y-131772012D01*
X152347999Y-132336940D01*
X152041350Y-133075432D01*
X152040652Y-133875060D01*
X151299347Y-133875060D01*
X151205000Y-133292844D01*
X151205000Y-116205000D01*
X152663907Y-116205000D01*
X152776946Y-116773285D01*
X153098853Y-117255054D01*
X153140452Y-117282850D01*
X153092683Y-117291838D01*
X152876559Y-117430910D01*
X152731569Y-117643110D01*
X152680560Y-117895000D01*
X152680560Y-119595000D01*
X152724838Y-119830317D01*
X152863910Y-120046441D01*
X153076110Y-120191431D01*
X153328000Y-120242440D01*
X155028000Y-120242440D01*
X155263317Y-120198162D01*
X155479441Y-120059090D01*
X155624431Y-119846890D01*
X155675440Y-119595000D01*
X155675440Y-117895000D01*
X155631162Y-117659683D01*
X155492090Y-117443559D01*
X155279890Y-117298569D01*
X155212459Y-117284914D01*
X155257147Y-117255054D01*
X155579054Y-116773285D01*
X155692093Y-116205000D01*
X155622623Y-115855750D01*
X157861000Y-115855750D01*
X157861000Y-116458310D01*
X157957673Y-116691699D01*
X158136302Y-116870327D01*
X158369691Y-116967000D01*
X158972250Y-116967000D01*
X159131000Y-116808250D01*
X159131000Y-115697000D01*
X158019750Y-115697000D01*
X157861000Y-115855750D01*
X155622623Y-115855750D01*
X155579054Y-115636715D01*
X155257147Y-115154946D01*
X154775378Y-114833039D01*
X154207093Y-114720000D01*
X154148907Y-114720000D01*
X153580622Y-114833039D01*
X153098853Y-115154946D01*
X152776946Y-115636715D01*
X152663907Y-116205000D01*
X151205000Y-116205000D01*
X151205000Y-114681690D01*
X157861000Y-114681690D01*
X157861000Y-115284250D01*
X158019750Y-115443000D01*
X159131000Y-115443000D01*
X159131000Y-114331750D01*
X158972250Y-114173000D01*
X158369691Y-114173000D01*
X158136302Y-114269673D01*
X157957673Y-114448301D01*
X157861000Y-114681690D01*
X151205000Y-114681690D01*
X151205000Y-110888060D01*
X152040652Y-110888060D01*
X152346012Y-111627086D01*
X152910940Y-112193001D01*
X153649432Y-112499650D01*
X154449060Y-112500348D01*
X155188086Y-112194988D01*
X155754001Y-111630060D01*
X156060650Y-110891568D01*
X156061348Y-110091940D01*
X155815384Y-109496661D01*
X157606758Y-109496661D01*
X157818990Y-110010303D01*
X158211630Y-110403629D01*
X158419512Y-110489949D01*
X158213697Y-110574990D01*
X157820371Y-110967630D01*
X157607243Y-111480900D01*
X157606758Y-112036661D01*
X157818990Y-112550303D01*
X158211630Y-112943629D01*
X158724900Y-113156757D01*
X159280661Y-113157242D01*
X159313055Y-113143857D01*
X160246099Y-114076901D01*
X160492661Y-114241648D01*
X160684253Y-114279758D01*
X160584559Y-114343910D01*
X160531537Y-114421511D01*
X160379698Y-114269673D01*
X160146309Y-114173000D01*
X159543750Y-114173000D01*
X159385000Y-114331750D01*
X159385000Y-115443000D01*
X159405000Y-115443000D01*
X159405000Y-115697000D01*
X159385000Y-115697000D01*
X159385000Y-116808250D01*
X159543750Y-116967000D01*
X160146309Y-116967000D01*
X160379698Y-116870327D01*
X160530671Y-116719354D01*
X160571910Y-116783441D01*
X160784110Y-116928431D01*
X161036000Y-116979440D01*
X162560000Y-116979440D01*
X162795317Y-116935162D01*
X163011441Y-116796090D01*
X163156431Y-116583890D01*
X163207440Y-116332000D01*
X163207440Y-114808000D01*
X163163162Y-114572683D01*
X163024090Y-114356559D01*
X162940581Y-114299500D01*
X168273574Y-114299500D01*
X168204559Y-114343910D01*
X168059569Y-114556110D01*
X168008560Y-114808000D01*
X168008560Y-116332000D01*
X168052838Y-116567317D01*
X168191910Y-116783441D01*
X168404110Y-116928431D01*
X168656000Y-116979440D01*
X170180000Y-116979440D01*
X170277914Y-116961016D01*
X174035999Y-120719101D01*
X174282560Y-120883848D01*
X174573400Y-120941700D01*
X176352560Y-120941700D01*
X176352560Y-121507000D01*
X176396838Y-121742317D01*
X176535910Y-121958441D01*
X176748110Y-122103431D01*
X177000000Y-122154440D01*
X177118767Y-122154440D01*
X177262599Y-122369701D01*
X177752700Y-122859802D01*
X177752700Y-130640000D01*
X177810552Y-130930839D01*
X177975299Y-131177401D01*
X178190560Y-131321233D01*
X178190560Y-131540000D01*
X178234838Y-131775317D01*
X178373910Y-131991441D01*
X178586110Y-132136431D01*
X178838000Y-132187440D01*
X181588000Y-132187440D01*
X181823317Y-132143162D01*
X182039441Y-132004090D01*
X182184431Y-131791890D01*
X182235440Y-131540000D01*
X182235440Y-129740000D01*
X182226221Y-129691000D01*
X189647960Y-129691000D01*
X189647960Y-132691000D01*
X189692238Y-132926317D01*
X189831310Y-133142441D01*
X190043510Y-133287431D01*
X190295400Y-133338440D01*
X193295400Y-133338440D01*
X193530717Y-133294162D01*
X193746841Y-133155090D01*
X193891831Y-132942890D01*
X193942840Y-132691000D01*
X193942840Y-131613815D01*
X194740030Y-131613815D01*
X195064380Y-132398800D01*
X195664441Y-132999909D01*
X196448859Y-133325628D01*
X197298215Y-133326370D01*
X198083200Y-133002020D01*
X198684309Y-132401959D01*
X199010028Y-131617541D01*
X199010031Y-131613815D01*
X199820030Y-131613815D01*
X200144380Y-132398800D01*
X200744441Y-132999909D01*
X201528859Y-133325628D01*
X202378215Y-133326370D01*
X203163200Y-133002020D01*
X203764309Y-132401959D01*
X204090028Y-131617541D01*
X204090031Y-131613815D01*
X204900030Y-131613815D01*
X205224380Y-132398800D01*
X205824441Y-132999909D01*
X206608859Y-133325628D01*
X207458215Y-133326370D01*
X208243200Y-133002020D01*
X208844309Y-132401959D01*
X209170028Y-131617541D01*
X209170770Y-130768185D01*
X208846420Y-129983200D01*
X208246359Y-129382091D01*
X207461941Y-129056372D01*
X206612585Y-129055630D01*
X205827600Y-129379980D01*
X205226491Y-129980041D01*
X204900772Y-130764459D01*
X204900030Y-131613815D01*
X204090031Y-131613815D01*
X204090770Y-130768185D01*
X203766420Y-129983200D01*
X203166359Y-129382091D01*
X202381941Y-129056372D01*
X201532585Y-129055630D01*
X200747600Y-129379980D01*
X200146491Y-129980041D01*
X199820772Y-130764459D01*
X199820030Y-131613815D01*
X199010031Y-131613815D01*
X199010770Y-130768185D01*
X198686420Y-129983200D01*
X198086359Y-129382091D01*
X197301941Y-129056372D01*
X196452585Y-129055630D01*
X195667600Y-129379980D01*
X195066491Y-129980041D01*
X194740772Y-130764459D01*
X194740030Y-131613815D01*
X193942840Y-131613815D01*
X193942840Y-129691000D01*
X193898562Y-129455683D01*
X193759490Y-129239559D01*
X193547290Y-129094569D01*
X193295400Y-129043560D01*
X190295400Y-129043560D01*
X190060083Y-129087838D01*
X189843959Y-129226910D01*
X189698969Y-129439110D01*
X189647960Y-129691000D01*
X182226221Y-129691000D01*
X182191162Y-129504683D01*
X182052090Y-129288559D01*
X181839890Y-129143569D01*
X181588000Y-129092560D01*
X179272700Y-129092560D01*
X179272700Y-126337440D01*
X181588000Y-126337440D01*
X181823317Y-126293162D01*
X182039441Y-126154090D01*
X182184431Y-125941890D01*
X182235440Y-125690000D01*
X182235440Y-125672651D01*
X182477367Y-125672862D01*
X182821143Y-125530817D01*
X182854318Y-125497700D01*
X182934404Y-125497700D01*
X182562057Y-125651551D01*
X182150994Y-126061897D01*
X181928254Y-126598314D01*
X181927747Y-127179138D01*
X182149551Y-127715943D01*
X182559897Y-128127006D01*
X183096314Y-128349746D01*
X183677138Y-128350253D01*
X184213943Y-128128449D01*
X184625006Y-127718103D01*
X184838797Y-127203238D01*
X184940560Y-127271233D01*
X184940560Y-127490000D01*
X184984838Y-127725317D01*
X185123910Y-127941441D01*
X185336110Y-128086431D01*
X185588000Y-128137440D01*
X188338000Y-128137440D01*
X188573317Y-128093162D01*
X188789441Y-127954090D01*
X188934431Y-127741890D01*
X188985440Y-127490000D01*
X188985440Y-125690000D01*
X188941162Y-125454683D01*
X188802090Y-125238559D01*
X188589890Y-125093569D01*
X188338000Y-125042560D01*
X185588000Y-125042560D01*
X185352683Y-125086838D01*
X185136559Y-125225910D01*
X185070335Y-125322833D01*
X184911500Y-125163998D01*
X184911500Y-125108200D01*
X184902259Y-125061743D01*
X186414304Y-123549698D01*
X186655000Y-123598440D01*
X187355000Y-123598440D01*
X187590317Y-123554162D01*
X187806441Y-123415090D01*
X187951431Y-123202890D01*
X187980164Y-123061000D01*
X188761300Y-123061000D01*
X189052139Y-123003148D01*
X189298701Y-122838401D01*
X189640401Y-122496701D01*
X189784233Y-122281440D01*
X189903000Y-122281440D01*
X190138317Y-122237162D01*
X190354441Y-122098090D01*
X190499431Y-121885890D01*
X190550440Y-121634000D01*
X190550440Y-120634000D01*
X190506162Y-120398683D01*
X190367090Y-120182559D01*
X190329576Y-120156926D01*
X190765801Y-119720701D01*
X190930548Y-119474139D01*
X190988400Y-119183300D01*
X190988400Y-117464200D01*
X190957001Y-117306348D01*
X190930548Y-117173360D01*
X190765801Y-116926799D01*
X190580601Y-116741599D01*
X190334039Y-116576852D01*
X190043200Y-116519000D01*
X188235365Y-116519000D01*
X188241440Y-116489000D01*
X188241440Y-115789000D01*
X188197162Y-115553683D01*
X188058090Y-115337559D01*
X187845890Y-115192569D01*
X187832803Y-115189919D01*
X188045441Y-115053090D01*
X188190431Y-114840890D01*
X188241440Y-114589000D01*
X188241440Y-113889000D01*
X188197162Y-113653683D01*
X188167380Y-113607400D01*
X198556600Y-113607400D01*
X198847439Y-113549548D01*
X199094001Y-113384801D01*
X199334619Y-113144183D01*
X199364900Y-113156757D01*
X199920661Y-113157242D01*
X200434303Y-112945010D01*
X200827629Y-112552370D01*
X200913949Y-112344488D01*
X200998990Y-112550303D01*
X201391630Y-112943629D01*
X201904900Y-113156757D01*
X202460661Y-113157242D01*
X202974303Y-112945010D01*
X203367629Y-112552370D01*
X203453949Y-112344488D01*
X203538990Y-112550303D01*
X203931630Y-112943629D01*
X204444900Y-113156757D01*
X205000661Y-113157242D01*
X205514303Y-112945010D01*
X205719457Y-112740213D01*
X206463392Y-112740213D01*
X206532857Y-112982397D01*
X207056302Y-113169144D01*
X207611368Y-113141362D01*
X207995143Y-112982397D01*
X208064608Y-112740213D01*
X207264000Y-111939605D01*
X206463392Y-112740213D01*
X205719457Y-112740213D01*
X205907629Y-112552370D01*
X205987395Y-112360273D01*
X206041603Y-112491143D01*
X206283787Y-112560608D01*
X207084395Y-111760000D01*
X207443605Y-111760000D01*
X208244213Y-112560608D01*
X208486397Y-112491143D01*
X208673144Y-111967698D01*
X208645362Y-111412632D01*
X208486397Y-111028857D01*
X208244213Y-110959392D01*
X207443605Y-111760000D01*
X207084395Y-111760000D01*
X206283787Y-110959392D01*
X206041603Y-111028857D01*
X205991491Y-111169318D01*
X205909010Y-110969697D01*
X205516370Y-110576371D01*
X205308488Y-110490051D01*
X205514303Y-110405010D01*
X205907629Y-110012370D01*
X205993949Y-109804488D01*
X206078990Y-110010303D01*
X206471630Y-110403629D01*
X206663727Y-110483395D01*
X206532857Y-110537603D01*
X206463392Y-110779787D01*
X207264000Y-111580395D01*
X207956335Y-110888060D01*
X210206652Y-110888060D01*
X210512012Y-111627086D01*
X211076940Y-112193001D01*
X211815432Y-112499650D01*
X212615060Y-112500348D01*
X213354086Y-112194988D01*
X213920001Y-111630060D01*
X214226650Y-110891568D01*
X214227348Y-110091940D01*
X213921988Y-109352914D01*
X213357060Y-108786999D01*
X212618568Y-108480350D01*
X211818940Y-108479652D01*
X211079914Y-108785012D01*
X210513999Y-109349940D01*
X210207350Y-110088432D01*
X210206652Y-110888060D01*
X207956335Y-110888060D01*
X208064608Y-110779787D01*
X207995143Y-110537603D01*
X207854682Y-110487491D01*
X208054303Y-110405010D01*
X208447629Y-110012370D01*
X208660757Y-109499100D01*
X208661242Y-108943339D01*
X208449010Y-108429697D01*
X208056370Y-108036371D01*
X207543100Y-107823243D01*
X206987339Y-107822758D01*
X206473697Y-108034990D01*
X206080371Y-108427630D01*
X205994051Y-108635512D01*
X205909010Y-108429697D01*
X205516370Y-108036371D01*
X205003100Y-107823243D01*
X204447339Y-107822758D01*
X203933697Y-108034990D01*
X203540371Y-108427630D01*
X203454051Y-108635512D01*
X203369010Y-108429697D01*
X202976370Y-108036371D01*
X202463100Y-107823243D01*
X201907339Y-107822758D01*
X201393697Y-108034990D01*
X201000371Y-108427630D01*
X200920605Y-108619727D01*
X200866397Y-108488857D01*
X200624213Y-108419392D01*
X199823605Y-109220000D01*
X200624213Y-110020608D01*
X200866397Y-109951143D01*
X200916509Y-109810682D01*
X200998990Y-110010303D01*
X201391630Y-110403629D01*
X201599512Y-110489949D01*
X201393697Y-110574990D01*
X201000371Y-110967630D01*
X200914051Y-111175512D01*
X200829010Y-110969697D01*
X200436370Y-110576371D01*
X200244273Y-110496605D01*
X200375143Y-110442397D01*
X200444608Y-110200213D01*
X199644000Y-109399605D01*
X198843392Y-110200213D01*
X198912857Y-110442397D01*
X199053318Y-110492509D01*
X198853697Y-110574990D01*
X198460371Y-110967630D01*
X198374051Y-111175512D01*
X198289010Y-110969697D01*
X197896370Y-110576371D01*
X197688488Y-110490051D01*
X197894303Y-110405010D01*
X198287629Y-110012370D01*
X198367395Y-109820273D01*
X198421603Y-109951143D01*
X198663787Y-110020608D01*
X199464395Y-109220000D01*
X198663787Y-108419392D01*
X198421603Y-108488857D01*
X198371491Y-108629318D01*
X198289010Y-108429697D01*
X198099432Y-108239787D01*
X198843392Y-108239787D01*
X199644000Y-109040395D01*
X200444608Y-108239787D01*
X200375143Y-107997603D01*
X199851698Y-107810856D01*
X199296632Y-107838638D01*
X198912857Y-107997603D01*
X198843392Y-108239787D01*
X198099432Y-108239787D01*
X197896370Y-108036371D01*
X197383100Y-107823243D01*
X196827339Y-107822758D01*
X196313697Y-108034990D01*
X195920371Y-108427630D01*
X195840605Y-108619727D01*
X195786397Y-108488857D01*
X195544213Y-108419392D01*
X194743605Y-109220000D01*
X195544213Y-110020608D01*
X195786397Y-109951143D01*
X195836509Y-109810682D01*
X195918990Y-110010303D01*
X196311630Y-110403629D01*
X196519512Y-110489949D01*
X196313697Y-110574990D01*
X195920371Y-110967630D01*
X195834051Y-111175512D01*
X195749010Y-110969697D01*
X195356370Y-110576371D01*
X195164273Y-110496605D01*
X195295143Y-110442397D01*
X195364608Y-110200213D01*
X194564000Y-109399605D01*
X193763392Y-110200213D01*
X193832857Y-110442397D01*
X193973318Y-110492509D01*
X193773697Y-110574990D01*
X193380371Y-110967630D01*
X193294051Y-111175512D01*
X193209010Y-110969697D01*
X192816370Y-110576371D01*
X192608488Y-110490051D01*
X192814303Y-110405010D01*
X193207629Y-110012370D01*
X193287395Y-109820273D01*
X193341603Y-109951143D01*
X193583787Y-110020608D01*
X194384395Y-109220000D01*
X193583787Y-108419392D01*
X193341603Y-108488857D01*
X193291491Y-108629318D01*
X193209010Y-108429697D01*
X193019432Y-108239787D01*
X193763392Y-108239787D01*
X194564000Y-109040395D01*
X195364608Y-108239787D01*
X195295143Y-107997603D01*
X194771698Y-107810856D01*
X194216632Y-107838638D01*
X193832857Y-107997603D01*
X193763392Y-108239787D01*
X193019432Y-108239787D01*
X192816370Y-108036371D01*
X192303100Y-107823243D01*
X191747339Y-107822758D01*
X191233697Y-108034990D01*
X190840371Y-108427630D01*
X190754051Y-108635512D01*
X190669010Y-108429697D01*
X190276370Y-108036371D01*
X189763100Y-107823243D01*
X189207339Y-107822758D01*
X188693697Y-108034990D01*
X188300371Y-108427630D01*
X188214051Y-108635512D01*
X188129010Y-108429697D01*
X187736370Y-108036371D01*
X187223100Y-107823243D01*
X186667339Y-107822758D01*
X186153697Y-108034990D01*
X185760371Y-108427630D01*
X185674051Y-108635512D01*
X185589010Y-108429697D01*
X185196370Y-108036371D01*
X184683100Y-107823243D01*
X184127339Y-107822758D01*
X183613697Y-108034990D01*
X183220371Y-108427630D01*
X183140605Y-108619727D01*
X183086397Y-108488857D01*
X182844213Y-108419392D01*
X182043605Y-109220000D01*
X182844213Y-110020608D01*
X183086397Y-109951143D01*
X183136509Y-109810682D01*
X183218990Y-110010303D01*
X183611630Y-110403629D01*
X183819512Y-110489949D01*
X183613697Y-110574990D01*
X183220371Y-110967630D01*
X183134051Y-111175512D01*
X183049010Y-110969697D01*
X182656370Y-110576371D01*
X182464273Y-110496605D01*
X182595143Y-110442397D01*
X182664608Y-110200213D01*
X181864000Y-109399605D01*
X181063392Y-110200213D01*
X181132857Y-110442397D01*
X181273318Y-110492509D01*
X181073697Y-110574990D01*
X180680371Y-110967630D01*
X180594051Y-111175512D01*
X180509010Y-110969697D01*
X180116370Y-110576371D01*
X179908488Y-110490051D01*
X180114303Y-110405010D01*
X180507629Y-110012370D01*
X180587395Y-109820273D01*
X180641603Y-109951143D01*
X180883787Y-110020608D01*
X181684395Y-109220000D01*
X180883787Y-108419392D01*
X180641603Y-108488857D01*
X180591491Y-108629318D01*
X180509010Y-108429697D01*
X180319432Y-108239787D01*
X181063392Y-108239787D01*
X181864000Y-109040395D01*
X182664608Y-108239787D01*
X182595143Y-107997603D01*
X182071698Y-107810856D01*
X181516632Y-107838638D01*
X181132857Y-107997603D01*
X181063392Y-108239787D01*
X180319432Y-108239787D01*
X180116370Y-108036371D01*
X179603100Y-107823243D01*
X179047339Y-107822758D01*
X178533697Y-108034990D01*
X178140371Y-108427630D01*
X178054051Y-108635512D01*
X177969010Y-108429697D01*
X177576370Y-108036371D01*
X177063100Y-107823243D01*
X176507339Y-107822758D01*
X175993697Y-108034990D01*
X175600371Y-108427630D01*
X175520605Y-108619727D01*
X175466397Y-108488857D01*
X175224213Y-108419392D01*
X174423605Y-109220000D01*
X174437748Y-109234143D01*
X174258143Y-109413748D01*
X174244000Y-109399605D01*
X174229858Y-109413748D01*
X174050253Y-109234143D01*
X174064395Y-109220000D01*
X173263787Y-108419392D01*
X173021603Y-108488857D01*
X172971491Y-108629318D01*
X172889010Y-108429697D01*
X172699432Y-108239787D01*
X173443392Y-108239787D01*
X174244000Y-109040395D01*
X175044608Y-108239787D01*
X174975143Y-107997603D01*
X174451698Y-107810856D01*
X173896632Y-107838638D01*
X173512857Y-107997603D01*
X173443392Y-108239787D01*
X172699432Y-108239787D01*
X172496370Y-108036371D01*
X171983100Y-107823243D01*
X171427339Y-107822758D01*
X170913697Y-108034990D01*
X170520371Y-108427630D01*
X170434051Y-108635512D01*
X170349010Y-108429697D01*
X169956370Y-108036371D01*
X169443100Y-107823243D01*
X168887339Y-107822758D01*
X168373697Y-108034990D01*
X167980371Y-108427630D01*
X167894051Y-108635512D01*
X167809010Y-108429697D01*
X167416370Y-108036371D01*
X166903100Y-107823243D01*
X166347339Y-107822758D01*
X165833697Y-108034990D01*
X165440371Y-108427630D01*
X165360605Y-108619727D01*
X165306397Y-108488857D01*
X165064213Y-108419392D01*
X164263605Y-109220000D01*
X165064213Y-110020608D01*
X165306397Y-109951143D01*
X165356509Y-109810682D01*
X165438990Y-110010303D01*
X165831630Y-110403629D01*
X166039512Y-110489949D01*
X165833697Y-110574990D01*
X165440371Y-110967630D01*
X165354051Y-111175512D01*
X165269010Y-110969697D01*
X164876370Y-110576371D01*
X164684273Y-110496605D01*
X164815143Y-110442397D01*
X164884608Y-110200213D01*
X164084000Y-109399605D01*
X163283392Y-110200213D01*
X163352857Y-110442397D01*
X163493318Y-110492509D01*
X163293697Y-110574990D01*
X162900371Y-110967630D01*
X162814051Y-111175512D01*
X162729010Y-110969697D01*
X162336370Y-110576371D01*
X162128488Y-110490051D01*
X162334303Y-110405010D01*
X162727629Y-110012370D01*
X162807395Y-109820273D01*
X162861603Y-109951143D01*
X163103787Y-110020608D01*
X163904395Y-109220000D01*
X163103787Y-108419392D01*
X162861603Y-108488857D01*
X162811491Y-108629318D01*
X162729010Y-108429697D01*
X162539432Y-108239787D01*
X163283392Y-108239787D01*
X164084000Y-109040395D01*
X164884608Y-108239787D01*
X164815143Y-107997603D01*
X164291698Y-107810856D01*
X163736632Y-107838638D01*
X163352857Y-107997603D01*
X163283392Y-108239787D01*
X162539432Y-108239787D01*
X162336370Y-108036371D01*
X161823100Y-107823243D01*
X161267339Y-107822758D01*
X160753697Y-108034990D01*
X160360371Y-108427630D01*
X160274051Y-108635512D01*
X160189010Y-108429697D01*
X159796370Y-108036371D01*
X159283100Y-107823243D01*
X158727339Y-107822758D01*
X158213697Y-108034990D01*
X157820371Y-108427630D01*
X157607243Y-108940900D01*
X157606758Y-109496661D01*
X155815384Y-109496661D01*
X155755988Y-109352914D01*
X155191060Y-108786999D01*
X154452568Y-108480350D01*
X153652940Y-108479652D01*
X152913914Y-108785012D01*
X152347999Y-109349940D01*
X152041350Y-110088432D01*
X152040652Y-110888060D01*
X151205000Y-110888060D01*
X151205000Y-110834192D01*
X151339063Y-109629676D01*
X151874728Y-108657351D01*
X152741713Y-107964029D01*
X153846925Y-107644000D01*
X212192747Y-107644000D01*
X213338202Y-107888905D01*
G36*
X183920000Y-117485690D02*
X183920000Y-117951250D01*
X184078750Y-118110000D01*
X184928000Y-118110000D01*
X184928000Y-118090000D01*
X185182000Y-118090000D01*
X185182000Y-118110000D01*
X185202000Y-118110000D01*
X185202000Y-118364000D01*
X185182000Y-118364000D01*
X185182000Y-119338250D01*
X185232000Y-119388250D01*
X185232000Y-120142000D01*
X185252000Y-120142000D01*
X185252000Y-120396000D01*
X185232000Y-120396000D01*
X185232000Y-122174000D01*
X185252000Y-122174000D01*
X185252000Y-122428000D01*
X185232000Y-122428000D01*
X185232000Y-122448000D01*
X184978000Y-122448000D01*
X184978000Y-122428000D01*
X184278750Y-122428000D01*
X184120000Y-122586750D01*
X184120000Y-123077310D01*
X184216673Y-123310699D01*
X184360186Y-123454212D01*
X183827457Y-123986941D01*
X183781000Y-123977700D01*
X182854663Y-123977700D01*
X182822527Y-123945508D01*
X182478999Y-123802862D01*
X182219001Y-123802636D01*
X182191162Y-123654683D01*
X182052090Y-123438559D01*
X181925002Y-123351724D01*
X181925002Y-123300252D01*
X182083750Y-123459000D01*
X182274309Y-123459000D01*
X182507698Y-123362327D01*
X182686327Y-123183699D01*
X182783000Y-122950310D01*
X182783000Y-122459750D01*
X182624250Y-122301000D01*
X181925000Y-122301000D01*
X181925000Y-122321000D01*
X181671000Y-122321000D01*
X181671000Y-122301000D01*
X181651000Y-122301000D01*
X181651000Y-122047000D01*
X181671000Y-122047000D01*
X181671000Y-120269000D01*
X181925000Y-120269000D01*
X181925000Y-122047000D01*
X182624250Y-122047000D01*
X182783000Y-121888250D01*
X182783000Y-121397690D01*
X182686327Y-121164301D01*
X182680026Y-121158000D01*
X182686327Y-121151699D01*
X182783000Y-120918310D01*
X182783000Y-120554750D01*
X184120000Y-120554750D01*
X184120000Y-121045310D01*
X184216673Y-121278699D01*
X184222974Y-121285000D01*
X184216673Y-121291301D01*
X184120000Y-121524690D01*
X184120000Y-122015250D01*
X184278750Y-122174000D01*
X184978000Y-122174000D01*
X184978000Y-120396000D01*
X184278750Y-120396000D01*
X184120000Y-120554750D01*
X182783000Y-120554750D01*
X182783000Y-120427750D01*
X182624250Y-120269000D01*
X181925000Y-120269000D01*
X181671000Y-120269000D01*
X181651000Y-120269000D01*
X181651000Y-120015000D01*
X181671000Y-120015000D01*
X181671000Y-119261250D01*
X181721000Y-119211250D01*
X181721000Y-119015750D01*
X181925000Y-119015750D01*
X181925000Y-120015000D01*
X182624250Y-120015000D01*
X182783000Y-119856250D01*
X182783000Y-119365690D01*
X182733892Y-119247133D01*
X182886327Y-119094699D01*
X182983000Y-118861310D01*
X182983000Y-118522750D01*
X183920000Y-118522750D01*
X183920000Y-118988310D01*
X184016673Y-119221699D01*
X184169108Y-119374133D01*
X184120000Y-119492690D01*
X184120000Y-119983250D01*
X184278750Y-120142000D01*
X184978000Y-120142000D01*
X184978000Y-119142750D01*
X184928000Y-119092750D01*
X184928000Y-118364000D01*
X184078750Y-118364000D01*
X183920000Y-118522750D01*
X182983000Y-118522750D01*
X182983000Y-118395750D01*
X182824250Y-118237000D01*
X181975000Y-118237000D01*
X181975000Y-118965750D01*
X181925000Y-119015750D01*
X181721000Y-119015750D01*
X181721000Y-118237000D01*
X181701000Y-118237000D01*
X181701000Y-117983000D01*
X181721000Y-117983000D01*
X181721000Y-117963000D01*
X181975000Y-117963000D01*
X181975000Y-117983000D01*
X182824250Y-117983000D01*
X182983000Y-117824250D01*
X182983000Y-117476800D01*
X183923682Y-117476800D01*
X183920000Y-117485690D01*
X183920000Y-117485690D01*
G37*
X183920000Y-117485690D02*
X183920000Y-117951250D01*
X184078750Y-118110000D01*
X184928000Y-118110000D01*
X184928000Y-118090000D01*
X185182000Y-118090000D01*
X185182000Y-118110000D01*
X185202000Y-118110000D01*
X185202000Y-118364000D01*
X185182000Y-118364000D01*
X185182000Y-119338250D01*
X185232000Y-119388250D01*
X185232000Y-120142000D01*
X185252000Y-120142000D01*
X185252000Y-120396000D01*
X185232000Y-120396000D01*
X185232000Y-122174000D01*
X185252000Y-122174000D01*
X185252000Y-122428000D01*
X185232000Y-122428000D01*
X185232000Y-122448000D01*
X184978000Y-122448000D01*
X184978000Y-122428000D01*
X184278750Y-122428000D01*
X184120000Y-122586750D01*
X184120000Y-123077310D01*
X184216673Y-123310699D01*
X184360186Y-123454212D01*
X183827457Y-123986941D01*
X183781000Y-123977700D01*
X182854663Y-123977700D01*
X182822527Y-123945508D01*
X182478999Y-123802862D01*
X182219001Y-123802636D01*
X182191162Y-123654683D01*
X182052090Y-123438559D01*
X181925002Y-123351724D01*
X181925002Y-123300252D01*
X182083750Y-123459000D01*
X182274309Y-123459000D01*
X182507698Y-123362327D01*
X182686327Y-123183699D01*
X182783000Y-122950310D01*
X182783000Y-122459750D01*
X182624250Y-122301000D01*
X181925000Y-122301000D01*
X181925000Y-122321000D01*
X181671000Y-122321000D01*
X181671000Y-122301000D01*
X181651000Y-122301000D01*
X181651000Y-122047000D01*
X181671000Y-122047000D01*
X181671000Y-120269000D01*
X181925000Y-120269000D01*
X181925000Y-122047000D01*
X182624250Y-122047000D01*
X182783000Y-121888250D01*
X182783000Y-121397690D01*
X182686327Y-121164301D01*
X182680026Y-121158000D01*
X182686327Y-121151699D01*
X182783000Y-120918310D01*
X182783000Y-120554750D01*
X184120000Y-120554750D01*
X184120000Y-121045310D01*
X184216673Y-121278699D01*
X184222974Y-121285000D01*
X184216673Y-121291301D01*
X184120000Y-121524690D01*
X184120000Y-122015250D01*
X184278750Y-122174000D01*
X184978000Y-122174000D01*
X184978000Y-120396000D01*
X184278750Y-120396000D01*
X184120000Y-120554750D01*
X182783000Y-120554750D01*
X182783000Y-120427750D01*
X182624250Y-120269000D01*
X181925000Y-120269000D01*
X181671000Y-120269000D01*
X181651000Y-120269000D01*
X181651000Y-120015000D01*
X181671000Y-120015000D01*
X181671000Y-119261250D01*
X181721000Y-119211250D01*
X181721000Y-119015750D01*
X181925000Y-119015750D01*
X181925000Y-120015000D01*
X182624250Y-120015000D01*
X182783000Y-119856250D01*
X182783000Y-119365690D01*
X182733892Y-119247133D01*
X182886327Y-119094699D01*
X182983000Y-118861310D01*
X182983000Y-118522750D01*
X183920000Y-118522750D01*
X183920000Y-118988310D01*
X184016673Y-119221699D01*
X184169108Y-119374133D01*
X184120000Y-119492690D01*
X184120000Y-119983250D01*
X184278750Y-120142000D01*
X184978000Y-120142000D01*
X184978000Y-119142750D01*
X184928000Y-119092750D01*
X184928000Y-118364000D01*
X184078750Y-118364000D01*
X183920000Y-118522750D01*
X182983000Y-118522750D01*
X182983000Y-118395750D01*
X182824250Y-118237000D01*
X181975000Y-118237000D01*
X181975000Y-118965750D01*
X181925000Y-119015750D01*
X181721000Y-119015750D01*
X181721000Y-118237000D01*
X181701000Y-118237000D01*
X181701000Y-117983000D01*
X181721000Y-117983000D01*
X181721000Y-117963000D01*
X181975000Y-117963000D01*
X181975000Y-117983000D01*
X182824250Y-117983000D01*
X182983000Y-117824250D01*
X182983000Y-117476800D01*
X183923682Y-117476800D01*
X183920000Y-117485690D01*
G36*
X172085000Y-115443000D02*
X172105000Y-115443000D01*
X172105000Y-115697000D01*
X172085000Y-115697000D01*
X172085000Y-115717000D01*
X171831000Y-115717000D01*
X171831000Y-115697000D01*
X171811000Y-115697000D01*
X171811000Y-115443000D01*
X171831000Y-115443000D01*
X171831000Y-115423000D01*
X172085000Y-115423000D01*
X172085000Y-115443000D01*
X172085000Y-115443000D01*
G37*
X172085000Y-115443000D02*
X172105000Y-115443000D01*
X172105000Y-115697000D01*
X172085000Y-115697000D01*
X172085000Y-115717000D01*
X171831000Y-115717000D01*
X171831000Y-115697000D01*
X171811000Y-115697000D01*
X171811000Y-115443000D01*
X171831000Y-115443000D01*
X171831000Y-115423000D01*
X172085000Y-115423000D01*
X172085000Y-115443000D01*
G36*
X185039000Y-114062000D02*
X185059000Y-114062000D01*
X185059000Y-114316000D01*
X185039000Y-114316000D01*
X185039000Y-114336000D01*
X184785000Y-114336000D01*
X184785000Y-114316000D01*
X184765000Y-114316000D01*
X184765000Y-114062000D01*
X184785000Y-114062000D01*
X184785000Y-114042000D01*
X185039000Y-114042000D01*
X185039000Y-114062000D01*
X185039000Y-114062000D01*
G37*
X185039000Y-114062000D02*
X185059000Y-114062000D01*
X185059000Y-114316000D01*
X185039000Y-114316000D01*
X185039000Y-114336000D01*
X184785000Y-114336000D01*
X184785000Y-114316000D01*
X184765000Y-114316000D01*
X184765000Y-114062000D01*
X184785000Y-114062000D01*
X184785000Y-114042000D01*
X185039000Y-114042000D01*
X185039000Y-114062000D01*
G36*
X170518990Y-110010303D02*
X170911630Y-110403629D01*
X171119512Y-110489949D01*
X170913697Y-110574990D01*
X170520371Y-110967630D01*
X170440605Y-111159727D01*
X170386397Y-111028857D01*
X170144213Y-110959392D01*
X169343605Y-111760000D01*
X170144213Y-112560608D01*
X170386397Y-112491143D01*
X170436509Y-112350682D01*
X170518990Y-112550303D01*
X170747787Y-112779500D01*
X169953339Y-112779500D01*
X169964608Y-112740213D01*
X169164000Y-111939605D01*
X168363392Y-112740213D01*
X168374661Y-112779500D01*
X167580102Y-112779500D01*
X167807629Y-112552370D01*
X167887395Y-112360273D01*
X167941603Y-112491143D01*
X168183787Y-112560608D01*
X168984395Y-111760000D01*
X168183787Y-110959392D01*
X167941603Y-111028857D01*
X167891491Y-111169318D01*
X167809010Y-110969697D01*
X167416370Y-110576371D01*
X167208488Y-110490051D01*
X167414303Y-110405010D01*
X167807629Y-110012370D01*
X167893949Y-109804488D01*
X167978990Y-110010303D01*
X168371630Y-110403629D01*
X168563727Y-110483395D01*
X168432857Y-110537603D01*
X168363392Y-110779787D01*
X169164000Y-111580395D01*
X169964608Y-110779787D01*
X169895143Y-110537603D01*
X169754682Y-110487491D01*
X169954303Y-110405010D01*
X170347629Y-110012370D01*
X170433949Y-109804488D01*
X170518990Y-110010303D01*
X170518990Y-110010303D01*
G37*
X170518990Y-110010303D02*
X170911630Y-110403629D01*
X171119512Y-110489949D01*
X170913697Y-110574990D01*
X170520371Y-110967630D01*
X170440605Y-111159727D01*
X170386397Y-111028857D01*
X170144213Y-110959392D01*
X169343605Y-111760000D01*
X170144213Y-112560608D01*
X170386397Y-112491143D01*
X170436509Y-112350682D01*
X170518990Y-112550303D01*
X170747787Y-112779500D01*
X169953339Y-112779500D01*
X169964608Y-112740213D01*
X169164000Y-111939605D01*
X168363392Y-112740213D01*
X168374661Y-112779500D01*
X167580102Y-112779500D01*
X167807629Y-112552370D01*
X167887395Y-112360273D01*
X167941603Y-112491143D01*
X168183787Y-112560608D01*
X168984395Y-111760000D01*
X168183787Y-110959392D01*
X167941603Y-111028857D01*
X167891491Y-111169318D01*
X167809010Y-110969697D01*
X167416370Y-110576371D01*
X167208488Y-110490051D01*
X167414303Y-110405010D01*
X167807629Y-110012370D01*
X167893949Y-109804488D01*
X167978990Y-110010303D01*
X168371630Y-110403629D01*
X168563727Y-110483395D01*
X168432857Y-110537603D01*
X168363392Y-110779787D01*
X169164000Y-111580395D01*
X169964608Y-110779787D01*
X169895143Y-110537603D01*
X169754682Y-110487491D01*
X169954303Y-110405010D01*
X170347629Y-110012370D01*
X170433949Y-109804488D01*
X170518990Y-110010303D01*
G36*
X190838990Y-110010303D02*
X191231630Y-110403629D01*
X191439512Y-110489949D01*
X191233697Y-110574990D01*
X190840371Y-110967630D01*
X190760605Y-111159727D01*
X190706397Y-111028857D01*
X190464213Y-110959392D01*
X189663605Y-111760000D01*
X189677748Y-111774143D01*
X189498143Y-111953748D01*
X189484000Y-111939605D01*
X189469858Y-111953748D01*
X189290253Y-111774143D01*
X189304395Y-111760000D01*
X188503787Y-110959392D01*
X188261603Y-111028857D01*
X188211491Y-111169318D01*
X188129010Y-110969697D01*
X187736370Y-110576371D01*
X187528488Y-110490051D01*
X187734303Y-110405010D01*
X188127629Y-110012370D01*
X188213949Y-109804488D01*
X188298990Y-110010303D01*
X188691630Y-110403629D01*
X188883727Y-110483395D01*
X188752857Y-110537603D01*
X188683392Y-110779787D01*
X189484000Y-111580395D01*
X190284608Y-110779787D01*
X190215143Y-110537603D01*
X190074682Y-110487491D01*
X190274303Y-110405010D01*
X190667629Y-110012370D01*
X190753949Y-109804488D01*
X190838990Y-110010303D01*
X190838990Y-110010303D01*
G37*
X190838990Y-110010303D02*
X191231630Y-110403629D01*
X191439512Y-110489949D01*
X191233697Y-110574990D01*
X190840371Y-110967630D01*
X190760605Y-111159727D01*
X190706397Y-111028857D01*
X190464213Y-110959392D01*
X189663605Y-111760000D01*
X189677748Y-111774143D01*
X189498143Y-111953748D01*
X189484000Y-111939605D01*
X189469858Y-111953748D01*
X189290253Y-111774143D01*
X189304395Y-111760000D01*
X188503787Y-110959392D01*
X188261603Y-111028857D01*
X188211491Y-111169318D01*
X188129010Y-110969697D01*
X187736370Y-110576371D01*
X187528488Y-110490051D01*
X187734303Y-110405010D01*
X188127629Y-110012370D01*
X188213949Y-109804488D01*
X188298990Y-110010303D01*
X188691630Y-110403629D01*
X188883727Y-110483395D01*
X188752857Y-110537603D01*
X188683392Y-110779787D01*
X189484000Y-111580395D01*
X190284608Y-110779787D01*
X190215143Y-110537603D01*
X190074682Y-110487491D01*
X190274303Y-110405010D01*
X190667629Y-110012370D01*
X190753949Y-109804488D01*
X190838990Y-110010303D01*
M02*
