G04 #@! TF.FileFunction,Legend,Top*
%FSLAX46Y46*%
G04 Gerber Fmt 4.6, Leading zero omitted, Abs format (unit mm)*
G04 Created by KiCad (PCBNEW 4.0.6-e0-6349~53~ubuntu16.04.1) date Wed Mar 29 22:02:49 2017*
%MOMM*%
%LPD*%
G01*
G04 APERTURE LIST*
%ADD10C,0.100000*%
%ADD11C,0.300000*%
%ADD12C,0.150000*%
%ADD13C,0.120000*%
G04 APERTURE END LIST*
D10*
D11*
X123460144Y-117534571D02*
X123817287Y-118534571D01*
X124174429Y-117534571D01*
X125031572Y-117034571D02*
X125174429Y-117034571D01*
X125317286Y-117106000D01*
X125388715Y-117177429D01*
X125460144Y-117320286D01*
X125531572Y-117606000D01*
X125531572Y-117963143D01*
X125460144Y-118248857D01*
X125388715Y-118391714D01*
X125317286Y-118463143D01*
X125174429Y-118534571D01*
X125031572Y-118534571D01*
X124888715Y-118463143D01*
X124817286Y-118391714D01*
X124745858Y-118248857D01*
X124674429Y-117963143D01*
X124674429Y-117606000D01*
X124745858Y-117320286D01*
X124817286Y-117177429D01*
X124888715Y-117106000D01*
X125031572Y-117034571D01*
X126174429Y-118391714D02*
X126245857Y-118463143D01*
X126174429Y-118534571D01*
X126103000Y-118463143D01*
X126174429Y-118391714D01*
X126174429Y-118534571D01*
X127674429Y-118534571D02*
X126817286Y-118534571D01*
X127245858Y-118534571D02*
X127245858Y-117034571D01*
X127103001Y-117248857D01*
X126960143Y-117391714D01*
X126817286Y-117463143D01*
D12*
X120117095Y-106032905D02*
X120117095Y-105232905D01*
X120421857Y-105232905D01*
X120498048Y-105271000D01*
X120536143Y-105309095D01*
X120574238Y-105385286D01*
X120574238Y-105499571D01*
X120536143Y-105575762D01*
X120498048Y-105613857D01*
X120421857Y-105651952D01*
X120117095Y-105651952D01*
X120917095Y-106032905D02*
X120917095Y-105499571D01*
X120917095Y-105232905D02*
X120879000Y-105271000D01*
X120917095Y-105309095D01*
X120955190Y-105271000D01*
X120917095Y-105232905D01*
X120917095Y-105309095D01*
X121831381Y-105232905D02*
X122364714Y-105232905D01*
X121831381Y-106032905D01*
X122364714Y-106032905D01*
X122974238Y-105994810D02*
X122898048Y-106032905D01*
X122745667Y-106032905D01*
X122669476Y-105994810D01*
X122631381Y-105918619D01*
X122631381Y-105613857D01*
X122669476Y-105537667D01*
X122745667Y-105499571D01*
X122898048Y-105499571D01*
X122974238Y-105537667D01*
X123012333Y-105613857D01*
X123012333Y-105690048D01*
X122631381Y-105766238D01*
X123355190Y-106032905D02*
X123355190Y-105499571D01*
X123355190Y-105651952D02*
X123393285Y-105575762D01*
X123431381Y-105537667D01*
X123507571Y-105499571D01*
X123583762Y-105499571D01*
X123964714Y-106032905D02*
X123888523Y-105994810D01*
X123850428Y-105956714D01*
X123812333Y-105880524D01*
X123812333Y-105651952D01*
X123850428Y-105575762D01*
X123888523Y-105537667D01*
X123964714Y-105499571D01*
X124079000Y-105499571D01*
X124155190Y-105537667D01*
X124193285Y-105575762D01*
X124231381Y-105651952D01*
X124231381Y-105880524D01*
X124193285Y-105956714D01*
X124155190Y-105994810D01*
X124079000Y-106032905D01*
X123964714Y-106032905D01*
X125183762Y-106032905D02*
X125183762Y-105232905D01*
X125488524Y-105232905D01*
X125564715Y-105271000D01*
X125602810Y-105309095D01*
X125640905Y-105385286D01*
X125640905Y-105499571D01*
X125602810Y-105575762D01*
X125564715Y-105613857D01*
X125488524Y-105651952D01*
X125183762Y-105651952D01*
X125907572Y-105232905D02*
X126098048Y-106032905D01*
X126250429Y-105461476D01*
X126402810Y-106032905D01*
X126593286Y-105232905D01*
X126898048Y-106032905D02*
X126898048Y-105232905D01*
X127164715Y-105804333D01*
X127431382Y-105232905D01*
X127431382Y-106032905D01*
X120764712Y-107382905D02*
X120764712Y-106963857D01*
X120726617Y-106887667D01*
X120650427Y-106849571D01*
X120498046Y-106849571D01*
X120421855Y-106887667D01*
X120764712Y-107344810D02*
X120688522Y-107382905D01*
X120498046Y-107382905D01*
X120421855Y-107344810D01*
X120383760Y-107268619D01*
X120383760Y-107192429D01*
X120421855Y-107116238D01*
X120498046Y-107078143D01*
X120688522Y-107078143D01*
X120764712Y-107040048D01*
X121488522Y-106849571D02*
X121488522Y-107382905D01*
X121145665Y-106849571D02*
X121145665Y-107268619D01*
X121183760Y-107344810D01*
X121259951Y-107382905D01*
X121374237Y-107382905D01*
X121450427Y-107344810D01*
X121488522Y-107306714D01*
X122212332Y-107382905D02*
X122212332Y-106582905D01*
X122212332Y-107344810D02*
X122136142Y-107382905D01*
X121983761Y-107382905D01*
X121907570Y-107344810D01*
X121869475Y-107306714D01*
X121831380Y-107230524D01*
X121831380Y-107001952D01*
X121869475Y-106925762D01*
X121907570Y-106887667D01*
X121983761Y-106849571D01*
X122136142Y-106849571D01*
X122212332Y-106887667D01*
X122593285Y-107382905D02*
X122593285Y-106849571D01*
X122593285Y-106582905D02*
X122555190Y-106621000D01*
X122593285Y-106659095D01*
X122631380Y-106621000D01*
X122593285Y-106582905D01*
X122593285Y-106659095D01*
X123088523Y-107382905D02*
X123012332Y-107344810D01*
X122974237Y-107306714D01*
X122936142Y-107230524D01*
X122936142Y-107001952D01*
X122974237Y-106925762D01*
X123012332Y-106887667D01*
X123088523Y-106849571D01*
X123202809Y-106849571D01*
X123278999Y-106887667D01*
X123317094Y-106925762D01*
X123355190Y-107001952D01*
X123355190Y-107230524D01*
X123317094Y-107306714D01*
X123278999Y-107344810D01*
X123202809Y-107382905D01*
X123088523Y-107382905D01*
X124421857Y-107382905D02*
X124345666Y-107344810D01*
X124307571Y-107306714D01*
X124269476Y-107230524D01*
X124269476Y-107001952D01*
X124307571Y-106925762D01*
X124345666Y-106887667D01*
X124421857Y-106849571D01*
X124536143Y-106849571D01*
X124612333Y-106887667D01*
X124650428Y-106925762D01*
X124688524Y-107001952D01*
X124688524Y-107230524D01*
X124650428Y-107306714D01*
X124612333Y-107344810D01*
X124536143Y-107382905D01*
X124421857Y-107382905D01*
X125374238Y-106849571D02*
X125374238Y-107382905D01*
X125031381Y-106849571D02*
X125031381Y-107268619D01*
X125069476Y-107344810D01*
X125145667Y-107382905D01*
X125259953Y-107382905D01*
X125336143Y-107344810D01*
X125374238Y-107306714D01*
X125640905Y-106849571D02*
X125945667Y-106849571D01*
X125755191Y-106582905D02*
X125755191Y-107268619D01*
X125793286Y-107344810D01*
X125869477Y-107382905D01*
X125945667Y-107382905D01*
X126212334Y-106849571D02*
X126212334Y-107649571D01*
X126212334Y-106887667D02*
X126288525Y-106849571D01*
X126440906Y-106849571D01*
X126517096Y-106887667D01*
X126555191Y-106925762D01*
X126593287Y-107001952D01*
X126593287Y-107230524D01*
X126555191Y-107306714D01*
X126517096Y-107344810D01*
X126440906Y-107382905D01*
X126288525Y-107382905D01*
X126212334Y-107344810D01*
X127279001Y-106849571D02*
X127279001Y-107382905D01*
X126936144Y-106849571D02*
X126936144Y-107268619D01*
X126974239Y-107344810D01*
X127050430Y-107382905D01*
X127164716Y-107382905D01*
X127240906Y-107344810D01*
X127279001Y-107306714D01*
X127545668Y-106849571D02*
X127850430Y-106849571D01*
X127659954Y-106582905D02*
X127659954Y-107268619D01*
X127698049Y-107344810D01*
X127774240Y-107382905D01*
X127850430Y-107382905D01*
X120021857Y-107932905D02*
X120517095Y-107932905D01*
X120250428Y-108237667D01*
X120364714Y-108237667D01*
X120440904Y-108275762D01*
X120479000Y-108313857D01*
X120517095Y-108390048D01*
X120517095Y-108580524D01*
X120479000Y-108656714D01*
X120440904Y-108694810D01*
X120364714Y-108732905D01*
X120136142Y-108732905D01*
X120059952Y-108694810D01*
X120021857Y-108656714D01*
X120783762Y-107932905D02*
X120974238Y-108732905D01*
X121126619Y-108161476D01*
X121279000Y-108732905D01*
X121469476Y-107932905D01*
X122383762Y-108732905D02*
X122383762Y-107932905D01*
X122688524Y-107932905D01*
X122764715Y-107971000D01*
X122802810Y-108009095D01*
X122840905Y-108085286D01*
X122840905Y-108199571D01*
X122802810Y-108275762D01*
X122764715Y-108313857D01*
X122688524Y-108351952D01*
X122383762Y-108351952D01*
X123145667Y-108504333D02*
X123526619Y-108504333D01*
X123069476Y-108732905D02*
X123336143Y-107932905D01*
X123602810Y-108732905D01*
X123869476Y-108732905D02*
X123869476Y-107932905D01*
X124136143Y-108504333D01*
X124402810Y-107932905D01*
X124402810Y-108732905D01*
X124898048Y-108275762D02*
X124821857Y-108237667D01*
X124783762Y-108199571D01*
X124745667Y-108123381D01*
X124745667Y-108085286D01*
X124783762Y-108009095D01*
X124821857Y-107971000D01*
X124898048Y-107932905D01*
X125050429Y-107932905D01*
X125126619Y-107971000D01*
X125164715Y-108009095D01*
X125202810Y-108085286D01*
X125202810Y-108123381D01*
X125164715Y-108199571D01*
X125126619Y-108237667D01*
X125050429Y-108275762D01*
X124898048Y-108275762D01*
X124821857Y-108313857D01*
X124783762Y-108351952D01*
X124745667Y-108428143D01*
X124745667Y-108580524D01*
X124783762Y-108656714D01*
X124821857Y-108694810D01*
X124898048Y-108732905D01*
X125050429Y-108732905D01*
X125126619Y-108694810D01*
X125164715Y-108656714D01*
X125202810Y-108580524D01*
X125202810Y-108428143D01*
X125164715Y-108351952D01*
X125126619Y-108313857D01*
X125050429Y-108275762D01*
X125888524Y-108199571D02*
X125888524Y-108732905D01*
X125698048Y-107894810D02*
X125507572Y-108466238D01*
X126002810Y-108466238D01*
X126459953Y-107932905D02*
X126536144Y-107932905D01*
X126612334Y-107971000D01*
X126650429Y-108009095D01*
X126688525Y-108085286D01*
X126726620Y-108237667D01*
X126726620Y-108428143D01*
X126688525Y-108580524D01*
X126650429Y-108656714D01*
X126612334Y-108694810D01*
X126536144Y-108732905D01*
X126459953Y-108732905D01*
X126383763Y-108694810D01*
X126345667Y-108656714D01*
X126307572Y-108580524D01*
X126269477Y-108428143D01*
X126269477Y-108237667D01*
X126307572Y-108085286D01*
X126345667Y-108009095D01*
X126383763Y-107971000D01*
X126459953Y-107932905D01*
X126993287Y-107932905D02*
X127488525Y-107932905D01*
X127221858Y-108237667D01*
X127336144Y-108237667D01*
X127412334Y-108275762D01*
X127450430Y-108313857D01*
X127488525Y-108390048D01*
X127488525Y-108580524D01*
X127450430Y-108656714D01*
X127412334Y-108694810D01*
X127336144Y-108732905D01*
X127107572Y-108732905D01*
X127031382Y-108694810D01*
X126993287Y-108656714D01*
X119183761Y-109854333D02*
X119564713Y-109854333D01*
X119107570Y-110082905D02*
X119374237Y-109282905D01*
X119640904Y-110082905D01*
X119907570Y-110082905D02*
X119907570Y-109549571D01*
X119907570Y-109625762D02*
X119945665Y-109587667D01*
X120021856Y-109549571D01*
X120136142Y-109549571D01*
X120212332Y-109587667D01*
X120250427Y-109663857D01*
X120250427Y-110082905D01*
X120250427Y-109663857D02*
X120288523Y-109587667D01*
X120364713Y-109549571D01*
X120478999Y-109549571D01*
X120555189Y-109587667D01*
X120593284Y-109663857D01*
X120593284Y-110082905D01*
X120974237Y-109549571D02*
X120974237Y-110349571D01*
X120974237Y-109587667D02*
X121050428Y-109549571D01*
X121202809Y-109549571D01*
X121278999Y-109587667D01*
X121317094Y-109625762D01*
X121355190Y-109701952D01*
X121355190Y-109930524D01*
X121317094Y-110006714D01*
X121278999Y-110044810D01*
X121202809Y-110082905D01*
X121050428Y-110082905D01*
X120974237Y-110044810D01*
X121812333Y-110082905D02*
X121736142Y-110044810D01*
X121698047Y-109968619D01*
X121698047Y-109282905D01*
X122117095Y-110082905D02*
X122117095Y-109549571D01*
X122117095Y-109282905D02*
X122079000Y-109321000D01*
X122117095Y-109359095D01*
X122155190Y-109321000D01*
X122117095Y-109282905D01*
X122117095Y-109359095D01*
X122383761Y-109549571D02*
X122688523Y-109549571D01*
X122498047Y-110082905D02*
X122498047Y-109397190D01*
X122536142Y-109321000D01*
X122612333Y-109282905D01*
X122688523Y-109282905D01*
X122955190Y-110082905D02*
X122955190Y-109549571D01*
X122955190Y-109282905D02*
X122917095Y-109321000D01*
X122955190Y-109359095D01*
X122993285Y-109321000D01*
X122955190Y-109282905D01*
X122955190Y-109359095D01*
X123640904Y-110044810D02*
X123564714Y-110082905D01*
X123412333Y-110082905D01*
X123336142Y-110044810D01*
X123298047Y-109968619D01*
X123298047Y-109663857D01*
X123336142Y-109587667D01*
X123412333Y-109549571D01*
X123564714Y-109549571D01*
X123640904Y-109587667D01*
X123678999Y-109663857D01*
X123678999Y-109740048D01*
X123298047Y-109816238D01*
X124021856Y-110082905D02*
X124021856Y-109549571D01*
X124021856Y-109701952D02*
X124059951Y-109625762D01*
X124098047Y-109587667D01*
X124174237Y-109549571D01*
X124250428Y-109549571D01*
X125126618Y-110082905D02*
X125126618Y-109282905D01*
X125393285Y-109854333D01*
X125659952Y-109282905D01*
X125659952Y-110082905D01*
X126155190Y-110082905D02*
X126078999Y-110044810D01*
X126040904Y-110006714D01*
X126002809Y-109930524D01*
X126002809Y-109701952D01*
X126040904Y-109625762D01*
X126078999Y-109587667D01*
X126155190Y-109549571D01*
X126269476Y-109549571D01*
X126345666Y-109587667D01*
X126383761Y-109625762D01*
X126421857Y-109701952D01*
X126421857Y-109930524D01*
X126383761Y-110006714D01*
X126345666Y-110044810D01*
X126269476Y-110082905D01*
X126155190Y-110082905D01*
X127107571Y-110082905D02*
X127107571Y-109282905D01*
X127107571Y-110044810D02*
X127031381Y-110082905D01*
X126879000Y-110082905D01*
X126802809Y-110044810D01*
X126764714Y-110006714D01*
X126726619Y-109930524D01*
X126726619Y-109701952D01*
X126764714Y-109625762D01*
X126802809Y-109587667D01*
X126879000Y-109549571D01*
X127031381Y-109549571D01*
X127107571Y-109587667D01*
X127831381Y-109549571D02*
X127831381Y-110082905D01*
X127488524Y-109549571D02*
X127488524Y-109968619D01*
X127526619Y-110044810D01*
X127602810Y-110082905D01*
X127717096Y-110082905D01*
X127793286Y-110044810D01*
X127831381Y-110006714D01*
X128326620Y-110082905D02*
X128250429Y-110044810D01*
X128212334Y-109968619D01*
X128212334Y-109282905D01*
X128936144Y-110044810D02*
X128859954Y-110082905D01*
X128707573Y-110082905D01*
X128631382Y-110044810D01*
X128593287Y-109968619D01*
X128593287Y-109663857D01*
X128631382Y-109587667D01*
X128707573Y-109549571D01*
X128859954Y-109549571D01*
X128936144Y-109587667D01*
X128974239Y-109663857D01*
X128974239Y-109740048D01*
X128593287Y-109816238D01*
D13*
X139026000Y-105148000D02*
X139026000Y-104148000D01*
X137326000Y-104148000D02*
X137326000Y-105148000D01*
X137072000Y-111514000D02*
X137072000Y-112514000D01*
X138772000Y-112514000D02*
X138772000Y-111514000D01*
X137252000Y-102480000D02*
X136052000Y-102480000D01*
X136052000Y-100720000D02*
X137252000Y-100720000D01*
X135010000Y-105248000D02*
X135010000Y-104048000D01*
X136770000Y-104048000D02*
X136770000Y-105248000D01*
X138802000Y-114970000D02*
X138802000Y-116170000D01*
X137042000Y-116170000D02*
X137042000Y-114970000D01*
X137042000Y-119726000D02*
X137042000Y-118526000D01*
X138802000Y-118526000D02*
X138802000Y-119726000D01*
X142804000Y-103888000D02*
X141874000Y-103888000D01*
X139644000Y-103888000D02*
X140574000Y-103888000D01*
X139644000Y-103888000D02*
X139644000Y-106048000D01*
X142804000Y-103888000D02*
X142804000Y-105348000D01*
X142550000Y-111254000D02*
X141620000Y-111254000D01*
X139390000Y-111254000D02*
X140320000Y-111254000D01*
X139390000Y-111254000D02*
X139390000Y-113414000D01*
X142550000Y-111254000D02*
X142550000Y-112714000D01*
D12*
X177648000Y-91770000D02*
X177521000Y-91770000D01*
X181077000Y-118186000D02*
X181077000Y-95453000D01*
X177648000Y-121869000D02*
X177521000Y-121869000D01*
X177648000Y-121869000D02*
G75*
G03X181077000Y-118186000I-127000J3556000D01*
G01*
X181077000Y-95453000D02*
G75*
G03X177648000Y-91770000I-3556000J127000D01*
G01*
X177521000Y-91770000D02*
X177394000Y-91770000D01*
X119355000Y-91770000D02*
G75*
G03X115799000Y-95326000I0J-3556000D01*
G01*
X115799000Y-118313000D02*
G75*
G03X119355000Y-121869000I3556000J0D01*
G01*
X115799000Y-118313000D02*
X115799000Y-95326000D01*
X177521000Y-121869000D02*
X119355000Y-121869000D01*
X119355000Y-91770000D02*
X177394000Y-91770000D01*
X146177000Y-121412000D02*
X146177000Y-123418600D01*
X146177000Y-123418600D02*
X151003000Y-123418600D01*
X151003000Y-123418600D02*
X151003000Y-121412000D01*
X151638000Y-121412000D02*
X145770600Y-121412000D01*
X145770600Y-115189000D02*
X145770600Y-111302800D01*
X145770600Y-118491000D02*
X145770600Y-117144800D01*
X145770600Y-121412000D02*
X145770600Y-120472200D01*
X151638000Y-120192800D02*
X151638000Y-121412000D01*
X151638000Y-113106200D02*
X151638000Y-118237000D01*
X146862800Y-109474000D02*
X151638000Y-109474000D01*
X151638000Y-109474000D02*
X151638000Y-111125000D01*
D13*
X179444000Y-103632000D02*
X179444000Y-100972000D01*
X179444000Y-100972000D02*
X176664000Y-100972000D01*
X176664000Y-100972000D02*
X176664000Y-103632000D01*
X176664000Y-103632000D02*
X179444000Y-103632000D01*
X179444000Y-104902000D02*
X179444000Y-106292000D01*
X179444000Y-106292000D02*
X178054000Y-106292000D01*
X176664000Y-112268000D02*
X176664000Y-114928000D01*
X176664000Y-114928000D02*
X179444000Y-114928000D01*
X179444000Y-114928000D02*
X179444000Y-112268000D01*
X179444000Y-112268000D02*
X176664000Y-112268000D01*
X176664000Y-110998000D02*
X176664000Y-109608000D01*
X176664000Y-109608000D02*
X178054000Y-109608000D01*
D12*
X175260000Y-99314000D02*
X175260000Y-116586000D01*
X175260000Y-116586000D02*
X154686000Y-116586000D01*
X154686000Y-116586000D02*
X154686000Y-99314000D01*
X154686000Y-99314000D02*
X175260000Y-99314000D01*
D13*
X139798000Y-116932000D02*
X139798000Y-118932000D01*
X141838000Y-118932000D02*
X141838000Y-116932000D01*
X143760000Y-102632000D02*
X143760000Y-104632000D01*
X145800000Y-104632000D02*
X145800000Y-102632000D01*
X161290000Y-117796000D02*
X158690000Y-117796000D01*
X158690000Y-117796000D02*
X158690000Y-120456000D01*
X158690000Y-120456000D02*
X161290000Y-120456000D01*
X161290000Y-120456000D02*
X161290000Y-117796000D01*
X162560000Y-117796000D02*
X163890000Y-117796000D01*
X163890000Y-117796000D02*
X163890000Y-119126000D01*
D12*
X137517143Y-107354666D02*
X137564762Y-107402285D01*
X137612381Y-107545142D01*
X137612381Y-107640380D01*
X137564762Y-107783238D01*
X137469524Y-107878476D01*
X137374286Y-107926095D01*
X137183810Y-107973714D01*
X137040952Y-107973714D01*
X136850476Y-107926095D01*
X136755238Y-107878476D01*
X136660000Y-107783238D01*
X136612381Y-107640380D01*
X136612381Y-107545142D01*
X136660000Y-107402285D01*
X136707619Y-107354666D01*
X137612381Y-106402285D02*
X137612381Y-106973714D01*
X137612381Y-106688000D02*
X136612381Y-106688000D01*
X136755238Y-106783238D01*
X136850476Y-106878476D01*
X136898095Y-106973714D01*
X137882381Y-108957905D02*
X137882381Y-108338857D01*
X138263333Y-108672191D01*
X138263333Y-108529333D01*
X138310952Y-108434095D01*
X138358571Y-108386476D01*
X138453810Y-108338857D01*
X138691905Y-108338857D01*
X138787143Y-108386476D01*
X138834762Y-108434095D01*
X138882381Y-108529333D01*
X138882381Y-108815048D01*
X138834762Y-108910286D01*
X138787143Y-108957905D01*
X137882381Y-108005524D02*
X137882381Y-107386476D01*
X138263333Y-107719810D01*
X138263333Y-107576952D01*
X138310952Y-107481714D01*
X138358571Y-107434095D01*
X138453810Y-107386476D01*
X138691905Y-107386476D01*
X138787143Y-107434095D01*
X138834762Y-107481714D01*
X138882381Y-107576952D01*
X138882381Y-107862667D01*
X138834762Y-107957905D01*
X138787143Y-108005524D01*
X138215714Y-106957905D02*
X138882381Y-106957905D01*
X138310952Y-106957905D02*
X138263333Y-106910286D01*
X138215714Y-106815048D01*
X138215714Y-106672190D01*
X138263333Y-106576952D01*
X138358571Y-106529333D01*
X138882381Y-106529333D01*
X135977334Y-113133143D02*
X135929715Y-113180762D01*
X135786858Y-113228381D01*
X135691620Y-113228381D01*
X135548762Y-113180762D01*
X135453524Y-113085524D01*
X135405905Y-112990286D01*
X135358286Y-112799810D01*
X135358286Y-112656952D01*
X135405905Y-112466476D01*
X135453524Y-112371238D01*
X135548762Y-112276000D01*
X135691620Y-112228381D01*
X135786858Y-112228381D01*
X135929715Y-112276000D01*
X135977334Y-112323619D01*
X136310667Y-112228381D02*
X136929715Y-112228381D01*
X136596381Y-112609333D01*
X136739239Y-112609333D01*
X136834477Y-112656952D01*
X136882096Y-112704571D01*
X136929715Y-112799810D01*
X136929715Y-113037905D01*
X136882096Y-113133143D01*
X136834477Y-113180762D01*
X136739239Y-113228381D01*
X136453524Y-113228381D01*
X136358286Y-113180762D01*
X136310667Y-113133143D01*
X134374095Y-110450381D02*
X134993143Y-110450381D01*
X134659809Y-110831333D01*
X134802667Y-110831333D01*
X134897905Y-110878952D01*
X134945524Y-110926571D01*
X134993143Y-111021810D01*
X134993143Y-111259905D01*
X134945524Y-111355143D01*
X134897905Y-111402762D01*
X134802667Y-111450381D01*
X134516952Y-111450381D01*
X134421714Y-111402762D01*
X134374095Y-111355143D01*
X135326476Y-110450381D02*
X135945524Y-110450381D01*
X135612190Y-110831333D01*
X135755048Y-110831333D01*
X135850286Y-110878952D01*
X135897905Y-110926571D01*
X135945524Y-111021810D01*
X135945524Y-111259905D01*
X135897905Y-111355143D01*
X135850286Y-111402762D01*
X135755048Y-111450381D01*
X135469333Y-111450381D01*
X135374095Y-111402762D01*
X135326476Y-111355143D01*
X136374095Y-110783714D02*
X136374095Y-111450381D01*
X136374095Y-110878952D02*
X136421714Y-110831333D01*
X136516952Y-110783714D01*
X136659810Y-110783714D01*
X136755048Y-110831333D01*
X136802667Y-110926571D01*
X136802667Y-111450381D01*
X138771334Y-102052381D02*
X138438000Y-101576190D01*
X138199905Y-102052381D02*
X138199905Y-101052381D01*
X138580858Y-101052381D01*
X138676096Y-101100000D01*
X138723715Y-101147619D01*
X138771334Y-101242857D01*
X138771334Y-101385714D01*
X138723715Y-101480952D01*
X138676096Y-101528571D01*
X138580858Y-101576190D01*
X138199905Y-101576190D01*
X139723715Y-102052381D02*
X139152286Y-102052381D01*
X139438000Y-102052381D02*
X139438000Y-101052381D01*
X139342762Y-101195238D01*
X139247524Y-101290476D01*
X139152286Y-101338095D01*
X131611905Y-101147619D02*
X131659524Y-101100000D01*
X131754762Y-101052381D01*
X131992858Y-101052381D01*
X132088096Y-101100000D01*
X132135715Y-101147619D01*
X132183334Y-101242857D01*
X132183334Y-101338095D01*
X132135715Y-101480952D01*
X131564286Y-102052381D01*
X132183334Y-102052381D01*
X132516667Y-101052381D02*
X133183334Y-101052381D01*
X132754762Y-102052381D01*
X133754762Y-101052381D02*
X133850001Y-101052381D01*
X133945239Y-101100000D01*
X133992858Y-101147619D01*
X134040477Y-101242857D01*
X134088096Y-101433333D01*
X134088096Y-101671429D01*
X134040477Y-101861905D01*
X133992858Y-101957143D01*
X133945239Y-102004762D01*
X133850001Y-102052381D01*
X133754762Y-102052381D01*
X133659524Y-102004762D01*
X133611905Y-101957143D01*
X133564286Y-101861905D01*
X133516667Y-101671429D01*
X133516667Y-101433333D01*
X133564286Y-101242857D01*
X133611905Y-101147619D01*
X133659524Y-101100000D01*
X133754762Y-101052381D01*
X135088096Y-102052381D02*
X134754762Y-101576190D01*
X134516667Y-102052381D02*
X134516667Y-101052381D01*
X134897620Y-101052381D01*
X134992858Y-101100000D01*
X135040477Y-101147619D01*
X135088096Y-101242857D01*
X135088096Y-101385714D01*
X135040477Y-101480952D01*
X134992858Y-101528571D01*
X134897620Y-101576190D01*
X134516667Y-101576190D01*
X134818381Y-104814666D02*
X134342190Y-105148000D01*
X134818381Y-105386095D02*
X133818381Y-105386095D01*
X133818381Y-105005142D01*
X133866000Y-104909904D01*
X133913619Y-104862285D01*
X134008857Y-104814666D01*
X134151714Y-104814666D01*
X134246952Y-104862285D01*
X134294571Y-104909904D01*
X134342190Y-105005142D01*
X134342190Y-105386095D01*
X133913619Y-104433714D02*
X133866000Y-104386095D01*
X133818381Y-104290857D01*
X133818381Y-104052761D01*
X133866000Y-103957523D01*
X133913619Y-103909904D01*
X134008857Y-103862285D01*
X134104095Y-103862285D01*
X134246952Y-103909904D01*
X134818381Y-104481333D01*
X134818381Y-103862285D01*
X135834381Y-108362666D02*
X135834381Y-108934095D01*
X135834381Y-108648381D02*
X134834381Y-108648381D01*
X134977238Y-108743619D01*
X135072476Y-108838857D01*
X135120095Y-108934095D01*
X134834381Y-107457904D02*
X134834381Y-107934095D01*
X135310571Y-107981714D01*
X135262952Y-107934095D01*
X135215333Y-107838857D01*
X135215333Y-107600761D01*
X135262952Y-107505523D01*
X135310571Y-107457904D01*
X135405810Y-107410285D01*
X135643905Y-107410285D01*
X135739143Y-107457904D01*
X135786762Y-107505523D01*
X135834381Y-107600761D01*
X135834381Y-107838857D01*
X135786762Y-107934095D01*
X135739143Y-107981714D01*
X134834381Y-106791238D02*
X134834381Y-106695999D01*
X134882000Y-106600761D01*
X134929619Y-106553142D01*
X135024857Y-106505523D01*
X135215333Y-106457904D01*
X135453429Y-106457904D01*
X135643905Y-106505523D01*
X135739143Y-106553142D01*
X135786762Y-106600761D01*
X135834381Y-106695999D01*
X135834381Y-106791238D01*
X135786762Y-106886476D01*
X135739143Y-106934095D01*
X135643905Y-106981714D01*
X135453429Y-107029333D01*
X135215333Y-107029333D01*
X135024857Y-106981714D01*
X134929619Y-106934095D01*
X134882000Y-106886476D01*
X134834381Y-106791238D01*
X135977334Y-117038381D02*
X135644000Y-116562190D01*
X135405905Y-117038381D02*
X135405905Y-116038381D01*
X135786858Y-116038381D01*
X135882096Y-116086000D01*
X135929715Y-116133619D01*
X135977334Y-116228857D01*
X135977334Y-116371714D01*
X135929715Y-116466952D01*
X135882096Y-116514571D01*
X135786858Y-116562190D01*
X135405905Y-116562190D01*
X136310667Y-116038381D02*
X136929715Y-116038381D01*
X136596381Y-116419333D01*
X136739239Y-116419333D01*
X136834477Y-116466952D01*
X136882096Y-116514571D01*
X136929715Y-116609810D01*
X136929715Y-116847905D01*
X136882096Y-116943143D01*
X136834477Y-116990762D01*
X136739239Y-117038381D01*
X136453524Y-117038381D01*
X136358286Y-116990762D01*
X136310667Y-116943143D01*
X134397905Y-114609619D02*
X134445524Y-114562000D01*
X134540762Y-114514381D01*
X134778858Y-114514381D01*
X134874096Y-114562000D01*
X134921715Y-114609619D01*
X134969334Y-114704857D01*
X134969334Y-114800095D01*
X134921715Y-114942952D01*
X134350286Y-115514381D01*
X134969334Y-115514381D01*
X135302667Y-114514381D02*
X135969334Y-114514381D01*
X135540762Y-115514381D01*
X136540762Y-114514381D02*
X136636001Y-114514381D01*
X136731239Y-114562000D01*
X136778858Y-114609619D01*
X136826477Y-114704857D01*
X136874096Y-114895333D01*
X136874096Y-115133429D01*
X136826477Y-115323905D01*
X136778858Y-115419143D01*
X136731239Y-115466762D01*
X136636001Y-115514381D01*
X136540762Y-115514381D01*
X136445524Y-115466762D01*
X136397905Y-115419143D01*
X136350286Y-115323905D01*
X136302667Y-115133429D01*
X136302667Y-114895333D01*
X136350286Y-114704857D01*
X136397905Y-114609619D01*
X136445524Y-114562000D01*
X136540762Y-114514381D01*
X135977334Y-120594381D02*
X135644000Y-120118190D01*
X135405905Y-120594381D02*
X135405905Y-119594381D01*
X135786858Y-119594381D01*
X135882096Y-119642000D01*
X135929715Y-119689619D01*
X135977334Y-119784857D01*
X135977334Y-119927714D01*
X135929715Y-120022952D01*
X135882096Y-120070571D01*
X135786858Y-120118190D01*
X135405905Y-120118190D01*
X136834477Y-119927714D02*
X136834477Y-120594381D01*
X136596381Y-119546762D02*
X136358286Y-120261048D01*
X136977334Y-120261048D01*
X134969334Y-119070381D02*
X134397905Y-119070381D01*
X134683619Y-119070381D02*
X134683619Y-118070381D01*
X134588381Y-118213238D01*
X134493143Y-118308476D01*
X134397905Y-118356095D01*
X135874096Y-118070381D02*
X135397905Y-118070381D01*
X135350286Y-118546571D01*
X135397905Y-118498952D01*
X135493143Y-118451333D01*
X135731239Y-118451333D01*
X135826477Y-118498952D01*
X135874096Y-118546571D01*
X135921715Y-118641810D01*
X135921715Y-118879905D01*
X135874096Y-118975143D01*
X135826477Y-119022762D01*
X135731239Y-119070381D01*
X135493143Y-119070381D01*
X135397905Y-119022762D01*
X135350286Y-118975143D01*
X136540762Y-118070381D02*
X136636001Y-118070381D01*
X136731239Y-118118000D01*
X136778858Y-118165619D01*
X136826477Y-118260857D01*
X136874096Y-118451333D01*
X136874096Y-118689429D01*
X136826477Y-118879905D01*
X136778858Y-118975143D01*
X136731239Y-119022762D01*
X136636001Y-119070381D01*
X136540762Y-119070381D01*
X136445524Y-119022762D01*
X136397905Y-118975143D01*
X136350286Y-118879905D01*
X136302667Y-118689429D01*
X136302667Y-118451333D01*
X136350286Y-118260857D01*
X136397905Y-118165619D01*
X136445524Y-118118000D01*
X136540762Y-118070381D01*
X140462095Y-101814381D02*
X140462095Y-102623905D01*
X140509714Y-102719143D01*
X140557333Y-102766762D01*
X140652571Y-102814381D01*
X140843048Y-102814381D01*
X140938286Y-102766762D01*
X140985905Y-102719143D01*
X141033524Y-102623905D01*
X141033524Y-101814381D01*
X141462095Y-101909619D02*
X141509714Y-101862000D01*
X141604952Y-101814381D01*
X141843048Y-101814381D01*
X141938286Y-101862000D01*
X141985905Y-101909619D01*
X142033524Y-102004857D01*
X142033524Y-102100095D01*
X141985905Y-102242952D01*
X141414476Y-102814381D01*
X142033524Y-102814381D01*
X139739905Y-106862571D02*
X139882762Y-106910190D01*
X139930381Y-106957810D01*
X139978000Y-107053048D01*
X139978000Y-107195905D01*
X139930381Y-107291143D01*
X139882762Y-107338762D01*
X139787524Y-107386381D01*
X139406571Y-107386381D01*
X139406571Y-106386381D01*
X139739905Y-106386381D01*
X139835143Y-106434000D01*
X139882762Y-106481619D01*
X139930381Y-106576857D01*
X139930381Y-106672095D01*
X139882762Y-106767333D01*
X139835143Y-106814952D01*
X139739905Y-106862571D01*
X139406571Y-106862571D01*
X140358952Y-107100667D02*
X140835143Y-107100667D01*
X140263714Y-107386381D02*
X140597047Y-106386381D01*
X140930381Y-107386381D01*
X141120857Y-106386381D02*
X141454190Y-107386381D01*
X141787524Y-106386381D01*
X142168476Y-107386381D02*
X142358952Y-107386381D01*
X142454191Y-107338762D01*
X142501810Y-107291143D01*
X142597048Y-107148286D01*
X142644667Y-106957810D01*
X142644667Y-106576857D01*
X142597048Y-106481619D01*
X142549429Y-106434000D01*
X142454191Y-106386381D01*
X142263714Y-106386381D01*
X142168476Y-106434000D01*
X142120857Y-106481619D01*
X142073238Y-106576857D01*
X142073238Y-106814952D01*
X142120857Y-106910190D01*
X142168476Y-106957810D01*
X142263714Y-107005429D01*
X142454191Y-107005429D01*
X142549429Y-106957810D01*
X142597048Y-106910190D01*
X142644667Y-106814952D01*
X143120857Y-107386381D02*
X143311333Y-107386381D01*
X143406572Y-107338762D01*
X143454191Y-107291143D01*
X143549429Y-107148286D01*
X143597048Y-106957810D01*
X143597048Y-106576857D01*
X143549429Y-106481619D01*
X143501810Y-106434000D01*
X143406572Y-106386381D01*
X143216095Y-106386381D01*
X143120857Y-106434000D01*
X143073238Y-106481619D01*
X143025619Y-106576857D01*
X143025619Y-106814952D01*
X143073238Y-106910190D01*
X143120857Y-106957810D01*
X143216095Y-107005429D01*
X143406572Y-107005429D01*
X143501810Y-106957810D01*
X143549429Y-106910190D01*
X143597048Y-106814952D01*
X139954095Y-109180381D02*
X139954095Y-109989905D01*
X140001714Y-110085143D01*
X140049333Y-110132762D01*
X140144571Y-110180381D01*
X140335048Y-110180381D01*
X140430286Y-110132762D01*
X140477905Y-110085143D01*
X140525524Y-109989905D01*
X140525524Y-109180381D01*
X140906476Y-109180381D02*
X141525524Y-109180381D01*
X141192190Y-109561333D01*
X141335048Y-109561333D01*
X141430286Y-109608952D01*
X141477905Y-109656571D01*
X141525524Y-109751810D01*
X141525524Y-109989905D01*
X141477905Y-110085143D01*
X141430286Y-110132762D01*
X141335048Y-110180381D01*
X141049333Y-110180381D01*
X140954095Y-110132762D01*
X140906476Y-110085143D01*
X143184571Y-113752095D02*
X143232190Y-113609238D01*
X143279810Y-113561619D01*
X143375048Y-113514000D01*
X143517905Y-113514000D01*
X143613143Y-113561619D01*
X143660762Y-113609238D01*
X143708381Y-113704476D01*
X143708381Y-114085429D01*
X142708381Y-114085429D01*
X142708381Y-113752095D01*
X142756000Y-113656857D01*
X142803619Y-113609238D01*
X142898857Y-113561619D01*
X142994095Y-113561619D01*
X143089333Y-113609238D01*
X143136952Y-113656857D01*
X143184571Y-113752095D01*
X143184571Y-114085429D01*
X143422667Y-113133048D02*
X143422667Y-112656857D01*
X143708381Y-113228286D02*
X142708381Y-112894953D01*
X143708381Y-112561619D01*
X142708381Y-112371143D02*
X143708381Y-112037810D01*
X142708381Y-111704476D01*
X143708381Y-111323524D02*
X143708381Y-111133048D01*
X143660762Y-111037809D01*
X143613143Y-110990190D01*
X143470286Y-110894952D01*
X143279810Y-110847333D01*
X142898857Y-110847333D01*
X142803619Y-110894952D01*
X142756000Y-110942571D01*
X142708381Y-111037809D01*
X142708381Y-111228286D01*
X142756000Y-111323524D01*
X142803619Y-111371143D01*
X142898857Y-111418762D01*
X143136952Y-111418762D01*
X143232190Y-111371143D01*
X143279810Y-111323524D01*
X143327429Y-111228286D01*
X143327429Y-111037809D01*
X143279810Y-110942571D01*
X143232190Y-110894952D01*
X143136952Y-110847333D01*
X143708381Y-110371143D02*
X143708381Y-110180667D01*
X143660762Y-110085428D01*
X143613143Y-110037809D01*
X143470286Y-109942571D01*
X143279810Y-109894952D01*
X142898857Y-109894952D01*
X142803619Y-109942571D01*
X142756000Y-109990190D01*
X142708381Y-110085428D01*
X142708381Y-110275905D01*
X142756000Y-110371143D01*
X142803619Y-110418762D01*
X142898857Y-110466381D01*
X143136952Y-110466381D01*
X143232190Y-110418762D01*
X143279810Y-110371143D01*
X143327429Y-110275905D01*
X143327429Y-110085428D01*
X143279810Y-109990190D01*
X143232190Y-109942571D01*
X143136952Y-109894952D01*
X147422095Y-122718381D02*
X147422095Y-123527905D01*
X147469714Y-123623143D01*
X147517333Y-123670762D01*
X147612571Y-123718381D01*
X147803048Y-123718381D01*
X147898286Y-123670762D01*
X147945905Y-123623143D01*
X147993524Y-123527905D01*
X147993524Y-122718381D01*
X148993524Y-123718381D02*
X148422095Y-123718381D01*
X148707809Y-123718381D02*
X148707809Y-122718381D01*
X148612571Y-122861238D01*
X148517333Y-122956476D01*
X148422095Y-123004095D01*
X148256667Y-107884981D02*
X148256667Y-108599267D01*
X148209047Y-108742124D01*
X148113809Y-108837362D01*
X147970952Y-108884981D01*
X147875714Y-108884981D01*
X149256667Y-108884981D02*
X148685238Y-108884981D01*
X148970952Y-108884981D02*
X148970952Y-107884981D01*
X148875714Y-108027838D01*
X148780476Y-108123076D01*
X148685238Y-108170695D01*
X177720667Y-106744381D02*
X177720667Y-107458667D01*
X177673047Y-107601524D01*
X177577809Y-107696762D01*
X177434952Y-107744381D01*
X177339714Y-107744381D01*
X178149238Y-106839619D02*
X178196857Y-106792000D01*
X178292095Y-106744381D01*
X178530191Y-106744381D01*
X178625429Y-106792000D01*
X178673048Y-106839619D01*
X178720667Y-106934857D01*
X178720667Y-107030095D01*
X178673048Y-107172952D01*
X178101619Y-107744381D01*
X178720667Y-107744381D01*
X175982571Y-100376762D02*
X176125428Y-100424381D01*
X176363524Y-100424381D01*
X176458762Y-100376762D01*
X176506381Y-100329143D01*
X176554000Y-100233905D01*
X176554000Y-100138667D01*
X176506381Y-100043429D01*
X176458762Y-99995810D01*
X176363524Y-99948190D01*
X176173047Y-99900571D01*
X176077809Y-99852952D01*
X176030190Y-99805333D01*
X175982571Y-99710095D01*
X175982571Y-99614857D01*
X176030190Y-99519619D01*
X176077809Y-99472000D01*
X176173047Y-99424381D01*
X176411143Y-99424381D01*
X176554000Y-99472000D01*
X176982571Y-100424381D02*
X176982571Y-99424381D01*
X177363524Y-99424381D01*
X177458762Y-99472000D01*
X177506381Y-99519619D01*
X177554000Y-99614857D01*
X177554000Y-99757714D01*
X177506381Y-99852952D01*
X177458762Y-99900571D01*
X177363524Y-99948190D01*
X176982571Y-99948190D01*
X177982571Y-100424381D02*
X177982571Y-99424381D01*
X178554000Y-100424381D02*
X178125428Y-99852952D01*
X178554000Y-99424381D02*
X177982571Y-99995810D01*
X178744476Y-100519619D02*
X179506381Y-100519619D01*
X180220667Y-100424381D02*
X179744476Y-100424381D01*
X179744476Y-99424381D01*
X177720667Y-108060381D02*
X177720667Y-108774667D01*
X177673047Y-108917524D01*
X177577809Y-109012762D01*
X177434952Y-109060381D01*
X177339714Y-109060381D01*
X178101619Y-108060381D02*
X178720667Y-108060381D01*
X178387333Y-108441333D01*
X178530191Y-108441333D01*
X178625429Y-108488952D01*
X178673048Y-108536571D01*
X178720667Y-108631810D01*
X178720667Y-108869905D01*
X178673048Y-108965143D01*
X178625429Y-109012762D01*
X178530191Y-109060381D01*
X178244476Y-109060381D01*
X178149238Y-109012762D01*
X178101619Y-108965143D01*
X175887333Y-116332762D02*
X176030190Y-116380381D01*
X176268286Y-116380381D01*
X176363524Y-116332762D01*
X176411143Y-116285143D01*
X176458762Y-116189905D01*
X176458762Y-116094667D01*
X176411143Y-115999429D01*
X176363524Y-115951810D01*
X176268286Y-115904190D01*
X176077809Y-115856571D01*
X175982571Y-115808952D01*
X175934952Y-115761333D01*
X175887333Y-115666095D01*
X175887333Y-115570857D01*
X175934952Y-115475619D01*
X175982571Y-115428000D01*
X176077809Y-115380381D01*
X176315905Y-115380381D01*
X176458762Y-115428000D01*
X176887333Y-116380381D02*
X176887333Y-115380381D01*
X177268286Y-115380381D01*
X177363524Y-115428000D01*
X177411143Y-115475619D01*
X177458762Y-115570857D01*
X177458762Y-115713714D01*
X177411143Y-115808952D01*
X177363524Y-115856571D01*
X177268286Y-115904190D01*
X176887333Y-115904190D01*
X177887333Y-116380381D02*
X177887333Y-115380381D01*
X178458762Y-116380381D02*
X178030190Y-115808952D01*
X178458762Y-115380381D02*
X177887333Y-115951810D01*
X178649238Y-116475619D02*
X179411143Y-116475619D01*
X180220667Y-116380381D02*
X179887333Y-115904190D01*
X179649238Y-116380381D02*
X179649238Y-115380381D01*
X180030191Y-115380381D01*
X180125429Y-115428000D01*
X180173048Y-115475619D01*
X180220667Y-115570857D01*
X180220667Y-115713714D01*
X180173048Y-115808952D01*
X180125429Y-115856571D01*
X180030191Y-115904190D01*
X179649238Y-115904190D01*
X165100095Y-105116381D02*
X165100095Y-105925905D01*
X165147714Y-106021143D01*
X165195333Y-106068762D01*
X165290571Y-106116381D01*
X165481048Y-106116381D01*
X165576286Y-106068762D01*
X165623905Y-106021143D01*
X165671524Y-105925905D01*
X165671524Y-105116381D01*
X166576286Y-105449714D02*
X166576286Y-106116381D01*
X166338190Y-105068762D02*
X166100095Y-105783048D01*
X166719143Y-105783048D01*
X154996856Y-107910381D02*
X155615904Y-107910381D01*
X155282570Y-108291333D01*
X155425428Y-108291333D01*
X155520666Y-108338952D01*
X155568285Y-108386571D01*
X155615904Y-108481810D01*
X155615904Y-108719905D01*
X155568285Y-108815143D01*
X155520666Y-108862762D01*
X155425428Y-108910381D01*
X155139713Y-108910381D01*
X155044475Y-108862762D01*
X154996856Y-108815143D01*
X155949237Y-107910381D02*
X156187332Y-108910381D01*
X156377809Y-108196095D01*
X156568285Y-108910381D01*
X156806380Y-107910381D01*
X156949237Y-109005619D02*
X157711142Y-109005619D01*
X157901618Y-108862762D02*
X158044475Y-108910381D01*
X158282571Y-108910381D01*
X158377809Y-108862762D01*
X158425428Y-108815143D01*
X158473047Y-108719905D01*
X158473047Y-108624667D01*
X158425428Y-108529429D01*
X158377809Y-108481810D01*
X158282571Y-108434190D01*
X158092094Y-108386571D01*
X157996856Y-108338952D01*
X157949237Y-108291333D01*
X157901618Y-108196095D01*
X157901618Y-108100857D01*
X157949237Y-108005619D01*
X157996856Y-107958000D01*
X158092094Y-107910381D01*
X158330190Y-107910381D01*
X158473047Y-107958000D01*
X158758761Y-108243714D02*
X159139713Y-108243714D01*
X158901618Y-107910381D02*
X158901618Y-108767524D01*
X158949237Y-108862762D01*
X159044475Y-108910381D01*
X159139713Y-108910381D01*
X159854000Y-108862762D02*
X159758762Y-108910381D01*
X159568285Y-108910381D01*
X159473047Y-108862762D01*
X159425428Y-108767524D01*
X159425428Y-108386571D01*
X159473047Y-108291333D01*
X159568285Y-108243714D01*
X159758762Y-108243714D01*
X159854000Y-108291333D01*
X159901619Y-108386571D01*
X159901619Y-108481810D01*
X159425428Y-108577048D01*
X160330190Y-108910381D02*
X160330190Y-108243714D01*
X160330190Y-108434190D02*
X160377809Y-108338952D01*
X160425428Y-108291333D01*
X160520666Y-108243714D01*
X160615905Y-108243714D01*
X161330191Y-108862762D02*
X161234953Y-108910381D01*
X161044476Y-108910381D01*
X160949238Y-108862762D01*
X160901619Y-108767524D01*
X160901619Y-108386571D01*
X160949238Y-108291333D01*
X161044476Y-108243714D01*
X161234953Y-108243714D01*
X161330191Y-108291333D01*
X161377810Y-108386571D01*
X161377810Y-108481810D01*
X160901619Y-108577048D01*
X161949238Y-108910381D02*
X161854000Y-108862762D01*
X161806381Y-108815143D01*
X161758762Y-108719905D01*
X161758762Y-108434190D01*
X161806381Y-108338952D01*
X161854000Y-108291333D01*
X161949238Y-108243714D01*
X162092096Y-108243714D01*
X162187334Y-108291333D01*
X162234953Y-108338952D01*
X162282572Y-108434190D01*
X162282572Y-108719905D01*
X162234953Y-108815143D01*
X162187334Y-108862762D01*
X162092096Y-108910381D01*
X161949238Y-108910381D01*
X162473048Y-109005619D02*
X163234953Y-109005619D01*
X163425429Y-108624667D02*
X163901620Y-108624667D01*
X163330191Y-108910381D02*
X163663524Y-107910381D01*
X163996858Y-108910381D01*
X164330191Y-108910381D02*
X164330191Y-108243714D01*
X164330191Y-108338952D02*
X164377810Y-108291333D01*
X164473048Y-108243714D01*
X164615906Y-108243714D01*
X164711144Y-108291333D01*
X164758763Y-108386571D01*
X164758763Y-108910381D01*
X164758763Y-108386571D02*
X164806382Y-108291333D01*
X164901620Y-108243714D01*
X165044477Y-108243714D01*
X165139715Y-108291333D01*
X165187334Y-108386571D01*
X165187334Y-108910381D01*
X165663524Y-108243714D02*
X165663524Y-109243714D01*
X165663524Y-108291333D02*
X165758762Y-108243714D01*
X165949239Y-108243714D01*
X166044477Y-108291333D01*
X166092096Y-108338952D01*
X166139715Y-108434190D01*
X166139715Y-108719905D01*
X166092096Y-108815143D01*
X166044477Y-108862762D01*
X165949239Y-108910381D01*
X165758762Y-108910381D01*
X165663524Y-108862762D01*
X166711143Y-108910381D02*
X166615905Y-108862762D01*
X166568286Y-108767524D01*
X166568286Y-107910381D01*
X167092096Y-108910381D02*
X167092096Y-108243714D01*
X167092096Y-107910381D02*
X167044477Y-107958000D01*
X167092096Y-108005619D01*
X167139715Y-107958000D01*
X167092096Y-107910381D01*
X167092096Y-108005619D01*
X167425429Y-108243714D02*
X167806381Y-108243714D01*
X167568286Y-108910381D02*
X167568286Y-108053238D01*
X167615905Y-107958000D01*
X167711143Y-107910381D01*
X167806381Y-107910381D01*
X168139715Y-108910381D02*
X168139715Y-108243714D01*
X168139715Y-107910381D02*
X168092096Y-107958000D01*
X168139715Y-108005619D01*
X168187334Y-107958000D01*
X168139715Y-107910381D01*
X168139715Y-108005619D01*
X168996858Y-108862762D02*
X168901620Y-108910381D01*
X168711143Y-108910381D01*
X168615905Y-108862762D01*
X168568286Y-108767524D01*
X168568286Y-108386571D01*
X168615905Y-108291333D01*
X168711143Y-108243714D01*
X168901620Y-108243714D01*
X168996858Y-108291333D01*
X169044477Y-108386571D01*
X169044477Y-108481810D01*
X168568286Y-108577048D01*
X169473048Y-108910381D02*
X169473048Y-108243714D01*
X169473048Y-108434190D02*
X169520667Y-108338952D01*
X169568286Y-108291333D01*
X169663524Y-108243714D01*
X169758763Y-108243714D01*
X169854001Y-109005619D02*
X170615906Y-109005619D01*
X170854001Y-108910381D02*
X170854001Y-107910381D01*
X171187335Y-108624667D01*
X171520668Y-107910381D01*
X171520668Y-108910381D01*
X172139715Y-108910381D02*
X172044477Y-108862762D01*
X171996858Y-108815143D01*
X171949239Y-108719905D01*
X171949239Y-108434190D01*
X171996858Y-108338952D01*
X172044477Y-108291333D01*
X172139715Y-108243714D01*
X172282573Y-108243714D01*
X172377811Y-108291333D01*
X172425430Y-108338952D01*
X172473049Y-108434190D01*
X172473049Y-108719905D01*
X172425430Y-108815143D01*
X172377811Y-108862762D01*
X172282573Y-108910381D01*
X172139715Y-108910381D01*
X173330192Y-108910381D02*
X173330192Y-107910381D01*
X173330192Y-108862762D02*
X173234954Y-108910381D01*
X173044477Y-108910381D01*
X172949239Y-108862762D01*
X172901620Y-108815143D01*
X172854001Y-108719905D01*
X172854001Y-108434190D01*
X172901620Y-108338952D01*
X172949239Y-108291333D01*
X173044477Y-108243714D01*
X173234954Y-108243714D01*
X173330192Y-108291333D01*
X174234954Y-108243714D02*
X174234954Y-108910381D01*
X173806382Y-108243714D02*
X173806382Y-108767524D01*
X173854001Y-108862762D01*
X173949239Y-108910381D01*
X174092097Y-108910381D01*
X174187335Y-108862762D01*
X174234954Y-108815143D01*
X174854001Y-108910381D02*
X174758763Y-108862762D01*
X174711144Y-108767524D01*
X174711144Y-107910381D01*
X175615907Y-108862762D02*
X175520669Y-108910381D01*
X175330192Y-108910381D01*
X175234954Y-108862762D01*
X175187335Y-108767524D01*
X175187335Y-108386571D01*
X175234954Y-108291333D01*
X175330192Y-108243714D01*
X175520669Y-108243714D01*
X175615907Y-108291333D01*
X175663526Y-108386571D01*
X175663526Y-108481810D01*
X175187335Y-108577048D01*
X142327334Y-120626143D02*
X142279715Y-120673762D01*
X142136858Y-120721381D01*
X142041620Y-120721381D01*
X141898762Y-120673762D01*
X141803524Y-120578524D01*
X141755905Y-120483286D01*
X141708286Y-120292810D01*
X141708286Y-120149952D01*
X141755905Y-119959476D01*
X141803524Y-119864238D01*
X141898762Y-119769000D01*
X142041620Y-119721381D01*
X142136858Y-119721381D01*
X142279715Y-119769000D01*
X142327334Y-119816619D01*
X143184477Y-120054714D02*
X143184477Y-120721381D01*
X142946381Y-119673762D02*
X142708286Y-120388048D01*
X143327334Y-120388048D01*
X143270381Y-118574857D02*
X143270381Y-119146286D01*
X143270381Y-118860572D02*
X142270381Y-118860572D01*
X142413238Y-118955810D01*
X142508476Y-119051048D01*
X142556095Y-119146286D01*
X142270381Y-117955810D02*
X142270381Y-117860571D01*
X142318000Y-117765333D01*
X142365619Y-117717714D01*
X142460857Y-117670095D01*
X142651333Y-117622476D01*
X142889429Y-117622476D01*
X143079905Y-117670095D01*
X143175143Y-117717714D01*
X143222762Y-117765333D01*
X143270381Y-117860571D01*
X143270381Y-117955810D01*
X143222762Y-118051048D01*
X143175143Y-118098667D01*
X143079905Y-118146286D01*
X142889429Y-118193905D01*
X142651333Y-118193905D01*
X142460857Y-118146286D01*
X142365619Y-118098667D01*
X142318000Y-118051048D01*
X142270381Y-117955810D01*
X142603714Y-116765333D02*
X143270381Y-116765333D01*
X142603714Y-117193905D02*
X143127524Y-117193905D01*
X143222762Y-117146286D01*
X143270381Y-117051048D01*
X143270381Y-116908190D01*
X143222762Y-116812952D01*
X143175143Y-116765333D01*
X143387143Y-103798666D02*
X143434762Y-103846285D01*
X143482381Y-103989142D01*
X143482381Y-104084380D01*
X143434762Y-104227238D01*
X143339524Y-104322476D01*
X143244286Y-104370095D01*
X143053810Y-104417714D01*
X142910952Y-104417714D01*
X142720476Y-104370095D01*
X142625238Y-104322476D01*
X142530000Y-104227238D01*
X142482381Y-104084380D01*
X142482381Y-103989142D01*
X142530000Y-103846285D01*
X142577619Y-103798666D01*
X142577619Y-103417714D02*
X142530000Y-103370095D01*
X142482381Y-103274857D01*
X142482381Y-103036761D01*
X142530000Y-102941523D01*
X142577619Y-102893904D01*
X142672857Y-102846285D01*
X142768095Y-102846285D01*
X142910952Y-102893904D01*
X143482381Y-103465333D01*
X143482381Y-102846285D01*
X147232381Y-104274857D02*
X147232381Y-104846286D01*
X147232381Y-104560572D02*
X146232381Y-104560572D01*
X146375238Y-104655810D01*
X146470476Y-104751048D01*
X146518095Y-104846286D01*
X146232381Y-103655810D02*
X146232381Y-103560571D01*
X146280000Y-103465333D01*
X146327619Y-103417714D01*
X146422857Y-103370095D01*
X146613333Y-103322476D01*
X146851429Y-103322476D01*
X147041905Y-103370095D01*
X147137143Y-103417714D01*
X147184762Y-103465333D01*
X147232381Y-103560571D01*
X147232381Y-103655810D01*
X147184762Y-103751048D01*
X147137143Y-103798667D01*
X147041905Y-103846286D01*
X146851429Y-103893905D01*
X146613333Y-103893905D01*
X146422857Y-103846286D01*
X146327619Y-103798667D01*
X146280000Y-103751048D01*
X146232381Y-103655810D01*
X146565714Y-102465333D02*
X147232381Y-102465333D01*
X146565714Y-102893905D02*
X147089524Y-102893905D01*
X147184762Y-102846286D01*
X147232381Y-102751048D01*
X147232381Y-102608190D01*
X147184762Y-102512952D01*
X147137143Y-102465333D01*
X156765667Y-119721381D02*
X156765667Y-120435667D01*
X156718047Y-120578524D01*
X156622809Y-120673762D01*
X156479952Y-120721381D01*
X156384714Y-120721381D01*
X157670429Y-120054714D02*
X157670429Y-120721381D01*
X157432333Y-119673762D02*
X157194238Y-120388048D01*
X157813286Y-120388048D01*
X165013095Y-119165667D02*
X165489286Y-119165667D01*
X164917857Y-119451381D02*
X165251190Y-118451381D01*
X165584524Y-119451381D01*
X165917857Y-119451381D02*
X165917857Y-118451381D01*
X166251191Y-119165667D01*
X166584524Y-118451381D01*
X166584524Y-119451381D01*
X167060714Y-119451381D02*
X167060714Y-118451381D01*
X167441667Y-118451381D01*
X167536905Y-118499000D01*
X167584524Y-118546619D01*
X167632143Y-118641857D01*
X167632143Y-118784714D01*
X167584524Y-118879952D01*
X167536905Y-118927571D01*
X167441667Y-118975190D01*
X167060714Y-118975190D01*
X168822619Y-119451381D02*
X168822619Y-118451381D01*
X169203572Y-118451381D01*
X169298810Y-118499000D01*
X169346429Y-118546619D01*
X169394048Y-118641857D01*
X169394048Y-118784714D01*
X169346429Y-118879952D01*
X169298810Y-118927571D01*
X169203572Y-118975190D01*
X168822619Y-118975190D01*
X169727381Y-118451381D02*
X169965476Y-119451381D01*
X170155953Y-118737095D01*
X170346429Y-119451381D01*
X170584524Y-118451381D01*
X171536905Y-119451381D02*
X171203571Y-118975190D01*
X170965476Y-119451381D02*
X170965476Y-118451381D01*
X171346429Y-118451381D01*
X171441667Y-118499000D01*
X171489286Y-118546619D01*
X171536905Y-118641857D01*
X171536905Y-118784714D01*
X171489286Y-118879952D01*
X171441667Y-118927571D01*
X171346429Y-118975190D01*
X170965476Y-118975190D01*
M02*
