G04 #@! TF.FileFunction,Copper,L1,Top,Signal*
%FSLAX46Y46*%
G04 Gerber Fmt 4.6, Leading zero omitted, Abs format (unit mm)*
G04 Created by KiCad (PCBNEW 4.0.6-e0-6349~53~ubuntu16.04.1) date Wed Mar 29 22:02:49 2017*
%MOMM*%
%LPD*%
G01*
G04 APERTURE LIST*
%ADD10C,0.100000*%
%ADD11R,1.250000X1.000000*%
%ADD12R,0.700000X1.300000*%
%ADD13R,1.300000X0.700000*%
%ADD14R,0.800000X0.900000*%
%ADD15C,1.524000*%
%ADD16R,2.750000X1.800000*%
%ADD17C,1.650000*%
%ADD18R,1.700000X1.700000*%
%ADD19O,1.700000X1.700000*%
%ADD20R,1.524000X1.524000*%
%ADD21R,1.600000X1.000000*%
%ADD22C,0.600000*%
%ADD23C,0.250000*%
%ADD24C,0.254000*%
G04 APERTURE END LIST*
D10*
D11*
X138176000Y-103648000D03*
X138176000Y-105648000D03*
X137922000Y-113014000D03*
X137922000Y-111014000D03*
D12*
X135702000Y-101600000D03*
X137602000Y-101600000D03*
D13*
X135890000Y-103698000D03*
X135890000Y-105598000D03*
X137922000Y-116520000D03*
X137922000Y-114620000D03*
X137922000Y-118176000D03*
X137922000Y-120076000D03*
D14*
X140274000Y-105648000D03*
X142174000Y-105648000D03*
X141224000Y-103648000D03*
X140020000Y-113014000D03*
X141920000Y-113014000D03*
X140970000Y-111014000D03*
D15*
X124308000Y-96596000D03*
X124308000Y-94056000D03*
X126848000Y-96596000D03*
X126848000Y-94056000D03*
X129388000Y-96596000D03*
X129388000Y-94056000D03*
X131928000Y-96596000D03*
X131928000Y-94056000D03*
X134468000Y-96596000D03*
X134468000Y-94056000D03*
X137008000Y-96596000D03*
X137008000Y-94056000D03*
X139548000Y-96596000D03*
X139548000Y-94056000D03*
X142088000Y-96596000D03*
X142088000Y-94056000D03*
X144628000Y-96596000D03*
X144628000Y-94056000D03*
X147168000Y-96596000D03*
X147168000Y-94056000D03*
X149708000Y-96596000D03*
X149708000Y-94056000D03*
X152248000Y-96596000D03*
X152248000Y-94056000D03*
X154788000Y-96596000D03*
X154788000Y-94056000D03*
X157328000Y-96596000D03*
X157328000Y-94056000D03*
X159868000Y-96596000D03*
X159868000Y-94056000D03*
X162408000Y-96596000D03*
X162408000Y-94056000D03*
X164948000Y-96596000D03*
X164948000Y-94056000D03*
X167488000Y-96596000D03*
X167488000Y-94056000D03*
X170028000Y-96596000D03*
X170028000Y-94056000D03*
X172568000Y-96596000D03*
X172568000Y-94056000D03*
D16*
X145415000Y-119462000D03*
X145415000Y-116162000D03*
X145415000Y-110312000D03*
X152165000Y-119212000D03*
X152165000Y-112112000D03*
D17*
X148590000Y-118412000D03*
X148590000Y-112412000D03*
D18*
X178054000Y-104902000D03*
D19*
X178054000Y-102362000D03*
D18*
X178054000Y-110998000D03*
D19*
X178054000Y-113538000D03*
D20*
X174244000Y-100330000D03*
X174244000Y-102870000D03*
X174244000Y-113030000D03*
X174244000Y-115570000D03*
X155702000Y-100330000D03*
X155702000Y-102870000D03*
X155702000Y-105410000D03*
X155702000Y-113030000D03*
X155702000Y-115570000D03*
D21*
X140818000Y-119432000D03*
X140818000Y-116432000D03*
X144780000Y-105132000D03*
X144780000Y-102132000D03*
D18*
X162560000Y-119126000D03*
D19*
X160020000Y-119126000D03*
D22*
X152165000Y-112112000D03*
X145415000Y-110363000D03*
D23*
X135702000Y-101600000D02*
X135702000Y-102575300D01*
X135890000Y-103230600D02*
X138176000Y-103230600D01*
X135890000Y-103698000D02*
X135890000Y-103230600D01*
X135890000Y-102763300D02*
X135702000Y-102575300D01*
X135890000Y-103230600D02*
X135890000Y-102763300D01*
X138176000Y-103648000D02*
X138176000Y-103230600D01*
X139149600Y-102257000D02*
X138176000Y-103230600D01*
X144780000Y-102257000D02*
X139149600Y-102257000D01*
X138934300Y-116557000D02*
X138897300Y-116520000D01*
X140818000Y-116557000D02*
X138934300Y-116557000D01*
X137922000Y-116520000D02*
X138897300Y-116520000D01*
X137922000Y-113014000D02*
X137922000Y-113839300D01*
X137922000Y-118176000D02*
X137922000Y-116520000D01*
X137199900Y-113839300D02*
X137922000Y-113839300D01*
X136946600Y-114092600D02*
X137199900Y-113839300D01*
X136946600Y-115122500D02*
X136946600Y-114092600D01*
X137668800Y-115844700D02*
X136946600Y-115122500D01*
X137922000Y-115844700D02*
X137668800Y-115844700D01*
X137922000Y-116520000D02*
X137922000Y-115844700D01*
X142193900Y-97683400D02*
X138277300Y-101600000D01*
X163860600Y-97683400D02*
X142193900Y-97683400D01*
X164948000Y-96596000D02*
X163860600Y-97683400D01*
X137602000Y-101600000D02*
X138277300Y-101600000D01*
X138906100Y-113635900D02*
X137922000Y-114620000D01*
X138906100Y-112346100D02*
X138906100Y-113635900D01*
X138610500Y-112050500D02*
X138906100Y-112346100D01*
X137331000Y-112050500D02*
X138610500Y-112050500D01*
X123213500Y-97933000D02*
X137331000Y-112050500D01*
X123213500Y-96146600D02*
X123213500Y-97933000D01*
X124034100Y-95326000D02*
X123213500Y-96146600D01*
X135738000Y-95326000D02*
X124034100Y-95326000D01*
X137008000Y-94056000D02*
X135738000Y-95326000D01*
X140970000Y-111014000D02*
X140970000Y-110238700D01*
X141033500Y-110175200D02*
X141033500Y-104473400D01*
X140970000Y-110238700D02*
X141033500Y-110175200D01*
X132185400Y-104473400D02*
X141033500Y-104473400D01*
X124308000Y-96596000D02*
X132185400Y-104473400D01*
X141083600Y-104423300D02*
X141224000Y-104423300D01*
X141033500Y-104473400D02*
X141083600Y-104423300D01*
X141224000Y-103648000D02*
X141224000Y-104423300D01*
X142174000Y-105648000D02*
X142899300Y-105648000D01*
X144780000Y-105007000D02*
X145855300Y-105007000D01*
X143219800Y-105648000D02*
X142899300Y-105648000D01*
X143704700Y-105163100D02*
X143219800Y-105648000D01*
X143704700Y-105007000D02*
X143704700Y-105163100D01*
X144780000Y-105007000D02*
X143704700Y-105007000D01*
X146258300Y-105410000D02*
X155702000Y-105410000D01*
X145855300Y-105007000D02*
X146258300Y-105410000D01*
X154105400Y-119212000D02*
X152165000Y-119212000D01*
X156789400Y-116528000D02*
X154105400Y-119212000D01*
X156789400Y-107584700D02*
X156789400Y-116528000D01*
X155702000Y-106497300D02*
X156789400Y-107584700D01*
X155702000Y-105410000D02*
X155702000Y-106497300D01*
X140818000Y-119307000D02*
X141893300Y-119307000D01*
X145415000Y-119462000D02*
X143714700Y-119462000D01*
X143533000Y-119280300D02*
X143714700Y-119462000D01*
X141920000Y-119280300D02*
X143533000Y-119280300D01*
X141920000Y-113014000D02*
X141920000Y-119280300D01*
X141920000Y-119280300D02*
X141893300Y-119307000D01*
X148091700Y-120438400D02*
X147115300Y-119462000D01*
X153679600Y-120438400D02*
X148091700Y-120438400D01*
X157240700Y-116877300D02*
X153679600Y-120438400D01*
X157240700Y-102412400D02*
X157240700Y-116877300D01*
X156245600Y-101417300D02*
X157240700Y-102412400D01*
X155702000Y-101417300D02*
X156245600Y-101417300D01*
X155702000Y-100330000D02*
X155702000Y-101417300D01*
X145415000Y-119462000D02*
X147115300Y-119462000D01*
X145415000Y-110363000D02*
X145415000Y-110312000D01*
D24*
G36*
X178604395Y-92709690D02*
X179523192Y-93323611D01*
X180137110Y-94242405D01*
X180366600Y-95396131D01*
X180366600Y-118220431D01*
X180144869Y-119378312D01*
X179537508Y-120301498D01*
X178623090Y-120921986D01*
X177473511Y-121159200D01*
X153876670Y-121159200D01*
X153970439Y-121140548D01*
X154217001Y-120975801D01*
X156095895Y-119096907D01*
X158535000Y-119096907D01*
X158535000Y-119155093D01*
X158648039Y-119723378D01*
X158969946Y-120205147D01*
X159451715Y-120527054D01*
X160020000Y-120640093D01*
X160588285Y-120527054D01*
X161070054Y-120205147D01*
X161097850Y-120163548D01*
X161106838Y-120211317D01*
X161245910Y-120427441D01*
X161458110Y-120572431D01*
X161710000Y-120623440D01*
X163410000Y-120623440D01*
X163645317Y-120579162D01*
X163861441Y-120440090D01*
X164006431Y-120227890D01*
X164057440Y-119976000D01*
X164057440Y-118711060D01*
X175510652Y-118711060D01*
X175816012Y-119450086D01*
X176380940Y-120016001D01*
X177119432Y-120322650D01*
X177919060Y-120323348D01*
X178658086Y-120017988D01*
X179224001Y-119453060D01*
X179530650Y-118714568D01*
X179531348Y-117914940D01*
X179225988Y-117175914D01*
X178661060Y-116609999D01*
X177922568Y-116303350D01*
X177122940Y-116302652D01*
X176383914Y-116608012D01*
X175817999Y-117172940D01*
X175511350Y-117911432D01*
X175510652Y-118711060D01*
X164057440Y-118711060D01*
X164057440Y-118276000D01*
X164013162Y-118040683D01*
X163874090Y-117824559D01*
X163661890Y-117679569D01*
X163410000Y-117628560D01*
X161710000Y-117628560D01*
X161474683Y-117672838D01*
X161258559Y-117811910D01*
X161113569Y-118024110D01*
X161099914Y-118091541D01*
X161070054Y-118046853D01*
X160588285Y-117724946D01*
X160020000Y-117611907D01*
X159451715Y-117724946D01*
X158969946Y-118046853D01*
X158648039Y-118528622D01*
X158535000Y-119096907D01*
X156095895Y-119096907D01*
X157778101Y-117414701D01*
X157942848Y-117168139D01*
X158000700Y-116877300D01*
X158000700Y-112268000D01*
X172834560Y-112268000D01*
X172834560Y-113792000D01*
X172878838Y-114027317D01*
X173017910Y-114243441D01*
X173099770Y-114299374D01*
X173030559Y-114343910D01*
X172885569Y-114556110D01*
X172834560Y-114808000D01*
X172834560Y-116332000D01*
X172878838Y-116567317D01*
X173017910Y-116783441D01*
X173230110Y-116928431D01*
X173482000Y-116979440D01*
X175006000Y-116979440D01*
X175241317Y-116935162D01*
X175457441Y-116796090D01*
X175602431Y-116583890D01*
X175653440Y-116332000D01*
X175653440Y-114808000D01*
X175609162Y-114572683D01*
X175470090Y-114356559D01*
X175388230Y-114300626D01*
X175457441Y-114256090D01*
X175602431Y-114043890D01*
X175653440Y-113792000D01*
X175653440Y-113538000D01*
X176539907Y-113538000D01*
X176652946Y-114106285D01*
X176974853Y-114588054D01*
X177456622Y-114909961D01*
X178024907Y-115023000D01*
X178083093Y-115023000D01*
X178651378Y-114909961D01*
X179133147Y-114588054D01*
X179455054Y-114106285D01*
X179568093Y-113538000D01*
X179455054Y-112969715D01*
X179133147Y-112487946D01*
X179091548Y-112460150D01*
X179139317Y-112451162D01*
X179355441Y-112312090D01*
X179500431Y-112099890D01*
X179551440Y-111848000D01*
X179551440Y-110148000D01*
X179507162Y-109912683D01*
X179368090Y-109696559D01*
X179155890Y-109551569D01*
X178904000Y-109500560D01*
X177204000Y-109500560D01*
X176968683Y-109544838D01*
X176752559Y-109683910D01*
X176607569Y-109896110D01*
X176556560Y-110148000D01*
X176556560Y-111848000D01*
X176600838Y-112083317D01*
X176739910Y-112299441D01*
X176952110Y-112444431D01*
X177019541Y-112458086D01*
X176974853Y-112487946D01*
X176652946Y-112969715D01*
X176539907Y-113538000D01*
X175653440Y-113538000D01*
X175653440Y-112268000D01*
X175609162Y-112032683D01*
X175470090Y-111816559D01*
X175257890Y-111671569D01*
X175006000Y-111620560D01*
X173482000Y-111620560D01*
X173246683Y-111664838D01*
X173030559Y-111803910D01*
X172885569Y-112016110D01*
X172834560Y-112268000D01*
X158000700Y-112268000D01*
X158000700Y-102412400D01*
X157942848Y-102121561D01*
X157778101Y-101874999D01*
X157091848Y-101188746D01*
X157111440Y-101092000D01*
X157111440Y-99568000D01*
X172834560Y-99568000D01*
X172834560Y-101092000D01*
X172878838Y-101327317D01*
X173017910Y-101543441D01*
X173099770Y-101599374D01*
X173030559Y-101643910D01*
X172885569Y-101856110D01*
X172834560Y-102108000D01*
X172834560Y-103632000D01*
X172878838Y-103867317D01*
X173017910Y-104083441D01*
X173230110Y-104228431D01*
X173482000Y-104279440D01*
X175006000Y-104279440D01*
X175241317Y-104235162D01*
X175457441Y-104096090D01*
X175602431Y-103883890D01*
X175653440Y-103632000D01*
X175653440Y-102362000D01*
X176539907Y-102362000D01*
X176652946Y-102930285D01*
X176974853Y-103412054D01*
X177016452Y-103439850D01*
X176968683Y-103448838D01*
X176752559Y-103587910D01*
X176607569Y-103800110D01*
X176556560Y-104052000D01*
X176556560Y-105752000D01*
X176600838Y-105987317D01*
X176739910Y-106203441D01*
X176952110Y-106348431D01*
X177204000Y-106399440D01*
X178904000Y-106399440D01*
X179139317Y-106355162D01*
X179355441Y-106216090D01*
X179500431Y-106003890D01*
X179551440Y-105752000D01*
X179551440Y-104052000D01*
X179507162Y-103816683D01*
X179368090Y-103600559D01*
X179155890Y-103455569D01*
X179088459Y-103441914D01*
X179133147Y-103412054D01*
X179455054Y-102930285D01*
X179568093Y-102362000D01*
X179455054Y-101793715D01*
X179133147Y-101311946D01*
X178651378Y-100990039D01*
X178083093Y-100877000D01*
X178024907Y-100877000D01*
X177456622Y-100990039D01*
X176974853Y-101311946D01*
X176652946Y-101793715D01*
X176539907Y-102362000D01*
X175653440Y-102362000D01*
X175653440Y-102108000D01*
X175609162Y-101872683D01*
X175470090Y-101656559D01*
X175388230Y-101600626D01*
X175457441Y-101556090D01*
X175602431Y-101343890D01*
X175653440Y-101092000D01*
X175653440Y-99568000D01*
X175609162Y-99332683D01*
X175470090Y-99116559D01*
X175257890Y-98971569D01*
X175006000Y-98920560D01*
X173482000Y-98920560D01*
X173246683Y-98964838D01*
X173030559Y-99103910D01*
X172885569Y-99316110D01*
X172834560Y-99568000D01*
X157111440Y-99568000D01*
X157067162Y-99332683D01*
X156928090Y-99116559D01*
X156715890Y-98971569D01*
X156464000Y-98920560D01*
X154940000Y-98920560D01*
X154704683Y-98964838D01*
X154488559Y-99103910D01*
X154343569Y-99316110D01*
X154292560Y-99568000D01*
X154292560Y-101092000D01*
X154336838Y-101327317D01*
X154475910Y-101543441D01*
X154553511Y-101596463D01*
X154401673Y-101748302D01*
X154305000Y-101981691D01*
X154305000Y-102584250D01*
X154463750Y-102743000D01*
X155575000Y-102743000D01*
X155575000Y-102723000D01*
X155829000Y-102723000D01*
X155829000Y-102743000D01*
X155849000Y-102743000D01*
X155849000Y-102997000D01*
X155829000Y-102997000D01*
X155829000Y-103017000D01*
X155575000Y-103017000D01*
X155575000Y-102997000D01*
X154463750Y-102997000D01*
X154305000Y-103155750D01*
X154305000Y-103758309D01*
X154401673Y-103991698D01*
X154552646Y-104142671D01*
X154488559Y-104183910D01*
X154343569Y-104396110D01*
X154292560Y-104648000D01*
X154292560Y-104650000D01*
X146573102Y-104650000D01*
X146392701Y-104469599D01*
X146146139Y-104304852D01*
X146120831Y-104299818D01*
X146044090Y-104180559D01*
X145831890Y-104035569D01*
X145580000Y-103984560D01*
X143980000Y-103984560D01*
X143744683Y-104028838D01*
X143528559Y-104167910D01*
X143438314Y-104299988D01*
X143413861Y-104304852D01*
X143167299Y-104469599D01*
X143002552Y-104716161D01*
X143001481Y-104721545D01*
X142825890Y-104601569D01*
X142574000Y-104550560D01*
X142083319Y-104550560D01*
X142220431Y-104349890D01*
X142271440Y-104098000D01*
X142271440Y-103198000D01*
X142237382Y-103017000D01*
X143473156Y-103017000D01*
X143515910Y-103083441D01*
X143728110Y-103228431D01*
X143980000Y-103279440D01*
X145580000Y-103279440D01*
X145815317Y-103235162D01*
X146031441Y-103096090D01*
X146176431Y-102883890D01*
X146227440Y-102632000D01*
X146227440Y-101632000D01*
X146183162Y-101396683D01*
X146044090Y-101180559D01*
X145831890Y-101035569D01*
X145580000Y-100984560D01*
X143980000Y-100984560D01*
X143744683Y-101028838D01*
X143528559Y-101167910D01*
X143383569Y-101380110D01*
X143359898Y-101497000D01*
X139455102Y-101497000D01*
X142508702Y-98443400D01*
X163860600Y-98443400D01*
X164151439Y-98385548D01*
X164398001Y-98220801D01*
X164638619Y-97980183D01*
X164668900Y-97992757D01*
X165224661Y-97993242D01*
X165738303Y-97781010D01*
X166131629Y-97388370D01*
X166217949Y-97180488D01*
X166302990Y-97386303D01*
X166695630Y-97779629D01*
X167208900Y-97992757D01*
X167764661Y-97993242D01*
X168278303Y-97781010D01*
X168671629Y-97388370D01*
X168757949Y-97180488D01*
X168842990Y-97386303D01*
X169235630Y-97779629D01*
X169748900Y-97992757D01*
X170304661Y-97993242D01*
X170818303Y-97781010D01*
X171023457Y-97576213D01*
X171767392Y-97576213D01*
X171836857Y-97818397D01*
X172360302Y-98005144D01*
X172915368Y-97977362D01*
X173299143Y-97818397D01*
X173368608Y-97576213D01*
X172568000Y-96775605D01*
X171767392Y-97576213D01*
X171023457Y-97576213D01*
X171211629Y-97388370D01*
X171291395Y-97196273D01*
X171345603Y-97327143D01*
X171587787Y-97396608D01*
X172388395Y-96596000D01*
X172747605Y-96596000D01*
X173548213Y-97396608D01*
X173790397Y-97327143D01*
X173977144Y-96803698D01*
X173949362Y-96248632D01*
X173790397Y-95864857D01*
X173548213Y-95795392D01*
X172747605Y-96596000D01*
X172388395Y-96596000D01*
X171587787Y-95795392D01*
X171345603Y-95864857D01*
X171295491Y-96005318D01*
X171213010Y-95805697D01*
X170820370Y-95412371D01*
X170612488Y-95326051D01*
X170818303Y-95241010D01*
X171211629Y-94848370D01*
X171297949Y-94640488D01*
X171382990Y-94846303D01*
X171775630Y-95239629D01*
X171967727Y-95319395D01*
X171836857Y-95373603D01*
X171767392Y-95615787D01*
X172568000Y-96416395D01*
X173260335Y-95724060D01*
X175510652Y-95724060D01*
X175816012Y-96463086D01*
X176380940Y-97029001D01*
X177119432Y-97335650D01*
X177919060Y-97336348D01*
X178658086Y-97030988D01*
X179224001Y-96466060D01*
X179530650Y-95727568D01*
X179531348Y-94927940D01*
X179225988Y-94188914D01*
X178661060Y-93622999D01*
X177922568Y-93316350D01*
X177122940Y-93315652D01*
X176383914Y-93621012D01*
X175817999Y-94185940D01*
X175511350Y-94924432D01*
X175510652Y-95724060D01*
X173260335Y-95724060D01*
X173368608Y-95615787D01*
X173299143Y-95373603D01*
X173158682Y-95323491D01*
X173358303Y-95241010D01*
X173751629Y-94848370D01*
X173964757Y-94335100D01*
X173965242Y-93779339D01*
X173753010Y-93265697D01*
X173360370Y-92872371D01*
X172847100Y-92659243D01*
X172291339Y-92658758D01*
X171777697Y-92870990D01*
X171384371Y-93263630D01*
X171298051Y-93471512D01*
X171213010Y-93265697D01*
X170820370Y-92872371D01*
X170307100Y-92659243D01*
X169751339Y-92658758D01*
X169237697Y-92870990D01*
X168844371Y-93263630D01*
X168758051Y-93471512D01*
X168673010Y-93265697D01*
X168280370Y-92872371D01*
X167767100Y-92659243D01*
X167211339Y-92658758D01*
X166697697Y-92870990D01*
X166304371Y-93263630D01*
X166224605Y-93455727D01*
X166170397Y-93324857D01*
X165928213Y-93255392D01*
X165127605Y-94056000D01*
X165928213Y-94856608D01*
X166170397Y-94787143D01*
X166220509Y-94646682D01*
X166302990Y-94846303D01*
X166695630Y-95239629D01*
X166903512Y-95325949D01*
X166697697Y-95410990D01*
X166304371Y-95803630D01*
X166218051Y-96011512D01*
X166133010Y-95805697D01*
X165740370Y-95412371D01*
X165548273Y-95332605D01*
X165679143Y-95278397D01*
X165748608Y-95036213D01*
X164948000Y-94235605D01*
X164147392Y-95036213D01*
X164216857Y-95278397D01*
X164357318Y-95328509D01*
X164157697Y-95410990D01*
X163764371Y-95803630D01*
X163678051Y-96011512D01*
X163593010Y-95805697D01*
X163200370Y-95412371D01*
X162992488Y-95326051D01*
X163198303Y-95241010D01*
X163591629Y-94848370D01*
X163671395Y-94656273D01*
X163725603Y-94787143D01*
X163967787Y-94856608D01*
X164768395Y-94056000D01*
X163967787Y-93255392D01*
X163725603Y-93324857D01*
X163675491Y-93465318D01*
X163593010Y-93265697D01*
X163403432Y-93075787D01*
X164147392Y-93075787D01*
X164948000Y-93876395D01*
X165748608Y-93075787D01*
X165679143Y-92833603D01*
X165155698Y-92646856D01*
X164600632Y-92674638D01*
X164216857Y-92833603D01*
X164147392Y-93075787D01*
X163403432Y-93075787D01*
X163200370Y-92872371D01*
X162687100Y-92659243D01*
X162131339Y-92658758D01*
X161617697Y-92870990D01*
X161224371Y-93263630D01*
X161144605Y-93455727D01*
X161090397Y-93324857D01*
X160848213Y-93255392D01*
X160047605Y-94056000D01*
X160848213Y-94856608D01*
X161090397Y-94787143D01*
X161140509Y-94646682D01*
X161222990Y-94846303D01*
X161615630Y-95239629D01*
X161823512Y-95325949D01*
X161617697Y-95410990D01*
X161224371Y-95803630D01*
X161138051Y-96011512D01*
X161053010Y-95805697D01*
X160660370Y-95412371D01*
X160468273Y-95332605D01*
X160599143Y-95278397D01*
X160668608Y-95036213D01*
X159868000Y-94235605D01*
X159067392Y-95036213D01*
X159136857Y-95278397D01*
X159277318Y-95328509D01*
X159077697Y-95410990D01*
X158684371Y-95803630D01*
X158598051Y-96011512D01*
X158513010Y-95805697D01*
X158120370Y-95412371D01*
X157912488Y-95326051D01*
X158118303Y-95241010D01*
X158511629Y-94848370D01*
X158591395Y-94656273D01*
X158645603Y-94787143D01*
X158887787Y-94856608D01*
X159688395Y-94056000D01*
X158887787Y-93255392D01*
X158645603Y-93324857D01*
X158595491Y-93465318D01*
X158513010Y-93265697D01*
X158323432Y-93075787D01*
X159067392Y-93075787D01*
X159868000Y-93876395D01*
X160668608Y-93075787D01*
X160599143Y-92833603D01*
X160075698Y-92646856D01*
X159520632Y-92674638D01*
X159136857Y-92833603D01*
X159067392Y-93075787D01*
X158323432Y-93075787D01*
X158120370Y-92872371D01*
X157607100Y-92659243D01*
X157051339Y-92658758D01*
X156537697Y-92870990D01*
X156144371Y-93263630D01*
X156058051Y-93471512D01*
X155973010Y-93265697D01*
X155580370Y-92872371D01*
X155067100Y-92659243D01*
X154511339Y-92658758D01*
X153997697Y-92870990D01*
X153604371Y-93263630D01*
X153518051Y-93471512D01*
X153433010Y-93265697D01*
X153040370Y-92872371D01*
X152527100Y-92659243D01*
X151971339Y-92658758D01*
X151457697Y-92870990D01*
X151064371Y-93263630D01*
X150978051Y-93471512D01*
X150893010Y-93265697D01*
X150500370Y-92872371D01*
X149987100Y-92659243D01*
X149431339Y-92658758D01*
X148917697Y-92870990D01*
X148524371Y-93263630D01*
X148444605Y-93455727D01*
X148390397Y-93324857D01*
X148148213Y-93255392D01*
X147347605Y-94056000D01*
X148148213Y-94856608D01*
X148390397Y-94787143D01*
X148440509Y-94646682D01*
X148522990Y-94846303D01*
X148915630Y-95239629D01*
X149123512Y-95325949D01*
X148917697Y-95410990D01*
X148524371Y-95803630D01*
X148438051Y-96011512D01*
X148353010Y-95805697D01*
X147960370Y-95412371D01*
X147768273Y-95332605D01*
X147899143Y-95278397D01*
X147968608Y-95036213D01*
X147168000Y-94235605D01*
X146367392Y-95036213D01*
X146436857Y-95278397D01*
X146577318Y-95328509D01*
X146377697Y-95410990D01*
X145984371Y-95803630D01*
X145898051Y-96011512D01*
X145813010Y-95805697D01*
X145420370Y-95412371D01*
X145212488Y-95326051D01*
X145418303Y-95241010D01*
X145811629Y-94848370D01*
X145891395Y-94656273D01*
X145945603Y-94787143D01*
X146187787Y-94856608D01*
X146988395Y-94056000D01*
X146187787Y-93255392D01*
X145945603Y-93324857D01*
X145895491Y-93465318D01*
X145813010Y-93265697D01*
X145623432Y-93075787D01*
X146367392Y-93075787D01*
X147168000Y-93876395D01*
X147968608Y-93075787D01*
X147899143Y-92833603D01*
X147375698Y-92646856D01*
X146820632Y-92674638D01*
X146436857Y-92833603D01*
X146367392Y-93075787D01*
X145623432Y-93075787D01*
X145420370Y-92872371D01*
X144907100Y-92659243D01*
X144351339Y-92658758D01*
X143837697Y-92870990D01*
X143444371Y-93263630D01*
X143358051Y-93471512D01*
X143273010Y-93265697D01*
X142880370Y-92872371D01*
X142367100Y-92659243D01*
X141811339Y-92658758D01*
X141297697Y-92870990D01*
X140904371Y-93263630D01*
X140824605Y-93455727D01*
X140770397Y-93324857D01*
X140528213Y-93255392D01*
X139727605Y-94056000D01*
X140528213Y-94856608D01*
X140770397Y-94787143D01*
X140820509Y-94646682D01*
X140902990Y-94846303D01*
X141295630Y-95239629D01*
X141503512Y-95325949D01*
X141297697Y-95410990D01*
X140904371Y-95803630D01*
X140818051Y-96011512D01*
X140733010Y-95805697D01*
X140340370Y-95412371D01*
X140148273Y-95332605D01*
X140279143Y-95278397D01*
X140348608Y-95036213D01*
X139548000Y-94235605D01*
X138747392Y-95036213D01*
X138816857Y-95278397D01*
X138957318Y-95328509D01*
X138757697Y-95410990D01*
X138364371Y-95803630D01*
X138278051Y-96011512D01*
X138193010Y-95805697D01*
X137800370Y-95412371D01*
X137592488Y-95326051D01*
X137798303Y-95241010D01*
X138191629Y-94848370D01*
X138271395Y-94656273D01*
X138325603Y-94787143D01*
X138567787Y-94856608D01*
X139368395Y-94056000D01*
X138567787Y-93255392D01*
X138325603Y-93324857D01*
X138275491Y-93465318D01*
X138193010Y-93265697D01*
X138003432Y-93075787D01*
X138747392Y-93075787D01*
X139548000Y-93876395D01*
X140348608Y-93075787D01*
X140279143Y-92833603D01*
X139755698Y-92646856D01*
X139200632Y-92674638D01*
X138816857Y-92833603D01*
X138747392Y-93075787D01*
X138003432Y-93075787D01*
X137800370Y-92872371D01*
X137287100Y-92659243D01*
X136731339Y-92658758D01*
X136217697Y-92870990D01*
X135824371Y-93263630D01*
X135738051Y-93471512D01*
X135653010Y-93265697D01*
X135260370Y-92872371D01*
X134747100Y-92659243D01*
X134191339Y-92658758D01*
X133677697Y-92870990D01*
X133284371Y-93263630D01*
X133198051Y-93471512D01*
X133113010Y-93265697D01*
X132720370Y-92872371D01*
X132207100Y-92659243D01*
X131651339Y-92658758D01*
X131137697Y-92870990D01*
X130744371Y-93263630D01*
X130664605Y-93455727D01*
X130610397Y-93324857D01*
X130368213Y-93255392D01*
X129567605Y-94056000D01*
X129581748Y-94070143D01*
X129402143Y-94249748D01*
X129388000Y-94235605D01*
X129373858Y-94249748D01*
X129194253Y-94070143D01*
X129208395Y-94056000D01*
X128407787Y-93255392D01*
X128165603Y-93324857D01*
X128115491Y-93465318D01*
X128033010Y-93265697D01*
X127843432Y-93075787D01*
X128587392Y-93075787D01*
X129388000Y-93876395D01*
X130188608Y-93075787D01*
X130119143Y-92833603D01*
X129595698Y-92646856D01*
X129040632Y-92674638D01*
X128656857Y-92833603D01*
X128587392Y-93075787D01*
X127843432Y-93075787D01*
X127640370Y-92872371D01*
X127127100Y-92659243D01*
X126571339Y-92658758D01*
X126057697Y-92870990D01*
X125664371Y-93263630D01*
X125578051Y-93471512D01*
X125493010Y-93265697D01*
X125100370Y-92872371D01*
X124587100Y-92659243D01*
X124031339Y-92658758D01*
X123517697Y-92870990D01*
X123124371Y-93263630D01*
X122911243Y-93776900D01*
X122910758Y-94332661D01*
X123122990Y-94846303D01*
X123280855Y-95004443D01*
X122676099Y-95609199D01*
X122511352Y-95855761D01*
X122453500Y-96146600D01*
X122453500Y-97933000D01*
X122511352Y-98223839D01*
X122676099Y-98470401D01*
X136661371Y-112455673D01*
X136649560Y-112514000D01*
X136649560Y-113314838D01*
X136409199Y-113555199D01*
X136244452Y-113801761D01*
X136186600Y-114092600D01*
X136186600Y-115122500D01*
X136244452Y-115413339D01*
X136409199Y-115659901D01*
X136674195Y-115924897D01*
X136624560Y-116170000D01*
X136624560Y-116870000D01*
X136668838Y-117105317D01*
X136807910Y-117321441D01*
X136844547Y-117346474D01*
X136820559Y-117361910D01*
X136675569Y-117574110D01*
X136624560Y-117826000D01*
X136624560Y-118526000D01*
X136668838Y-118761317D01*
X136807910Y-118977441D01*
X137020110Y-119122431D01*
X137053490Y-119129191D01*
X136912301Y-119187673D01*
X136733673Y-119366302D01*
X136637000Y-119599691D01*
X136637000Y-119790250D01*
X136795750Y-119949000D01*
X137795000Y-119949000D01*
X137795000Y-119929000D01*
X138049000Y-119929000D01*
X138049000Y-119949000D01*
X139048250Y-119949000D01*
X139207000Y-119790250D01*
X139207000Y-119599691D01*
X139110327Y-119366302D01*
X138931699Y-119187673D01*
X138795713Y-119131346D01*
X138807317Y-119129162D01*
X139023441Y-118990090D01*
X139168431Y-118777890D01*
X139219440Y-118526000D01*
X139219440Y-117826000D01*
X139175162Y-117590683D01*
X139036090Y-117374559D01*
X138999453Y-117349526D01*
X139023441Y-117334090D01*
X139035118Y-117317000D01*
X139511156Y-117317000D01*
X139553910Y-117383441D01*
X139766110Y-117528431D01*
X140018000Y-117579440D01*
X141160000Y-117579440D01*
X141160000Y-118284560D01*
X140018000Y-118284560D01*
X139782683Y-118328838D01*
X139566559Y-118467910D01*
X139421569Y-118680110D01*
X139370560Y-118932000D01*
X139370560Y-119932000D01*
X139414838Y-120167317D01*
X139553910Y-120383441D01*
X139766110Y-120528431D01*
X140018000Y-120579440D01*
X141618000Y-120579440D01*
X141853317Y-120535162D01*
X142069441Y-120396090D01*
X142214431Y-120183890D01*
X142243509Y-120040300D01*
X143238509Y-120040300D01*
X143392560Y-120143233D01*
X143392560Y-120362000D01*
X143436838Y-120597317D01*
X143575910Y-120813441D01*
X143788110Y-120958431D01*
X144040000Y-121009440D01*
X146790000Y-121009440D01*
X147025317Y-120965162D01*
X147241441Y-120826090D01*
X147307665Y-120729167D01*
X147554299Y-120975801D01*
X147800861Y-121140548D01*
X147894630Y-121159200D01*
X119424531Y-121159200D01*
X118270805Y-120929710D01*
X117420793Y-120361750D01*
X136637000Y-120361750D01*
X136637000Y-120552309D01*
X136733673Y-120785698D01*
X136912301Y-120964327D01*
X137145690Y-121061000D01*
X137636250Y-121061000D01*
X137795000Y-120902250D01*
X137795000Y-120203000D01*
X138049000Y-120203000D01*
X138049000Y-120902250D01*
X138207750Y-121061000D01*
X138698310Y-121061000D01*
X138931699Y-120964327D01*
X139110327Y-120785698D01*
X139207000Y-120552309D01*
X139207000Y-120361750D01*
X139048250Y-120203000D01*
X138049000Y-120203000D01*
X137795000Y-120203000D01*
X136795750Y-120203000D01*
X136637000Y-120361750D01*
X117420793Y-120361750D01*
X117352011Y-120315792D01*
X116738090Y-119396995D01*
X116601650Y-118711060D01*
X117344652Y-118711060D01*
X117650012Y-119450086D01*
X118214940Y-120016001D01*
X118953432Y-120322650D01*
X119753060Y-120323348D01*
X120492086Y-120017988D01*
X121058001Y-119453060D01*
X121364650Y-118714568D01*
X121365348Y-117914940D01*
X121059988Y-117175914D01*
X120495060Y-116609999D01*
X119756568Y-116303350D01*
X118956940Y-116302652D01*
X118217914Y-116608012D01*
X117651999Y-117172940D01*
X117345350Y-117911432D01*
X117344652Y-118711060D01*
X116601650Y-118711060D01*
X116508600Y-118243269D01*
X116508600Y-95724060D01*
X117344652Y-95724060D01*
X117650012Y-96463086D01*
X118214940Y-97029001D01*
X118953432Y-97335650D01*
X119753060Y-97336348D01*
X120492086Y-97030988D01*
X121058001Y-96466060D01*
X121364650Y-95727568D01*
X121365348Y-94927940D01*
X121059988Y-94188914D01*
X120495060Y-93622999D01*
X119756568Y-93316350D01*
X118956940Y-93315652D01*
X118217914Y-93621012D01*
X117651999Y-94185940D01*
X117345350Y-94924432D01*
X117344652Y-95724060D01*
X116508600Y-95724060D01*
X116508600Y-95441812D01*
X116722538Y-94279758D01*
X117323348Y-93352166D01*
X118233398Y-92725105D01*
X119378853Y-92480200D01*
X177450669Y-92480200D01*
X178604395Y-92709690D01*
X178604395Y-92709690D01*
G37*
X178604395Y-92709690D02*
X179523192Y-93323611D01*
X180137110Y-94242405D01*
X180366600Y-95396131D01*
X180366600Y-118220431D01*
X180144869Y-119378312D01*
X179537508Y-120301498D01*
X178623090Y-120921986D01*
X177473511Y-121159200D01*
X153876670Y-121159200D01*
X153970439Y-121140548D01*
X154217001Y-120975801D01*
X156095895Y-119096907D01*
X158535000Y-119096907D01*
X158535000Y-119155093D01*
X158648039Y-119723378D01*
X158969946Y-120205147D01*
X159451715Y-120527054D01*
X160020000Y-120640093D01*
X160588285Y-120527054D01*
X161070054Y-120205147D01*
X161097850Y-120163548D01*
X161106838Y-120211317D01*
X161245910Y-120427441D01*
X161458110Y-120572431D01*
X161710000Y-120623440D01*
X163410000Y-120623440D01*
X163645317Y-120579162D01*
X163861441Y-120440090D01*
X164006431Y-120227890D01*
X164057440Y-119976000D01*
X164057440Y-118711060D01*
X175510652Y-118711060D01*
X175816012Y-119450086D01*
X176380940Y-120016001D01*
X177119432Y-120322650D01*
X177919060Y-120323348D01*
X178658086Y-120017988D01*
X179224001Y-119453060D01*
X179530650Y-118714568D01*
X179531348Y-117914940D01*
X179225988Y-117175914D01*
X178661060Y-116609999D01*
X177922568Y-116303350D01*
X177122940Y-116302652D01*
X176383914Y-116608012D01*
X175817999Y-117172940D01*
X175511350Y-117911432D01*
X175510652Y-118711060D01*
X164057440Y-118711060D01*
X164057440Y-118276000D01*
X164013162Y-118040683D01*
X163874090Y-117824559D01*
X163661890Y-117679569D01*
X163410000Y-117628560D01*
X161710000Y-117628560D01*
X161474683Y-117672838D01*
X161258559Y-117811910D01*
X161113569Y-118024110D01*
X161099914Y-118091541D01*
X161070054Y-118046853D01*
X160588285Y-117724946D01*
X160020000Y-117611907D01*
X159451715Y-117724946D01*
X158969946Y-118046853D01*
X158648039Y-118528622D01*
X158535000Y-119096907D01*
X156095895Y-119096907D01*
X157778101Y-117414701D01*
X157942848Y-117168139D01*
X158000700Y-116877300D01*
X158000700Y-112268000D01*
X172834560Y-112268000D01*
X172834560Y-113792000D01*
X172878838Y-114027317D01*
X173017910Y-114243441D01*
X173099770Y-114299374D01*
X173030559Y-114343910D01*
X172885569Y-114556110D01*
X172834560Y-114808000D01*
X172834560Y-116332000D01*
X172878838Y-116567317D01*
X173017910Y-116783441D01*
X173230110Y-116928431D01*
X173482000Y-116979440D01*
X175006000Y-116979440D01*
X175241317Y-116935162D01*
X175457441Y-116796090D01*
X175602431Y-116583890D01*
X175653440Y-116332000D01*
X175653440Y-114808000D01*
X175609162Y-114572683D01*
X175470090Y-114356559D01*
X175388230Y-114300626D01*
X175457441Y-114256090D01*
X175602431Y-114043890D01*
X175653440Y-113792000D01*
X175653440Y-113538000D01*
X176539907Y-113538000D01*
X176652946Y-114106285D01*
X176974853Y-114588054D01*
X177456622Y-114909961D01*
X178024907Y-115023000D01*
X178083093Y-115023000D01*
X178651378Y-114909961D01*
X179133147Y-114588054D01*
X179455054Y-114106285D01*
X179568093Y-113538000D01*
X179455054Y-112969715D01*
X179133147Y-112487946D01*
X179091548Y-112460150D01*
X179139317Y-112451162D01*
X179355441Y-112312090D01*
X179500431Y-112099890D01*
X179551440Y-111848000D01*
X179551440Y-110148000D01*
X179507162Y-109912683D01*
X179368090Y-109696559D01*
X179155890Y-109551569D01*
X178904000Y-109500560D01*
X177204000Y-109500560D01*
X176968683Y-109544838D01*
X176752559Y-109683910D01*
X176607569Y-109896110D01*
X176556560Y-110148000D01*
X176556560Y-111848000D01*
X176600838Y-112083317D01*
X176739910Y-112299441D01*
X176952110Y-112444431D01*
X177019541Y-112458086D01*
X176974853Y-112487946D01*
X176652946Y-112969715D01*
X176539907Y-113538000D01*
X175653440Y-113538000D01*
X175653440Y-112268000D01*
X175609162Y-112032683D01*
X175470090Y-111816559D01*
X175257890Y-111671569D01*
X175006000Y-111620560D01*
X173482000Y-111620560D01*
X173246683Y-111664838D01*
X173030559Y-111803910D01*
X172885569Y-112016110D01*
X172834560Y-112268000D01*
X158000700Y-112268000D01*
X158000700Y-102412400D01*
X157942848Y-102121561D01*
X157778101Y-101874999D01*
X157091848Y-101188746D01*
X157111440Y-101092000D01*
X157111440Y-99568000D01*
X172834560Y-99568000D01*
X172834560Y-101092000D01*
X172878838Y-101327317D01*
X173017910Y-101543441D01*
X173099770Y-101599374D01*
X173030559Y-101643910D01*
X172885569Y-101856110D01*
X172834560Y-102108000D01*
X172834560Y-103632000D01*
X172878838Y-103867317D01*
X173017910Y-104083441D01*
X173230110Y-104228431D01*
X173482000Y-104279440D01*
X175006000Y-104279440D01*
X175241317Y-104235162D01*
X175457441Y-104096090D01*
X175602431Y-103883890D01*
X175653440Y-103632000D01*
X175653440Y-102362000D01*
X176539907Y-102362000D01*
X176652946Y-102930285D01*
X176974853Y-103412054D01*
X177016452Y-103439850D01*
X176968683Y-103448838D01*
X176752559Y-103587910D01*
X176607569Y-103800110D01*
X176556560Y-104052000D01*
X176556560Y-105752000D01*
X176600838Y-105987317D01*
X176739910Y-106203441D01*
X176952110Y-106348431D01*
X177204000Y-106399440D01*
X178904000Y-106399440D01*
X179139317Y-106355162D01*
X179355441Y-106216090D01*
X179500431Y-106003890D01*
X179551440Y-105752000D01*
X179551440Y-104052000D01*
X179507162Y-103816683D01*
X179368090Y-103600559D01*
X179155890Y-103455569D01*
X179088459Y-103441914D01*
X179133147Y-103412054D01*
X179455054Y-102930285D01*
X179568093Y-102362000D01*
X179455054Y-101793715D01*
X179133147Y-101311946D01*
X178651378Y-100990039D01*
X178083093Y-100877000D01*
X178024907Y-100877000D01*
X177456622Y-100990039D01*
X176974853Y-101311946D01*
X176652946Y-101793715D01*
X176539907Y-102362000D01*
X175653440Y-102362000D01*
X175653440Y-102108000D01*
X175609162Y-101872683D01*
X175470090Y-101656559D01*
X175388230Y-101600626D01*
X175457441Y-101556090D01*
X175602431Y-101343890D01*
X175653440Y-101092000D01*
X175653440Y-99568000D01*
X175609162Y-99332683D01*
X175470090Y-99116559D01*
X175257890Y-98971569D01*
X175006000Y-98920560D01*
X173482000Y-98920560D01*
X173246683Y-98964838D01*
X173030559Y-99103910D01*
X172885569Y-99316110D01*
X172834560Y-99568000D01*
X157111440Y-99568000D01*
X157067162Y-99332683D01*
X156928090Y-99116559D01*
X156715890Y-98971569D01*
X156464000Y-98920560D01*
X154940000Y-98920560D01*
X154704683Y-98964838D01*
X154488559Y-99103910D01*
X154343569Y-99316110D01*
X154292560Y-99568000D01*
X154292560Y-101092000D01*
X154336838Y-101327317D01*
X154475910Y-101543441D01*
X154553511Y-101596463D01*
X154401673Y-101748302D01*
X154305000Y-101981691D01*
X154305000Y-102584250D01*
X154463750Y-102743000D01*
X155575000Y-102743000D01*
X155575000Y-102723000D01*
X155829000Y-102723000D01*
X155829000Y-102743000D01*
X155849000Y-102743000D01*
X155849000Y-102997000D01*
X155829000Y-102997000D01*
X155829000Y-103017000D01*
X155575000Y-103017000D01*
X155575000Y-102997000D01*
X154463750Y-102997000D01*
X154305000Y-103155750D01*
X154305000Y-103758309D01*
X154401673Y-103991698D01*
X154552646Y-104142671D01*
X154488559Y-104183910D01*
X154343569Y-104396110D01*
X154292560Y-104648000D01*
X154292560Y-104650000D01*
X146573102Y-104650000D01*
X146392701Y-104469599D01*
X146146139Y-104304852D01*
X146120831Y-104299818D01*
X146044090Y-104180559D01*
X145831890Y-104035569D01*
X145580000Y-103984560D01*
X143980000Y-103984560D01*
X143744683Y-104028838D01*
X143528559Y-104167910D01*
X143438314Y-104299988D01*
X143413861Y-104304852D01*
X143167299Y-104469599D01*
X143002552Y-104716161D01*
X143001481Y-104721545D01*
X142825890Y-104601569D01*
X142574000Y-104550560D01*
X142083319Y-104550560D01*
X142220431Y-104349890D01*
X142271440Y-104098000D01*
X142271440Y-103198000D01*
X142237382Y-103017000D01*
X143473156Y-103017000D01*
X143515910Y-103083441D01*
X143728110Y-103228431D01*
X143980000Y-103279440D01*
X145580000Y-103279440D01*
X145815317Y-103235162D01*
X146031441Y-103096090D01*
X146176431Y-102883890D01*
X146227440Y-102632000D01*
X146227440Y-101632000D01*
X146183162Y-101396683D01*
X146044090Y-101180559D01*
X145831890Y-101035569D01*
X145580000Y-100984560D01*
X143980000Y-100984560D01*
X143744683Y-101028838D01*
X143528559Y-101167910D01*
X143383569Y-101380110D01*
X143359898Y-101497000D01*
X139455102Y-101497000D01*
X142508702Y-98443400D01*
X163860600Y-98443400D01*
X164151439Y-98385548D01*
X164398001Y-98220801D01*
X164638619Y-97980183D01*
X164668900Y-97992757D01*
X165224661Y-97993242D01*
X165738303Y-97781010D01*
X166131629Y-97388370D01*
X166217949Y-97180488D01*
X166302990Y-97386303D01*
X166695630Y-97779629D01*
X167208900Y-97992757D01*
X167764661Y-97993242D01*
X168278303Y-97781010D01*
X168671629Y-97388370D01*
X168757949Y-97180488D01*
X168842990Y-97386303D01*
X169235630Y-97779629D01*
X169748900Y-97992757D01*
X170304661Y-97993242D01*
X170818303Y-97781010D01*
X171023457Y-97576213D01*
X171767392Y-97576213D01*
X171836857Y-97818397D01*
X172360302Y-98005144D01*
X172915368Y-97977362D01*
X173299143Y-97818397D01*
X173368608Y-97576213D01*
X172568000Y-96775605D01*
X171767392Y-97576213D01*
X171023457Y-97576213D01*
X171211629Y-97388370D01*
X171291395Y-97196273D01*
X171345603Y-97327143D01*
X171587787Y-97396608D01*
X172388395Y-96596000D01*
X172747605Y-96596000D01*
X173548213Y-97396608D01*
X173790397Y-97327143D01*
X173977144Y-96803698D01*
X173949362Y-96248632D01*
X173790397Y-95864857D01*
X173548213Y-95795392D01*
X172747605Y-96596000D01*
X172388395Y-96596000D01*
X171587787Y-95795392D01*
X171345603Y-95864857D01*
X171295491Y-96005318D01*
X171213010Y-95805697D01*
X170820370Y-95412371D01*
X170612488Y-95326051D01*
X170818303Y-95241010D01*
X171211629Y-94848370D01*
X171297949Y-94640488D01*
X171382990Y-94846303D01*
X171775630Y-95239629D01*
X171967727Y-95319395D01*
X171836857Y-95373603D01*
X171767392Y-95615787D01*
X172568000Y-96416395D01*
X173260335Y-95724060D01*
X175510652Y-95724060D01*
X175816012Y-96463086D01*
X176380940Y-97029001D01*
X177119432Y-97335650D01*
X177919060Y-97336348D01*
X178658086Y-97030988D01*
X179224001Y-96466060D01*
X179530650Y-95727568D01*
X179531348Y-94927940D01*
X179225988Y-94188914D01*
X178661060Y-93622999D01*
X177922568Y-93316350D01*
X177122940Y-93315652D01*
X176383914Y-93621012D01*
X175817999Y-94185940D01*
X175511350Y-94924432D01*
X175510652Y-95724060D01*
X173260335Y-95724060D01*
X173368608Y-95615787D01*
X173299143Y-95373603D01*
X173158682Y-95323491D01*
X173358303Y-95241010D01*
X173751629Y-94848370D01*
X173964757Y-94335100D01*
X173965242Y-93779339D01*
X173753010Y-93265697D01*
X173360370Y-92872371D01*
X172847100Y-92659243D01*
X172291339Y-92658758D01*
X171777697Y-92870990D01*
X171384371Y-93263630D01*
X171298051Y-93471512D01*
X171213010Y-93265697D01*
X170820370Y-92872371D01*
X170307100Y-92659243D01*
X169751339Y-92658758D01*
X169237697Y-92870990D01*
X168844371Y-93263630D01*
X168758051Y-93471512D01*
X168673010Y-93265697D01*
X168280370Y-92872371D01*
X167767100Y-92659243D01*
X167211339Y-92658758D01*
X166697697Y-92870990D01*
X166304371Y-93263630D01*
X166224605Y-93455727D01*
X166170397Y-93324857D01*
X165928213Y-93255392D01*
X165127605Y-94056000D01*
X165928213Y-94856608D01*
X166170397Y-94787143D01*
X166220509Y-94646682D01*
X166302990Y-94846303D01*
X166695630Y-95239629D01*
X166903512Y-95325949D01*
X166697697Y-95410990D01*
X166304371Y-95803630D01*
X166218051Y-96011512D01*
X166133010Y-95805697D01*
X165740370Y-95412371D01*
X165548273Y-95332605D01*
X165679143Y-95278397D01*
X165748608Y-95036213D01*
X164948000Y-94235605D01*
X164147392Y-95036213D01*
X164216857Y-95278397D01*
X164357318Y-95328509D01*
X164157697Y-95410990D01*
X163764371Y-95803630D01*
X163678051Y-96011512D01*
X163593010Y-95805697D01*
X163200370Y-95412371D01*
X162992488Y-95326051D01*
X163198303Y-95241010D01*
X163591629Y-94848370D01*
X163671395Y-94656273D01*
X163725603Y-94787143D01*
X163967787Y-94856608D01*
X164768395Y-94056000D01*
X163967787Y-93255392D01*
X163725603Y-93324857D01*
X163675491Y-93465318D01*
X163593010Y-93265697D01*
X163403432Y-93075787D01*
X164147392Y-93075787D01*
X164948000Y-93876395D01*
X165748608Y-93075787D01*
X165679143Y-92833603D01*
X165155698Y-92646856D01*
X164600632Y-92674638D01*
X164216857Y-92833603D01*
X164147392Y-93075787D01*
X163403432Y-93075787D01*
X163200370Y-92872371D01*
X162687100Y-92659243D01*
X162131339Y-92658758D01*
X161617697Y-92870990D01*
X161224371Y-93263630D01*
X161144605Y-93455727D01*
X161090397Y-93324857D01*
X160848213Y-93255392D01*
X160047605Y-94056000D01*
X160848213Y-94856608D01*
X161090397Y-94787143D01*
X161140509Y-94646682D01*
X161222990Y-94846303D01*
X161615630Y-95239629D01*
X161823512Y-95325949D01*
X161617697Y-95410990D01*
X161224371Y-95803630D01*
X161138051Y-96011512D01*
X161053010Y-95805697D01*
X160660370Y-95412371D01*
X160468273Y-95332605D01*
X160599143Y-95278397D01*
X160668608Y-95036213D01*
X159868000Y-94235605D01*
X159067392Y-95036213D01*
X159136857Y-95278397D01*
X159277318Y-95328509D01*
X159077697Y-95410990D01*
X158684371Y-95803630D01*
X158598051Y-96011512D01*
X158513010Y-95805697D01*
X158120370Y-95412371D01*
X157912488Y-95326051D01*
X158118303Y-95241010D01*
X158511629Y-94848370D01*
X158591395Y-94656273D01*
X158645603Y-94787143D01*
X158887787Y-94856608D01*
X159688395Y-94056000D01*
X158887787Y-93255392D01*
X158645603Y-93324857D01*
X158595491Y-93465318D01*
X158513010Y-93265697D01*
X158323432Y-93075787D01*
X159067392Y-93075787D01*
X159868000Y-93876395D01*
X160668608Y-93075787D01*
X160599143Y-92833603D01*
X160075698Y-92646856D01*
X159520632Y-92674638D01*
X159136857Y-92833603D01*
X159067392Y-93075787D01*
X158323432Y-93075787D01*
X158120370Y-92872371D01*
X157607100Y-92659243D01*
X157051339Y-92658758D01*
X156537697Y-92870990D01*
X156144371Y-93263630D01*
X156058051Y-93471512D01*
X155973010Y-93265697D01*
X155580370Y-92872371D01*
X155067100Y-92659243D01*
X154511339Y-92658758D01*
X153997697Y-92870990D01*
X153604371Y-93263630D01*
X153518051Y-93471512D01*
X153433010Y-93265697D01*
X153040370Y-92872371D01*
X152527100Y-92659243D01*
X151971339Y-92658758D01*
X151457697Y-92870990D01*
X151064371Y-93263630D01*
X150978051Y-93471512D01*
X150893010Y-93265697D01*
X150500370Y-92872371D01*
X149987100Y-92659243D01*
X149431339Y-92658758D01*
X148917697Y-92870990D01*
X148524371Y-93263630D01*
X148444605Y-93455727D01*
X148390397Y-93324857D01*
X148148213Y-93255392D01*
X147347605Y-94056000D01*
X148148213Y-94856608D01*
X148390397Y-94787143D01*
X148440509Y-94646682D01*
X148522990Y-94846303D01*
X148915630Y-95239629D01*
X149123512Y-95325949D01*
X148917697Y-95410990D01*
X148524371Y-95803630D01*
X148438051Y-96011512D01*
X148353010Y-95805697D01*
X147960370Y-95412371D01*
X147768273Y-95332605D01*
X147899143Y-95278397D01*
X147968608Y-95036213D01*
X147168000Y-94235605D01*
X146367392Y-95036213D01*
X146436857Y-95278397D01*
X146577318Y-95328509D01*
X146377697Y-95410990D01*
X145984371Y-95803630D01*
X145898051Y-96011512D01*
X145813010Y-95805697D01*
X145420370Y-95412371D01*
X145212488Y-95326051D01*
X145418303Y-95241010D01*
X145811629Y-94848370D01*
X145891395Y-94656273D01*
X145945603Y-94787143D01*
X146187787Y-94856608D01*
X146988395Y-94056000D01*
X146187787Y-93255392D01*
X145945603Y-93324857D01*
X145895491Y-93465318D01*
X145813010Y-93265697D01*
X145623432Y-93075787D01*
X146367392Y-93075787D01*
X147168000Y-93876395D01*
X147968608Y-93075787D01*
X147899143Y-92833603D01*
X147375698Y-92646856D01*
X146820632Y-92674638D01*
X146436857Y-92833603D01*
X146367392Y-93075787D01*
X145623432Y-93075787D01*
X145420370Y-92872371D01*
X144907100Y-92659243D01*
X144351339Y-92658758D01*
X143837697Y-92870990D01*
X143444371Y-93263630D01*
X143358051Y-93471512D01*
X143273010Y-93265697D01*
X142880370Y-92872371D01*
X142367100Y-92659243D01*
X141811339Y-92658758D01*
X141297697Y-92870990D01*
X140904371Y-93263630D01*
X140824605Y-93455727D01*
X140770397Y-93324857D01*
X140528213Y-93255392D01*
X139727605Y-94056000D01*
X140528213Y-94856608D01*
X140770397Y-94787143D01*
X140820509Y-94646682D01*
X140902990Y-94846303D01*
X141295630Y-95239629D01*
X141503512Y-95325949D01*
X141297697Y-95410990D01*
X140904371Y-95803630D01*
X140818051Y-96011512D01*
X140733010Y-95805697D01*
X140340370Y-95412371D01*
X140148273Y-95332605D01*
X140279143Y-95278397D01*
X140348608Y-95036213D01*
X139548000Y-94235605D01*
X138747392Y-95036213D01*
X138816857Y-95278397D01*
X138957318Y-95328509D01*
X138757697Y-95410990D01*
X138364371Y-95803630D01*
X138278051Y-96011512D01*
X138193010Y-95805697D01*
X137800370Y-95412371D01*
X137592488Y-95326051D01*
X137798303Y-95241010D01*
X138191629Y-94848370D01*
X138271395Y-94656273D01*
X138325603Y-94787143D01*
X138567787Y-94856608D01*
X139368395Y-94056000D01*
X138567787Y-93255392D01*
X138325603Y-93324857D01*
X138275491Y-93465318D01*
X138193010Y-93265697D01*
X138003432Y-93075787D01*
X138747392Y-93075787D01*
X139548000Y-93876395D01*
X140348608Y-93075787D01*
X140279143Y-92833603D01*
X139755698Y-92646856D01*
X139200632Y-92674638D01*
X138816857Y-92833603D01*
X138747392Y-93075787D01*
X138003432Y-93075787D01*
X137800370Y-92872371D01*
X137287100Y-92659243D01*
X136731339Y-92658758D01*
X136217697Y-92870990D01*
X135824371Y-93263630D01*
X135738051Y-93471512D01*
X135653010Y-93265697D01*
X135260370Y-92872371D01*
X134747100Y-92659243D01*
X134191339Y-92658758D01*
X133677697Y-92870990D01*
X133284371Y-93263630D01*
X133198051Y-93471512D01*
X133113010Y-93265697D01*
X132720370Y-92872371D01*
X132207100Y-92659243D01*
X131651339Y-92658758D01*
X131137697Y-92870990D01*
X130744371Y-93263630D01*
X130664605Y-93455727D01*
X130610397Y-93324857D01*
X130368213Y-93255392D01*
X129567605Y-94056000D01*
X129581748Y-94070143D01*
X129402143Y-94249748D01*
X129388000Y-94235605D01*
X129373858Y-94249748D01*
X129194253Y-94070143D01*
X129208395Y-94056000D01*
X128407787Y-93255392D01*
X128165603Y-93324857D01*
X128115491Y-93465318D01*
X128033010Y-93265697D01*
X127843432Y-93075787D01*
X128587392Y-93075787D01*
X129388000Y-93876395D01*
X130188608Y-93075787D01*
X130119143Y-92833603D01*
X129595698Y-92646856D01*
X129040632Y-92674638D01*
X128656857Y-92833603D01*
X128587392Y-93075787D01*
X127843432Y-93075787D01*
X127640370Y-92872371D01*
X127127100Y-92659243D01*
X126571339Y-92658758D01*
X126057697Y-92870990D01*
X125664371Y-93263630D01*
X125578051Y-93471512D01*
X125493010Y-93265697D01*
X125100370Y-92872371D01*
X124587100Y-92659243D01*
X124031339Y-92658758D01*
X123517697Y-92870990D01*
X123124371Y-93263630D01*
X122911243Y-93776900D01*
X122910758Y-94332661D01*
X123122990Y-94846303D01*
X123280855Y-95004443D01*
X122676099Y-95609199D01*
X122511352Y-95855761D01*
X122453500Y-96146600D01*
X122453500Y-97933000D01*
X122511352Y-98223839D01*
X122676099Y-98470401D01*
X136661371Y-112455673D01*
X136649560Y-112514000D01*
X136649560Y-113314838D01*
X136409199Y-113555199D01*
X136244452Y-113801761D01*
X136186600Y-114092600D01*
X136186600Y-115122500D01*
X136244452Y-115413339D01*
X136409199Y-115659901D01*
X136674195Y-115924897D01*
X136624560Y-116170000D01*
X136624560Y-116870000D01*
X136668838Y-117105317D01*
X136807910Y-117321441D01*
X136844547Y-117346474D01*
X136820559Y-117361910D01*
X136675569Y-117574110D01*
X136624560Y-117826000D01*
X136624560Y-118526000D01*
X136668838Y-118761317D01*
X136807910Y-118977441D01*
X137020110Y-119122431D01*
X137053490Y-119129191D01*
X136912301Y-119187673D01*
X136733673Y-119366302D01*
X136637000Y-119599691D01*
X136637000Y-119790250D01*
X136795750Y-119949000D01*
X137795000Y-119949000D01*
X137795000Y-119929000D01*
X138049000Y-119929000D01*
X138049000Y-119949000D01*
X139048250Y-119949000D01*
X139207000Y-119790250D01*
X139207000Y-119599691D01*
X139110327Y-119366302D01*
X138931699Y-119187673D01*
X138795713Y-119131346D01*
X138807317Y-119129162D01*
X139023441Y-118990090D01*
X139168431Y-118777890D01*
X139219440Y-118526000D01*
X139219440Y-117826000D01*
X139175162Y-117590683D01*
X139036090Y-117374559D01*
X138999453Y-117349526D01*
X139023441Y-117334090D01*
X139035118Y-117317000D01*
X139511156Y-117317000D01*
X139553910Y-117383441D01*
X139766110Y-117528431D01*
X140018000Y-117579440D01*
X141160000Y-117579440D01*
X141160000Y-118284560D01*
X140018000Y-118284560D01*
X139782683Y-118328838D01*
X139566559Y-118467910D01*
X139421569Y-118680110D01*
X139370560Y-118932000D01*
X139370560Y-119932000D01*
X139414838Y-120167317D01*
X139553910Y-120383441D01*
X139766110Y-120528431D01*
X140018000Y-120579440D01*
X141618000Y-120579440D01*
X141853317Y-120535162D01*
X142069441Y-120396090D01*
X142214431Y-120183890D01*
X142243509Y-120040300D01*
X143238509Y-120040300D01*
X143392560Y-120143233D01*
X143392560Y-120362000D01*
X143436838Y-120597317D01*
X143575910Y-120813441D01*
X143788110Y-120958431D01*
X144040000Y-121009440D01*
X146790000Y-121009440D01*
X147025317Y-120965162D01*
X147241441Y-120826090D01*
X147307665Y-120729167D01*
X147554299Y-120975801D01*
X147800861Y-121140548D01*
X147894630Y-121159200D01*
X119424531Y-121159200D01*
X118270805Y-120929710D01*
X117420793Y-120361750D01*
X136637000Y-120361750D01*
X136637000Y-120552309D01*
X136733673Y-120785698D01*
X136912301Y-120964327D01*
X137145690Y-121061000D01*
X137636250Y-121061000D01*
X137795000Y-120902250D01*
X137795000Y-120203000D01*
X138049000Y-120203000D01*
X138049000Y-120902250D01*
X138207750Y-121061000D01*
X138698310Y-121061000D01*
X138931699Y-120964327D01*
X139110327Y-120785698D01*
X139207000Y-120552309D01*
X139207000Y-120361750D01*
X139048250Y-120203000D01*
X138049000Y-120203000D01*
X137795000Y-120203000D01*
X136795750Y-120203000D01*
X136637000Y-120361750D01*
X117420793Y-120361750D01*
X117352011Y-120315792D01*
X116738090Y-119396995D01*
X116601650Y-118711060D01*
X117344652Y-118711060D01*
X117650012Y-119450086D01*
X118214940Y-120016001D01*
X118953432Y-120322650D01*
X119753060Y-120323348D01*
X120492086Y-120017988D01*
X121058001Y-119453060D01*
X121364650Y-118714568D01*
X121365348Y-117914940D01*
X121059988Y-117175914D01*
X120495060Y-116609999D01*
X119756568Y-116303350D01*
X118956940Y-116302652D01*
X118217914Y-116608012D01*
X117651999Y-117172940D01*
X117345350Y-117911432D01*
X117344652Y-118711060D01*
X116601650Y-118711060D01*
X116508600Y-118243269D01*
X116508600Y-95724060D01*
X117344652Y-95724060D01*
X117650012Y-96463086D01*
X118214940Y-97029001D01*
X118953432Y-97335650D01*
X119753060Y-97336348D01*
X120492086Y-97030988D01*
X121058001Y-96466060D01*
X121364650Y-95727568D01*
X121365348Y-94927940D01*
X121059988Y-94188914D01*
X120495060Y-93622999D01*
X119756568Y-93316350D01*
X118956940Y-93315652D01*
X118217914Y-93621012D01*
X117651999Y-94185940D01*
X117345350Y-94924432D01*
X117344652Y-95724060D01*
X116508600Y-95724060D01*
X116508600Y-95441812D01*
X116722538Y-94279758D01*
X117323348Y-93352166D01*
X118233398Y-92725105D01*
X119378853Y-92480200D01*
X177450669Y-92480200D01*
X178604395Y-92709690D01*
G36*
X146258300Y-106170000D02*
X154292560Y-106170000D01*
X154292560Y-106172000D01*
X154336838Y-106407317D01*
X154475910Y-106623441D01*
X154688110Y-106768431D01*
X154940000Y-106819440D01*
X155020767Y-106819440D01*
X155164599Y-107034701D01*
X156029400Y-107899502D01*
X156029400Y-111620560D01*
X154940000Y-111620560D01*
X154704683Y-111664838D01*
X154488559Y-111803910D01*
X154343569Y-112016110D01*
X154292560Y-112268000D01*
X154292560Y-113792000D01*
X154336838Y-114027317D01*
X154475910Y-114243441D01*
X154557770Y-114299374D01*
X154488559Y-114343910D01*
X154343569Y-114556110D01*
X154292560Y-114808000D01*
X154292560Y-116332000D01*
X154336838Y-116567317D01*
X154475910Y-116783441D01*
X154688110Y-116928431D01*
X154940000Y-116979440D01*
X155263158Y-116979440D01*
X154146765Y-118095833D01*
X154143162Y-118076683D01*
X154004090Y-117860559D01*
X153791890Y-117715569D01*
X153540000Y-117664560D01*
X150790000Y-117664560D01*
X150554683Y-117708838D01*
X150338559Y-117847910D01*
X150193569Y-118060110D01*
X150142560Y-118312000D01*
X150142560Y-119678400D01*
X149348297Y-119678400D01*
X149415943Y-119650449D01*
X149827006Y-119240103D01*
X150049746Y-118703686D01*
X150050253Y-118122862D01*
X149828449Y-117586057D01*
X149418103Y-117174994D01*
X148881686Y-116952254D01*
X148300862Y-116951747D01*
X147764057Y-117173551D01*
X147352994Y-117583897D01*
X147160779Y-118046802D01*
X147041890Y-117965569D01*
X146790000Y-117914560D01*
X144040000Y-117914560D01*
X143804683Y-117958838D01*
X143588559Y-118097910D01*
X143443569Y-118310110D01*
X143401004Y-118520300D01*
X142680000Y-118520300D01*
X142680000Y-115262000D01*
X143392560Y-115262000D01*
X143392560Y-117062000D01*
X143436838Y-117297317D01*
X143575910Y-117513441D01*
X143788110Y-117658431D01*
X144040000Y-117709440D01*
X146790000Y-117709440D01*
X147025317Y-117665162D01*
X147241441Y-117526090D01*
X147386431Y-117313890D01*
X147437440Y-117062000D01*
X147437440Y-115262000D01*
X147393162Y-115026683D01*
X147254090Y-114810559D01*
X147041890Y-114665569D01*
X146790000Y-114614560D01*
X144040000Y-114614560D01*
X143804683Y-114658838D01*
X143588559Y-114797910D01*
X143443569Y-115010110D01*
X143392560Y-115262000D01*
X142680000Y-115262000D01*
X142680000Y-113986931D01*
X142771441Y-113928090D01*
X142916431Y-113715890D01*
X142967440Y-113464000D01*
X142967440Y-112701138D01*
X147129747Y-112701138D01*
X147351551Y-113237943D01*
X147761897Y-113649006D01*
X148298314Y-113871746D01*
X148879138Y-113872253D01*
X149415943Y-113650449D01*
X149827006Y-113240103D01*
X150049746Y-112703686D01*
X150050013Y-112397750D01*
X150155000Y-112397750D01*
X150155000Y-113138309D01*
X150251673Y-113371698D01*
X150430301Y-113550327D01*
X150663690Y-113647000D01*
X151879250Y-113647000D01*
X152038000Y-113488250D01*
X152038000Y-112239000D01*
X152292000Y-112239000D01*
X152292000Y-113488250D01*
X152450750Y-113647000D01*
X153666310Y-113647000D01*
X153899699Y-113550327D01*
X154078327Y-113371698D01*
X154175000Y-113138309D01*
X154175000Y-112397750D01*
X154016250Y-112239000D01*
X152292000Y-112239000D01*
X152038000Y-112239000D01*
X150313750Y-112239000D01*
X150155000Y-112397750D01*
X150050013Y-112397750D01*
X150050253Y-112122862D01*
X149828449Y-111586057D01*
X149418103Y-111174994D01*
X149203038Y-111085691D01*
X150155000Y-111085691D01*
X150155000Y-111826250D01*
X150313750Y-111985000D01*
X152038000Y-111985000D01*
X152038000Y-110735750D01*
X152292000Y-110735750D01*
X152292000Y-111985000D01*
X154016250Y-111985000D01*
X154175000Y-111826250D01*
X154175000Y-111085691D01*
X154078327Y-110852302D01*
X153899699Y-110673673D01*
X153666310Y-110577000D01*
X152450750Y-110577000D01*
X152292000Y-110735750D01*
X152038000Y-110735750D01*
X151879250Y-110577000D01*
X150663690Y-110577000D01*
X150430301Y-110673673D01*
X150251673Y-110852302D01*
X150155000Y-111085691D01*
X149203038Y-111085691D01*
X148881686Y-110952254D01*
X148300862Y-110951747D01*
X147764057Y-111173551D01*
X147352994Y-111583897D01*
X147130254Y-112120314D01*
X147129747Y-112701138D01*
X142967440Y-112701138D01*
X142967440Y-112564000D01*
X142923162Y-112328683D01*
X142784090Y-112112559D01*
X142571890Y-111967569D01*
X142320000Y-111916560D01*
X141829319Y-111916560D01*
X141966431Y-111715890D01*
X142017440Y-111464000D01*
X142017440Y-110564000D01*
X141973162Y-110328683D01*
X141834090Y-110112559D01*
X141793500Y-110084825D01*
X141793500Y-109412000D01*
X143392560Y-109412000D01*
X143392560Y-111212000D01*
X143436838Y-111447317D01*
X143575910Y-111663441D01*
X143788110Y-111808431D01*
X144040000Y-111859440D01*
X146790000Y-111859440D01*
X147025317Y-111815162D01*
X147241441Y-111676090D01*
X147386431Y-111463890D01*
X147437440Y-111212000D01*
X147437440Y-109412000D01*
X147393162Y-109176683D01*
X147254090Y-108960559D01*
X147041890Y-108815569D01*
X146790000Y-108764560D01*
X144040000Y-108764560D01*
X143804683Y-108808838D01*
X143588559Y-108947910D01*
X143443569Y-109160110D01*
X143392560Y-109412000D01*
X141793500Y-109412000D01*
X141793500Y-106745440D01*
X142574000Y-106745440D01*
X142809317Y-106701162D01*
X143025441Y-106562090D01*
X143130726Y-106408000D01*
X143219800Y-106408000D01*
X143510639Y-106350148D01*
X143710653Y-106216503D01*
X143728110Y-106228431D01*
X143980000Y-106279440D01*
X145580000Y-106279440D01*
X145815317Y-106235162D01*
X145997271Y-106118078D01*
X146258300Y-106170000D01*
X146258300Y-106170000D01*
G37*
X146258300Y-106170000D02*
X154292560Y-106170000D01*
X154292560Y-106172000D01*
X154336838Y-106407317D01*
X154475910Y-106623441D01*
X154688110Y-106768431D01*
X154940000Y-106819440D01*
X155020767Y-106819440D01*
X155164599Y-107034701D01*
X156029400Y-107899502D01*
X156029400Y-111620560D01*
X154940000Y-111620560D01*
X154704683Y-111664838D01*
X154488559Y-111803910D01*
X154343569Y-112016110D01*
X154292560Y-112268000D01*
X154292560Y-113792000D01*
X154336838Y-114027317D01*
X154475910Y-114243441D01*
X154557770Y-114299374D01*
X154488559Y-114343910D01*
X154343569Y-114556110D01*
X154292560Y-114808000D01*
X154292560Y-116332000D01*
X154336838Y-116567317D01*
X154475910Y-116783441D01*
X154688110Y-116928431D01*
X154940000Y-116979440D01*
X155263158Y-116979440D01*
X154146765Y-118095833D01*
X154143162Y-118076683D01*
X154004090Y-117860559D01*
X153791890Y-117715569D01*
X153540000Y-117664560D01*
X150790000Y-117664560D01*
X150554683Y-117708838D01*
X150338559Y-117847910D01*
X150193569Y-118060110D01*
X150142560Y-118312000D01*
X150142560Y-119678400D01*
X149348297Y-119678400D01*
X149415943Y-119650449D01*
X149827006Y-119240103D01*
X150049746Y-118703686D01*
X150050253Y-118122862D01*
X149828449Y-117586057D01*
X149418103Y-117174994D01*
X148881686Y-116952254D01*
X148300862Y-116951747D01*
X147764057Y-117173551D01*
X147352994Y-117583897D01*
X147160779Y-118046802D01*
X147041890Y-117965569D01*
X146790000Y-117914560D01*
X144040000Y-117914560D01*
X143804683Y-117958838D01*
X143588559Y-118097910D01*
X143443569Y-118310110D01*
X143401004Y-118520300D01*
X142680000Y-118520300D01*
X142680000Y-115262000D01*
X143392560Y-115262000D01*
X143392560Y-117062000D01*
X143436838Y-117297317D01*
X143575910Y-117513441D01*
X143788110Y-117658431D01*
X144040000Y-117709440D01*
X146790000Y-117709440D01*
X147025317Y-117665162D01*
X147241441Y-117526090D01*
X147386431Y-117313890D01*
X147437440Y-117062000D01*
X147437440Y-115262000D01*
X147393162Y-115026683D01*
X147254090Y-114810559D01*
X147041890Y-114665569D01*
X146790000Y-114614560D01*
X144040000Y-114614560D01*
X143804683Y-114658838D01*
X143588559Y-114797910D01*
X143443569Y-115010110D01*
X143392560Y-115262000D01*
X142680000Y-115262000D01*
X142680000Y-113986931D01*
X142771441Y-113928090D01*
X142916431Y-113715890D01*
X142967440Y-113464000D01*
X142967440Y-112701138D01*
X147129747Y-112701138D01*
X147351551Y-113237943D01*
X147761897Y-113649006D01*
X148298314Y-113871746D01*
X148879138Y-113872253D01*
X149415943Y-113650449D01*
X149827006Y-113240103D01*
X150049746Y-112703686D01*
X150050013Y-112397750D01*
X150155000Y-112397750D01*
X150155000Y-113138309D01*
X150251673Y-113371698D01*
X150430301Y-113550327D01*
X150663690Y-113647000D01*
X151879250Y-113647000D01*
X152038000Y-113488250D01*
X152038000Y-112239000D01*
X152292000Y-112239000D01*
X152292000Y-113488250D01*
X152450750Y-113647000D01*
X153666310Y-113647000D01*
X153899699Y-113550327D01*
X154078327Y-113371698D01*
X154175000Y-113138309D01*
X154175000Y-112397750D01*
X154016250Y-112239000D01*
X152292000Y-112239000D01*
X152038000Y-112239000D01*
X150313750Y-112239000D01*
X150155000Y-112397750D01*
X150050013Y-112397750D01*
X150050253Y-112122862D01*
X149828449Y-111586057D01*
X149418103Y-111174994D01*
X149203038Y-111085691D01*
X150155000Y-111085691D01*
X150155000Y-111826250D01*
X150313750Y-111985000D01*
X152038000Y-111985000D01*
X152038000Y-110735750D01*
X152292000Y-110735750D01*
X152292000Y-111985000D01*
X154016250Y-111985000D01*
X154175000Y-111826250D01*
X154175000Y-111085691D01*
X154078327Y-110852302D01*
X153899699Y-110673673D01*
X153666310Y-110577000D01*
X152450750Y-110577000D01*
X152292000Y-110735750D01*
X152038000Y-110735750D01*
X151879250Y-110577000D01*
X150663690Y-110577000D01*
X150430301Y-110673673D01*
X150251673Y-110852302D01*
X150155000Y-111085691D01*
X149203038Y-111085691D01*
X148881686Y-110952254D01*
X148300862Y-110951747D01*
X147764057Y-111173551D01*
X147352994Y-111583897D01*
X147130254Y-112120314D01*
X147129747Y-112701138D01*
X142967440Y-112701138D01*
X142967440Y-112564000D01*
X142923162Y-112328683D01*
X142784090Y-112112559D01*
X142571890Y-111967569D01*
X142320000Y-111916560D01*
X141829319Y-111916560D01*
X141966431Y-111715890D01*
X142017440Y-111464000D01*
X142017440Y-110564000D01*
X141973162Y-110328683D01*
X141834090Y-110112559D01*
X141793500Y-110084825D01*
X141793500Y-109412000D01*
X143392560Y-109412000D01*
X143392560Y-111212000D01*
X143436838Y-111447317D01*
X143575910Y-111663441D01*
X143788110Y-111808431D01*
X144040000Y-111859440D01*
X146790000Y-111859440D01*
X147025317Y-111815162D01*
X147241441Y-111676090D01*
X147386431Y-111463890D01*
X147437440Y-111212000D01*
X147437440Y-109412000D01*
X147393162Y-109176683D01*
X147254090Y-108960559D01*
X147041890Y-108815569D01*
X146790000Y-108764560D01*
X144040000Y-108764560D01*
X143804683Y-108808838D01*
X143588559Y-108947910D01*
X143443569Y-109160110D01*
X143392560Y-109412000D01*
X141793500Y-109412000D01*
X141793500Y-106745440D01*
X142574000Y-106745440D01*
X142809317Y-106701162D01*
X143025441Y-106562090D01*
X143130726Y-106408000D01*
X143219800Y-106408000D01*
X143510639Y-106350148D01*
X143710653Y-106216503D01*
X143728110Y-106228431D01*
X143980000Y-106279440D01*
X145580000Y-106279440D01*
X145815317Y-106235162D01*
X145997271Y-106118078D01*
X146258300Y-106170000D01*
G36*
X131647999Y-105010801D02*
X131894561Y-105175548D01*
X132185400Y-105233400D01*
X134605000Y-105233400D01*
X134605000Y-105312250D01*
X134763750Y-105471000D01*
X135763000Y-105471000D01*
X135763000Y-105451000D01*
X136017000Y-105451000D01*
X136017000Y-105471000D01*
X137016250Y-105471000D01*
X137020500Y-105466750D01*
X137074750Y-105521000D01*
X138049000Y-105521000D01*
X138049000Y-105501000D01*
X138303000Y-105501000D01*
X138303000Y-105521000D01*
X139277250Y-105521000D01*
X139337500Y-105460750D01*
X139397750Y-105521000D01*
X140147000Y-105521000D01*
X140147000Y-105501000D01*
X140273500Y-105501000D01*
X140273500Y-105795000D01*
X140147000Y-105795000D01*
X140147000Y-105775000D01*
X139397750Y-105775000D01*
X139337500Y-105835250D01*
X139277250Y-105775000D01*
X138303000Y-105775000D01*
X138303000Y-106624250D01*
X138461750Y-106783000D01*
X138927310Y-106783000D01*
X139160699Y-106686327D01*
X139339327Y-106507698D01*
X139352901Y-106474927D01*
X139514301Y-106636327D01*
X139747690Y-106733000D01*
X139988250Y-106733000D01*
X140146998Y-106574252D01*
X140146998Y-106733000D01*
X140273500Y-106733000D01*
X140273500Y-109939408D01*
X140267852Y-109947861D01*
X140255082Y-110012060D01*
X140118559Y-110099910D01*
X139973569Y-110312110D01*
X139922560Y-110564000D01*
X139922560Y-111464000D01*
X139966838Y-111699317D01*
X140105910Y-111915441D01*
X140232686Y-112002064D01*
X140147000Y-112087750D01*
X140147000Y-112887000D01*
X140167000Y-112887000D01*
X140167000Y-113141000D01*
X140147000Y-113141000D01*
X140147000Y-113940250D01*
X140305750Y-114099000D01*
X140546310Y-114099000D01*
X140779699Y-114002327D01*
X140958327Y-113823698D01*
X140973423Y-113787253D01*
X141055910Y-113915441D01*
X141160000Y-113986563D01*
X141160000Y-115284560D01*
X140018000Y-115284560D01*
X139782683Y-115328838D01*
X139566559Y-115467910D01*
X139421569Y-115680110D01*
X139397898Y-115797000D01*
X139086565Y-115797000D01*
X139036090Y-115718559D01*
X138823890Y-115573569D01*
X138810803Y-115570919D01*
X139023441Y-115434090D01*
X139168431Y-115221890D01*
X139219440Y-114970000D01*
X139219440Y-114397362D01*
X139443501Y-114173301D01*
X139493265Y-114098824D01*
X139493690Y-114099000D01*
X139734250Y-114099000D01*
X139893000Y-113940250D01*
X139893000Y-113141000D01*
X139873000Y-113141000D01*
X139873000Y-112887000D01*
X139893000Y-112887000D01*
X139893000Y-112087750D01*
X139734250Y-111929000D01*
X139523883Y-111929000D01*
X139443501Y-111808699D01*
X139182000Y-111547198D01*
X139182000Y-111299750D01*
X139023250Y-111141000D01*
X138049000Y-111141000D01*
X138049000Y-111161000D01*
X137795000Y-111161000D01*
X137795000Y-111141000D01*
X137775000Y-111141000D01*
X137775000Y-110887000D01*
X137795000Y-110887000D01*
X137795000Y-110037750D01*
X138049000Y-110037750D01*
X138049000Y-110887000D01*
X139023250Y-110887000D01*
X139182000Y-110728250D01*
X139182000Y-110387691D01*
X139085327Y-110154302D01*
X138906699Y-109975673D01*
X138673310Y-109879000D01*
X138207750Y-109879000D01*
X138049000Y-110037750D01*
X137795000Y-110037750D01*
X137636250Y-109879000D01*
X137170690Y-109879000D01*
X136937301Y-109975673D01*
X136758673Y-110154302D01*
X136685722Y-110330420D01*
X132239052Y-105883750D01*
X134605000Y-105883750D01*
X134605000Y-106074309D01*
X134701673Y-106307698D01*
X134880301Y-106486327D01*
X135113690Y-106583000D01*
X135604250Y-106583000D01*
X135763000Y-106424250D01*
X135763000Y-105725000D01*
X136017000Y-105725000D01*
X136017000Y-106424250D01*
X136175750Y-106583000D01*
X136666310Y-106583000D01*
X136899699Y-106486327D01*
X136973324Y-106412701D01*
X137012673Y-106507698D01*
X137191301Y-106686327D01*
X137424690Y-106783000D01*
X137890250Y-106783000D01*
X138049000Y-106624250D01*
X138049000Y-105775000D01*
X137074750Y-105775000D01*
X137070500Y-105779250D01*
X137016250Y-105725000D01*
X136017000Y-105725000D01*
X135763000Y-105725000D01*
X134763750Y-105725000D01*
X134605000Y-105883750D01*
X132239052Y-105883750D01*
X124348338Y-97993036D01*
X124584661Y-97993242D01*
X124617055Y-97979857D01*
X131647999Y-105010801D01*
X131647999Y-105010801D01*
G37*
X131647999Y-105010801D02*
X131894561Y-105175548D01*
X132185400Y-105233400D01*
X134605000Y-105233400D01*
X134605000Y-105312250D01*
X134763750Y-105471000D01*
X135763000Y-105471000D01*
X135763000Y-105451000D01*
X136017000Y-105451000D01*
X136017000Y-105471000D01*
X137016250Y-105471000D01*
X137020500Y-105466750D01*
X137074750Y-105521000D01*
X138049000Y-105521000D01*
X138049000Y-105501000D01*
X138303000Y-105501000D01*
X138303000Y-105521000D01*
X139277250Y-105521000D01*
X139337500Y-105460750D01*
X139397750Y-105521000D01*
X140147000Y-105521000D01*
X140147000Y-105501000D01*
X140273500Y-105501000D01*
X140273500Y-105795000D01*
X140147000Y-105795000D01*
X140147000Y-105775000D01*
X139397750Y-105775000D01*
X139337500Y-105835250D01*
X139277250Y-105775000D01*
X138303000Y-105775000D01*
X138303000Y-106624250D01*
X138461750Y-106783000D01*
X138927310Y-106783000D01*
X139160699Y-106686327D01*
X139339327Y-106507698D01*
X139352901Y-106474927D01*
X139514301Y-106636327D01*
X139747690Y-106733000D01*
X139988250Y-106733000D01*
X140146998Y-106574252D01*
X140146998Y-106733000D01*
X140273500Y-106733000D01*
X140273500Y-109939408D01*
X140267852Y-109947861D01*
X140255082Y-110012060D01*
X140118559Y-110099910D01*
X139973569Y-110312110D01*
X139922560Y-110564000D01*
X139922560Y-111464000D01*
X139966838Y-111699317D01*
X140105910Y-111915441D01*
X140232686Y-112002064D01*
X140147000Y-112087750D01*
X140147000Y-112887000D01*
X140167000Y-112887000D01*
X140167000Y-113141000D01*
X140147000Y-113141000D01*
X140147000Y-113940250D01*
X140305750Y-114099000D01*
X140546310Y-114099000D01*
X140779699Y-114002327D01*
X140958327Y-113823698D01*
X140973423Y-113787253D01*
X141055910Y-113915441D01*
X141160000Y-113986563D01*
X141160000Y-115284560D01*
X140018000Y-115284560D01*
X139782683Y-115328838D01*
X139566559Y-115467910D01*
X139421569Y-115680110D01*
X139397898Y-115797000D01*
X139086565Y-115797000D01*
X139036090Y-115718559D01*
X138823890Y-115573569D01*
X138810803Y-115570919D01*
X139023441Y-115434090D01*
X139168431Y-115221890D01*
X139219440Y-114970000D01*
X139219440Y-114397362D01*
X139443501Y-114173301D01*
X139493265Y-114098824D01*
X139493690Y-114099000D01*
X139734250Y-114099000D01*
X139893000Y-113940250D01*
X139893000Y-113141000D01*
X139873000Y-113141000D01*
X139873000Y-112887000D01*
X139893000Y-112887000D01*
X139893000Y-112087750D01*
X139734250Y-111929000D01*
X139523883Y-111929000D01*
X139443501Y-111808699D01*
X139182000Y-111547198D01*
X139182000Y-111299750D01*
X139023250Y-111141000D01*
X138049000Y-111141000D01*
X138049000Y-111161000D01*
X137795000Y-111161000D01*
X137795000Y-111141000D01*
X137775000Y-111141000D01*
X137775000Y-110887000D01*
X137795000Y-110887000D01*
X137795000Y-110037750D01*
X138049000Y-110037750D01*
X138049000Y-110887000D01*
X139023250Y-110887000D01*
X139182000Y-110728250D01*
X139182000Y-110387691D01*
X139085327Y-110154302D01*
X138906699Y-109975673D01*
X138673310Y-109879000D01*
X138207750Y-109879000D01*
X138049000Y-110037750D01*
X137795000Y-110037750D01*
X137636250Y-109879000D01*
X137170690Y-109879000D01*
X136937301Y-109975673D01*
X136758673Y-110154302D01*
X136685722Y-110330420D01*
X132239052Y-105883750D01*
X134605000Y-105883750D01*
X134605000Y-106074309D01*
X134701673Y-106307698D01*
X134880301Y-106486327D01*
X135113690Y-106583000D01*
X135604250Y-106583000D01*
X135763000Y-106424250D01*
X135763000Y-105725000D01*
X136017000Y-105725000D01*
X136017000Y-106424250D01*
X136175750Y-106583000D01*
X136666310Y-106583000D01*
X136899699Y-106486327D01*
X136973324Y-106412701D01*
X137012673Y-106507698D01*
X137191301Y-106686327D01*
X137424690Y-106783000D01*
X137890250Y-106783000D01*
X138049000Y-106624250D01*
X138049000Y-105775000D01*
X137074750Y-105775000D01*
X137070500Y-105779250D01*
X137016250Y-105725000D01*
X136017000Y-105725000D01*
X135763000Y-105725000D01*
X134763750Y-105725000D01*
X134605000Y-105883750D01*
X132239052Y-105883750D01*
X124348338Y-97993036D01*
X124584661Y-97993242D01*
X124617055Y-97979857D01*
X131647999Y-105010801D01*
G36*
X134661748Y-96581858D02*
X134647605Y-96596000D01*
X135448213Y-97396608D01*
X135690397Y-97327143D01*
X135740509Y-97186682D01*
X135822990Y-97386303D01*
X136215630Y-97779629D01*
X136728900Y-97992757D01*
X137284661Y-97993242D01*
X137798303Y-97781010D01*
X138191629Y-97388370D01*
X138277949Y-97180488D01*
X138362990Y-97386303D01*
X138755630Y-97779629D01*
X139268900Y-97992757D01*
X139824661Y-97993242D01*
X140338303Y-97781010D01*
X140731629Y-97388370D01*
X140817949Y-97180488D01*
X140902990Y-97386303D01*
X141159369Y-97643129D01*
X138349463Y-100453035D01*
X138203890Y-100353569D01*
X137952000Y-100302560D01*
X137252000Y-100302560D01*
X137016683Y-100346838D01*
X136800559Y-100485910D01*
X136655569Y-100698110D01*
X136652919Y-100711197D01*
X136516090Y-100498559D01*
X136303890Y-100353569D01*
X136052000Y-100302560D01*
X135352000Y-100302560D01*
X135116683Y-100346838D01*
X134900559Y-100485910D01*
X134755569Y-100698110D01*
X134704560Y-100950000D01*
X134704560Y-102250000D01*
X134748838Y-102485317D01*
X134887910Y-102701441D01*
X134977255Y-102762488D01*
X134788559Y-102883910D01*
X134643569Y-103096110D01*
X134592560Y-103348000D01*
X134592560Y-103713400D01*
X132500202Y-103713400D01*
X126779743Y-97992941D01*
X127124661Y-97993242D01*
X127638303Y-97781010D01*
X128031629Y-97388370D01*
X128117949Y-97180488D01*
X128202990Y-97386303D01*
X128595630Y-97779629D01*
X129108900Y-97992757D01*
X129664661Y-97993242D01*
X130178303Y-97781010D01*
X130571629Y-97388370D01*
X130657949Y-97180488D01*
X130742990Y-97386303D01*
X131135630Y-97779629D01*
X131648900Y-97992757D01*
X132204661Y-97993242D01*
X132718303Y-97781010D01*
X132923457Y-97576213D01*
X133667392Y-97576213D01*
X133736857Y-97818397D01*
X134260302Y-98005144D01*
X134815368Y-97977362D01*
X135199143Y-97818397D01*
X135268608Y-97576213D01*
X134468000Y-96775605D01*
X133667392Y-97576213D01*
X132923457Y-97576213D01*
X133111629Y-97388370D01*
X133191395Y-97196273D01*
X133245603Y-97327143D01*
X133487787Y-97396608D01*
X134288395Y-96596000D01*
X134274253Y-96581858D01*
X134453858Y-96402253D01*
X134468000Y-96416395D01*
X134482143Y-96402253D01*
X134661748Y-96581858D01*
X134661748Y-96581858D01*
G37*
X134661748Y-96581858D02*
X134647605Y-96596000D01*
X135448213Y-97396608D01*
X135690397Y-97327143D01*
X135740509Y-97186682D01*
X135822990Y-97386303D01*
X136215630Y-97779629D01*
X136728900Y-97992757D01*
X137284661Y-97993242D01*
X137798303Y-97781010D01*
X138191629Y-97388370D01*
X138277949Y-97180488D01*
X138362990Y-97386303D01*
X138755630Y-97779629D01*
X139268900Y-97992757D01*
X139824661Y-97993242D01*
X140338303Y-97781010D01*
X140731629Y-97388370D01*
X140817949Y-97180488D01*
X140902990Y-97386303D01*
X141159369Y-97643129D01*
X138349463Y-100453035D01*
X138203890Y-100353569D01*
X137952000Y-100302560D01*
X137252000Y-100302560D01*
X137016683Y-100346838D01*
X136800559Y-100485910D01*
X136655569Y-100698110D01*
X136652919Y-100711197D01*
X136516090Y-100498559D01*
X136303890Y-100353569D01*
X136052000Y-100302560D01*
X135352000Y-100302560D01*
X135116683Y-100346838D01*
X134900559Y-100485910D01*
X134755569Y-100698110D01*
X134704560Y-100950000D01*
X134704560Y-102250000D01*
X134748838Y-102485317D01*
X134887910Y-102701441D01*
X134977255Y-102762488D01*
X134788559Y-102883910D01*
X134643569Y-103096110D01*
X134592560Y-103348000D01*
X134592560Y-103713400D01*
X132500202Y-103713400D01*
X126779743Y-97992941D01*
X127124661Y-97993242D01*
X127638303Y-97781010D01*
X128031629Y-97388370D01*
X128117949Y-97180488D01*
X128202990Y-97386303D01*
X128595630Y-97779629D01*
X129108900Y-97992757D01*
X129664661Y-97993242D01*
X130178303Y-97781010D01*
X130571629Y-97388370D01*
X130657949Y-97180488D01*
X130742990Y-97386303D01*
X131135630Y-97779629D01*
X131648900Y-97992757D01*
X132204661Y-97993242D01*
X132718303Y-97781010D01*
X132923457Y-97576213D01*
X133667392Y-97576213D01*
X133736857Y-97818397D01*
X134260302Y-98005144D01*
X134815368Y-97977362D01*
X135199143Y-97818397D01*
X135268608Y-97576213D01*
X134468000Y-96775605D01*
X133667392Y-97576213D01*
X132923457Y-97576213D01*
X133111629Y-97388370D01*
X133191395Y-97196273D01*
X133245603Y-97327143D01*
X133487787Y-97396608D01*
X134288395Y-96596000D01*
X134274253Y-96581858D01*
X134453858Y-96402253D01*
X134468000Y-96416395D01*
X134482143Y-96402253D01*
X134661748Y-96581858D01*
G36*
X156142990Y-94846303D02*
X156535630Y-95239629D01*
X156743512Y-95325949D01*
X156537697Y-95410990D01*
X156144371Y-95803630D01*
X156064605Y-95995727D01*
X156010397Y-95864857D01*
X155768213Y-95795392D01*
X154967605Y-96596000D01*
X154981748Y-96610143D01*
X154802143Y-96789748D01*
X154788000Y-96775605D01*
X154773858Y-96789748D01*
X154594253Y-96610143D01*
X154608395Y-96596000D01*
X153807787Y-95795392D01*
X153565603Y-95864857D01*
X153515491Y-96005318D01*
X153433010Y-95805697D01*
X153040370Y-95412371D01*
X152832488Y-95326051D01*
X153038303Y-95241010D01*
X153431629Y-94848370D01*
X153517949Y-94640488D01*
X153602990Y-94846303D01*
X153995630Y-95239629D01*
X154187727Y-95319395D01*
X154056857Y-95373603D01*
X153987392Y-95615787D01*
X154788000Y-96416395D01*
X155588608Y-95615787D01*
X155519143Y-95373603D01*
X155378682Y-95323491D01*
X155578303Y-95241010D01*
X155971629Y-94848370D01*
X156057949Y-94640488D01*
X156142990Y-94846303D01*
X156142990Y-94846303D01*
G37*
X156142990Y-94846303D02*
X156535630Y-95239629D01*
X156743512Y-95325949D01*
X156537697Y-95410990D01*
X156144371Y-95803630D01*
X156064605Y-95995727D01*
X156010397Y-95864857D01*
X155768213Y-95795392D01*
X154967605Y-96596000D01*
X154981748Y-96610143D01*
X154802143Y-96789748D01*
X154788000Y-96775605D01*
X154773858Y-96789748D01*
X154594253Y-96610143D01*
X154608395Y-96596000D01*
X153807787Y-95795392D01*
X153565603Y-95864857D01*
X153515491Y-96005318D01*
X153433010Y-95805697D01*
X153040370Y-95412371D01*
X152832488Y-95326051D01*
X153038303Y-95241010D01*
X153431629Y-94848370D01*
X153517949Y-94640488D01*
X153602990Y-94846303D01*
X153995630Y-95239629D01*
X154187727Y-95319395D01*
X154056857Y-95373603D01*
X153987392Y-95615787D01*
X154788000Y-96416395D01*
X155588608Y-95615787D01*
X155519143Y-95373603D01*
X155378682Y-95323491D01*
X155578303Y-95241010D01*
X155971629Y-94848370D01*
X156057949Y-94640488D01*
X156142990Y-94846303D01*
M02*
