G04 #@! TF.FileFunction,Soldermask,Bot*
%FSLAX46Y46*%
G04 Gerber Fmt 4.6, Leading zero omitted, Abs format (unit mm)*
G04 Created by KiCad (PCBNEW 4.0.6-e0-6349~53~ubuntu16.04.1) date Wed Mar 29 22:02:49 2017*
%MOMM*%
%LPD*%
G01*
G04 APERTURE LIST*
%ADD10C,0.100000*%
%ADD11C,1.924000*%
%ADD12C,3.150000*%
%ADD13C,2.050000*%
%ADD14R,2.100000X2.100000*%
%ADD15O,2.100000X2.100000*%
%ADD16R,1.924000X1.924000*%
G04 APERTURE END LIST*
D10*
D11*
X124308000Y-96596000D03*
X124308000Y-94056000D03*
X126848000Y-96596000D03*
X126848000Y-94056000D03*
X129388000Y-96596000D03*
X129388000Y-94056000D03*
X131928000Y-96596000D03*
X131928000Y-94056000D03*
X134468000Y-96596000D03*
X134468000Y-94056000D03*
X137008000Y-96596000D03*
X137008000Y-94056000D03*
X139548000Y-96596000D03*
X139548000Y-94056000D03*
X142088000Y-96596000D03*
X142088000Y-94056000D03*
X144628000Y-96596000D03*
X144628000Y-94056000D03*
X147168000Y-96596000D03*
X147168000Y-94056000D03*
X149708000Y-96596000D03*
X149708000Y-94056000D03*
X152248000Y-96596000D03*
X152248000Y-94056000D03*
X154788000Y-96596000D03*
X154788000Y-94056000D03*
X157328000Y-96596000D03*
X157328000Y-94056000D03*
X159868000Y-96596000D03*
X159868000Y-94056000D03*
X162408000Y-96596000D03*
X162408000Y-94056000D03*
X164948000Y-96596000D03*
X164948000Y-94056000D03*
X167488000Y-96596000D03*
X167488000Y-94056000D03*
X170028000Y-96596000D03*
X170028000Y-94056000D03*
X172568000Y-96596000D03*
X172568000Y-94056000D03*
D12*
X119355000Y-95326000D03*
X177521000Y-95326000D03*
X119355000Y-118313000D03*
X177521000Y-118313000D03*
D13*
X148590000Y-118412000D03*
X148590000Y-112412000D03*
D14*
X178054000Y-104902000D03*
D15*
X178054000Y-102362000D03*
D14*
X178054000Y-110998000D03*
D15*
X178054000Y-113538000D03*
D16*
X174244000Y-100330000D03*
X174244000Y-102870000D03*
X174244000Y-113030000D03*
X174244000Y-115570000D03*
X155702000Y-100330000D03*
X155702000Y-102870000D03*
X155702000Y-105410000D03*
X155702000Y-113030000D03*
X155702000Y-115570000D03*
D14*
X162560000Y-119126000D03*
D15*
X160020000Y-119126000D03*
M02*
