M48
;DRILL file {KiCad 4.0.6-e0-6349~53~ubuntu16.04.1} date Wed Mar 29 22:11:44 2017
;FORMAT={-:-/ absolute / inch / decimal}
FMAT,2
INCH,TZ
T1C0.016
T2C0.030
T3C0.039
%
G90
G05
M72
T1
X5.725Y-4.345
X5.9907Y-4.4139
T2
X4.894Y-3.703
X4.894Y-3.803
X4.994Y-3.703
X4.994Y-3.803
X5.094Y-3.703
X5.094Y-3.803
X5.194Y-3.703
X5.194Y-3.803
X5.294Y-3.703
X5.294Y-3.803
X5.394Y-3.703
X5.394Y-3.803
X5.494Y-3.703
X5.494Y-3.803
X5.594Y-3.703
X5.594Y-3.803
X5.694Y-3.703
X5.694Y-3.803
X5.794Y-3.703
X5.794Y-3.803
X5.894Y-3.703
X5.894Y-3.803
X5.994Y-3.703
X5.994Y-3.803
X6.094Y-3.703
X6.094Y-3.803
X6.13Y-3.95
X6.13Y-4.05
X6.13Y-4.15
X6.13Y-4.45
X6.13Y-4.55
X6.194Y-3.703
X6.194Y-3.803
X6.294Y-3.703
X6.294Y-3.803
X6.394Y-3.703
X6.394Y-3.803
X6.494Y-3.703
X6.494Y-3.803
X6.594Y-3.703
X6.594Y-3.803
X6.694Y-3.703
X6.694Y-3.803
X6.794Y-3.703
X6.794Y-3.803
X6.86Y-3.95
X6.86Y-4.05
X6.86Y-4.45
X6.86Y-4.55
T3
X6.3Y-4.69
X6.4Y-4.69
X7.01Y-4.03
X7.01Y-4.13
X7.01Y-4.37
X7.01Y-4.47
T0
M30
